<?xml version="1.0" standalone="no"?>
<!DOCTYPE svg PUBLIC "-//W3C//DTD SVG 1.1//EN" "http://www.w3.org/Graphics/SVG/1.1/DTD/svg11.dtd" >
<svg xmlns="http://www.w3.org/2000/svg">
<metadata></metadata>
<defs>
<font id="averta-extrathiniuploadedfile" horiz-adv-x="1199" >
<font-face units-per-em="2048" ascent="1610" descent="-438" />
<missing-glyph horiz-adv-x="485" />
<glyph horiz-adv-x="0" />
<glyph unicode="&#xd;" horiz-adv-x="682" />
<glyph unicode=" "  horiz-adv-x="485" />
<glyph unicode="&#x09;" horiz-adv-x="485" />
<glyph unicode="&#xa0;" horiz-adv-x="485" />
<glyph unicode="!" horiz-adv-x="410" d="M124 38q0 20 12.5 33.5t32 13.5t32.5 -12.5t13 -32.5t-13.5 -33.5t-33.5 -13.5q-19 0 -31 12.5t-12 32.5zM181 369l132 1139h52l-148 -1139h-36z" />
<glyph unicode="&#x22;" horiz-adv-x="494" d="M171 1009l120 446h55l-132 -446h-43zM329 1009l120 446h55l-132 -446h-43z" />
<glyph unicode="#" horiz-adv-x="1152" d="M87 408l6 45h247l100 382h-265l5 44h271l120 464h45l-121 -464h354l120 464h44l-121 -464h254l-5 -44h-261l-98 -382h276l-6 -45h-283l-118 -459h-44l119 459h-353l-120 -459h-43l119 459h-242zM383 453h355l99 382h-354z" />
<glyph unicode="$" horiz-adv-x="1047" d="M93 210l39 36q69 -104 168.5 -154t212.5 -50q161 0 259.5 86t98.5 227q0 30 -9 57.5t-21.5 49t-38 46t-45 40t-56.5 38.5t-59 35.5t-66 36.5q-15 9 -23 13q-44 24 -67.5 37.5t-63.5 38.5t-62 44t-50.5 47.5t-43 55.5t-25 62t-10.5 73q0 147 107.5 239.5t279.5 92.5h3 l31 260h42l-32 -262q58 -5 113.5 -24.5t105 -51.5t88.5 -74l-36 -38q-61 67 -145 104.5t-173 37.5q-70 0 -131.5 -20t-106.5 -55.5t-71 -89t-26 -116.5q0 -33 9 -63.5t21.5 -53.5t38 -48t45 -41.5t56 -39t58 -34.5t63.5 -35q3 -1 4 -2q38 -20 58.5 -31.5t54.5 -31.5t54 -34 t47.5 -34.5t43.5 -38t35 -40.5t28.5 -45t16 -48.5t6.5 -54.5q0 -163 -112.5 -263t-294.5 -100h-17l-31 -251h-42l31 255q-105 12 -201.5 65.5t-158.5 146.5z" />
<glyph unicode="%" horiz-adv-x="1861" d="M151 1039q0 175 118 298t287 123q159 0 263 -100.5t104 -260.5q0 -52 -11 -100.5t-31 -90.5t-48 -79t-63.5 -65t-76 -48.5t-86.5 -31t-94 -10.5q-156 0 -259 102.5t-103 262.5zM196 1039q0 -141 89.5 -230.5t227.5 -89.5q75 0 142.5 29t116.5 79.5t77.5 121t28.5 150.5 q0 93 -41.5 165t-114.5 111.5t-166 39.5q-99 0 -182 -51t-130.5 -137t-47.5 -188zM563 2l742 1468l41 -17l-742 -1468zM976 358q0 86 32 163.5t85.5 134t129 90t158.5 33.5q159 0 263 -100.5t104 -260.5q0 -90 -32.5 -169.5t-87.5 -135t-130.5 -88t-159.5 -32.5 q-156 0 -259 102.5t-103 262.5zM1021 358q0 -93 41 -166.5t113.5 -113.5t162.5 -40q76 0 143.5 29t116 79.5t77 121t28.5 150.5q0 141 -90.5 228.5t-231.5 87.5q-99 0 -182 -51t-130.5 -137t-47.5 -188z" />
<glyph unicode="&#x26;" horiz-adv-x="1457" d="M83 341q0 169 89 299.5t224 182.5q-62 31 -103 93.5t-41 147.5q0 80 29 152.5t81 127t129 86.5t168 32q132 0 212.5 -68.5t94.5 -184.5l-44 -16q-11 103 -79 162.5t-186 59.5q-109 0 -191.5 -48.5t-124 -128t-41.5 -177.5q0 -86 50.5 -149t129.5 -63h955l-5 -46h-364 q-7 -134 -34.5 -252t-79 -221t-124 -177.5t-174.5 -117t-225 -42.5q-156 0 -251 94.5t-95 253.5zM129 344q0 -135 79.5 -220t222.5 -85q131 0 238 55t181.5 155t118 241t51.5 313h-508q-71 0 -140.5 -37.5t-123 -99.5t-86.5 -147.5t-33 -174.5z" />
<glyph unicode="'" horiz-adv-x="336" d="M171 1009l120 446h55l-132 -446h-43z" />
<glyph unicode="(" horiz-adv-x="464" d="M143 337q0 -302 94 -617l44 20q-93 313 -93 607q0 297 81.5 591.5t232.5 539.5l-35 21q-155 -248 -239.5 -552t-84.5 -610z" />
<glyph unicode=")" horiz-adv-x="465" d="M-3 -262l39 -16q155 282 233.5 563.5t78.5 585.5q0 358 -104 630l-41 -25q100 -271 100 -612q0 -303 -77.5 -576.5t-228.5 -549.5z" />
<glyph unicode="*" horiz-adv-x="785" d="M202 1008l242 134l-211 136l27 40l200 -148l29 285h43l-42 -285l235 150l17 -42l-244 -136l212 -134l-26 -40l-201 148l-28 -285h-43l41 285l-234 -151z" />
<glyph unicode="+" horiz-adv-x="1113" d="M138 543l5 45h403l56 450h45l-56 -450h400l-5 -45h-400l-55 -449h-45l55 449h-403z" />
<glyph unicode="," horiz-adv-x="327" d="M-15 -262l120 446h56l-136 -446h-40z" />
<glyph unicode="-" horiz-adv-x="779" d="M138 606l5 48h531l-5 -48h-531z" />
<glyph unicode="." horiz-adv-x="364" d="M81 38q0 13 6 24t16 17t23 6q19 0 32 -13t13 -32q0 -20 -13.5 -33.5t-33.5 -13.5q-19 0 -31 12.5t-12 32.5z" />
<glyph unicode="/" horiz-adv-x="681" d="M-136 -216l930 1744l36 -22l-929 -1741z" />
<glyph unicode="0" horiz-adv-x="1156" d="M138 520q0 108 15.5 214.5t45.5 207t77.5 186t108 149.5t141.5 100.5t173 36.5q81 0 147 -32t116 -95.5t77.5 -166t27.5 -236.5q0 -93 -10.5 -184t-32.5 -179.5t-54.5 -167t-78.5 -144.5t-102 -114t-128 -75t-153 -27q-78 0 -144 32t-117 95t-80 165.5t-29 234.5z M186 522q0 -98 17 -178.5t47 -136t71.5 -93.5t88.5 -55.5t100 -17.5q66 0 125 20t106 56t87.5 86t70.5 110.5t53.5 128.5t37.5 142t21.5 148.5t7.5 149.5q0 100 -16 181t-45 136.5t-69.5 93.5t-88.5 55.5t-103 17.5q-85 0 -159 -35t-129 -96.5t-98.5 -142.5t-70 -176 t-40.5 -194.5t-14 -199.5z" />
<glyph unicode="1" horiz-adv-x="634" d="M130 1131l358 276h47l-173 -1407h-47l164 1339l-324 -248z" />
<glyph unicode="2" horiz-adv-x="918" d="M6 0l6 46l507 483q70 67 121.5 126.5t96.5 129.5t68.5 145.5t23.5 155.5q0 76 -27.5 138t-86.5 102t-141 40q-118 0 -222.5 -68.5t-156.5 -185.5l-39 26q58 124 172 200t248 76q131 0 216 -92t85 -236q0 -68 -17 -135t-45.5 -124.5t-71.5 -117.5t-87.5 -109.5 t-100.5 -102.5l-468 -446l-1 -4h688l-6 -47h-762z" />
<glyph unicode="3" horiz-adv-x="943" d="M16 249l43 20q27 -105 110.5 -166.5t218.5 -61.5q178 0 287.5 111.5t109.5 291.5q0 122 -77 195.5t-225 73.5h-133l6 47h138q155 0 251 99.5t96 258.5q0 120 -74.5 184t-200.5 64q-215 0 -359 -182l-39 29q167 201 400 201q145 0 233 -76.5t88 -218.5q0 -141 -70 -241.5 t-189 -139.5l-1 -3q99 -32 151.5 -109t52.5 -187q0 -132 -57 -233.5t-158.5 -157t-230.5 -55.5q-149 0 -245 70t-126 186z" />
<glyph unicode="4" horiz-adv-x="1002" d="M21 268l6 48l791 1091h45l-134 -1092h197l-6 -47h-197l-33 -268h-47l33 268h-655zM85 315h597l121 991z" />
<glyph unicode="5" horiz-adv-x="1003" d="M57 250l43 18q34 -105 119 -166t203 -61q129 0 230.5 61.5t157 168.5t55.5 239q0 156 -84.5 236t-237.5 80q-73 0 -155 -22.5t-124 -63.5l-40 6l115 661h639l-6 -47h-594l-95 -554q51 36 124 52t138 16q172 0 270 -92.5t98 -269.5q0 -149 -62.5 -267.5t-175.5 -185 t-255 -66.5q-132 0 -231 71.5t-132 185.5z" />
<glyph unicode="6" horiz-adv-x="1069" d="M117 412q0 132 35 269.5t101.5 263.5t156 230.5t205 178t241.5 99.5l1 -48q-121 -25 -232.5 -99t-196.5 -178.5t-146.5 -230t-91.5 -257.5l3 -1q71 108 186.5 168.5t250.5 60.5q156 0 248.5 -99.5t92.5 -257.5q0 -108 -38.5 -204t-104 -164.5t-154.5 -108.5t-186 -40 q-172 0 -271.5 114t-99.5 304zM165 422q0 -173 85.5 -276.5t238.5 -103.5q86 0 165.5 36t138.5 98t94.5 150t35.5 187q0 140 -80 223.5t-220 83.5q-158 0 -278.5 -87.5t-176.5 -231.5q-3 -41 -3 -79z" />
<glyph unicode="7" horiz-adv-x="906" d="M167 2l731 1358h-726l6 47h778l-6 -49l-739 -1375z" />
<glyph unicode="8" horiz-adv-x="1068" d="M82 329q0 153 91 273t246 158v2q-28 7 -54 20t-51 34.5t-43.5 48.5t-30 65.5t-11.5 83.5q0 115 54 206.5t150 142.5t216 51q149 0 235.5 -80t86.5 -210q0 -125 -75.5 -229.5t-190.5 -131.5v-3q114 -24 179.5 -106t65.5 -203q0 -133 -64 -237.5t-176 -162t-252 -57.5 q-177 0 -276.5 91.5t-99.5 243.5zM130 335q0 -139 93 -216t245 -77q121 0 221 53.5t156.5 145.5t56.5 204q0 144 -90.5 217.5t-242.5 73.5q-96 0 -178.5 -31.5t-139.5 -85.5t-89 -127.5t-32 -156.5zM277 1023q0 -118 78 -178.5t213 -60.5q96 0 177 41.5t129.5 118 t48.5 171.5q0 123 -75 187t-209 64q-102 0 -185 -45.5t-130 -124t-47 -173.5z" />
<glyph unicode="9" horiz-adv-x="1076" d="M153 879q0 108 37.5 206t102.5 170.5t159.5 115.5t201.5 43q166 0 261.5 -110t95.5 -318q0 -109 -27 -224t-75 -221t-118 -204t-152.5 -175.5t-181.5 -133t-203 -78.5v48q123 28 238.5 106t205.5 186t154.5 239.5t92.5 267.5l-3 1q-80 -119 -198 -191t-268 -72 q-99 0 -173 44.5t-112 122t-38 177.5zM201 890q0 -139 70 -223t205 -84q93 0 178 32t165.5 106.5t140.5 185.5q3 41 3 81q-1 78 -16 140.5t-42 106.5t-65 73.5t-84.5 43.5t-101.5 14q-96 0 -180.5 -38.5t-144 -103t-94 -152t-34.5 -182.5z" />
<glyph unicode=":" horiz-adv-x="351" d="M74 38q0 20 13 33.5t32.5 13.5t32 -13t12.5 -32q0 -20 -13.5 -33.5t-33.5 -13.5q-19 0 -31 12.5t-12 32.5zM186 952q0 20 13 33.5t32 13.5t32 -13t13 -32q0 -20 -13.5 -33.5t-33.5 -13.5q-19 0 -31 12.5t-12 32.5z" />
<glyph unicode=";" horiz-adv-x="359" d="M4 -262l120 446h56l-136 -446h-40zM205 952q0 13 6 24t16 17t23 6q19 0 32 -13t13 -32q0 -20 -13.5 -33.5t-33.5 -13.5q-19 0 -31 12.5t-12 32.5z" />
<glyph unicode="&#x3c;" horiz-adv-x="1059" d="M116 564l4 31l846 432l-6 -51l-772 -397l675 -395l-6 -51z" />
<glyph unicode="=" horiz-adv-x="1068" d="M115 314l5 45h848l-5 -45h-848zM165 772l5 45h848l-5 -45h-848z" />
<glyph unicode="&#x3e;" horiz-adv-x="1052" d="M112 133l7 51l771 395l-674 397l6 51l740 -432l-4 -31z" />
<glyph unicode="?" horiz-adv-x="790" d="M166 1323l29 -33q56 85 139 130.5t176 45.5q113 0 180.5 -66t67.5 -190q0 -50 -10 -95.5t-26.5 -83t-44 -78t-56 -73t-69.5 -75.5q-11 -11 -37 -38.5t-37.5 -39t-33 -36t-32.5 -39.5t-26.5 -38t-23 -42t-15 -42.5t-10.5 -47.5l-15 -122h40l17 124q2 16 6.5 32t10 29.5 t15 29.5t17 27.5t20.5 27.5l23 28q9 11 25.5 28.5t26.5 27.5l29 30q20 19 30 30q53 55 87 96t68.5 95t51 112.5t16.5 123.5q0 141 -77 227.5t-211 86.5q-99 0 -191 -49t-160 -143zM275 38q0 20 13 33.5t32 13.5t32 -13t13 -32q0 -20 -13.5 -33.5t-33.5 -13.5q-19 0 -31 12.5 t-12 32.5z" />
<glyph unicode="@" horiz-adv-x="1840" d="M113 458q0 75 14.5 155.5t47.5 166.5t81.5 165t121.5 150t162 123.5t208.5 83t256.5 30.5q158 0 293.5 -51t232 -143.5t151.5 -228t55 -297.5q0 -37 -4.5 -76.5t-14.5 -84t-26.5 -87t-38.5 -83t-53.5 -74.5t-69 -59.5t-86.5 -40t-105 -14.5q-70 0 -108.5 45.5 t-38.5 138.5q0 23 4 71l5 38q-61 -121 -165.5 -195t-226.5 -74q-92 0 -159 38.5t-104 114t-37 181.5q0 79 18.5 152t56 136t90.5 110t127 74t161 27q89 0 171 -28.5t124 -78.5l11 101h45l-71 -581q-4 -37 -4 -72q0 -50 8 -82t25.5 -46t34 -18.5t43.5 -4.5q63 0 116 23t89 62 t63.5 86.5t42.5 102t22.5 103.5t7.5 94q0 153 -50.5 280t-141 213.5t-217 134t-276.5 47.5q-125 0 -236 -27.5t-195.5 -75t-154 -113t-117 -139.5t-80 -155.5t-47.5 -161t-15 -156.5q0 -147 50.5 -273.5t139 -215.5t212 -139t266.5 -50q275 0 467 109l29 -38 q-207 -118 -496 -118q-152 0 -284 53.5t-227 148.5t-149.5 230.5t-54.5 292.5zM557 453q0 -134 65 -212t196 -78q68 0 136.5 33.5t123.5 89t95 133t51 161.5l26 210q-44 54 -126 83.5t-158 29.5q-98 0 -177 -37t-129 -100t-76.5 -143t-26.5 -170z" />
<glyph unicode="A" d="M1 0l684 1455h55l336 -1455h-49l-99 432h-673l-203 -432h-51zM277 479h640l-209 912h-3z" />
<glyph unicode="B" horiz-adv-x="1175" d="M134 0l177 1455h413q45 0 85.5 -6.5t78.5 -20t68.5 -36t53 -52.5t35 -72.5t12.5 -93.5t-10.5 -102t-33 -98.5t-54 -88t-76 -72t-97.5 -48.5l-1 -4q115 -22 185 -94.5t70 -201.5q0 -209 -148 -337t-372 -128h-386zM186 47h338q95 0 180 28.5t149 80.5t101.5 129t37.5 169 q0 143 -88.5 212t-269.5 69h-363zM276 782h362q66 0 124 19.5t103 55.5t77.5 84.5t49.5 107.5t17 124q0 56 -16 98.5t-51 73.5t-92.5 47t-136.5 16h-360z" />
<glyph unicode="C" horiz-adv-x="1370" d="M154 608q0 132 34 259t99.5 234t153 188t201 127t237.5 46q301 0 496 -313l-42 -26q-93 156 -201 223.5t-249 67.5q-118 0 -225.5 -44t-189 -121t-142 -178t-92 -219.5t-31.5 -241.5q0 -264 134.5 -416.5t365.5 -152.5q124 0 251 56.5t225 164.5l37 -29 q-99 -109 -236 -174.5t-279 -65.5q-250 0 -398.5 166.5t-148.5 448.5z" />
<glyph unicode="D" horiz-adv-x="1350" d="M134 0l177 1455h363q277 0 428.5 -157t151.5 -434q0 -186 -57 -346.5t-158.5 -274.5t-247 -178.5t-316.5 -64.5h-341zM187 47h287q160 0 297 61.5t232.5 169.5t149 258.5t53.5 324.5q0 259 -138 403t-396 144h-318z" />
<glyph unicode="E" horiz-adv-x="1086" d="M134 0l177 1455h760l-5 -47h-713l-81 -656h599l-5 -47h-599l-81 -658h752l-5 -47h-799z" />
<glyph unicode="F" horiz-adv-x="1048" d="M134 0l177 1455h795l-5 -47h-748l-81 -661h646l-5 -47h-646l-86 -700h-47z" />
<glyph unicode="G" horiz-adv-x="1443" d="M154 605q0 95 17.5 188.5t51.5 177.5t81.5 159t110 135.5t134.5 104.5t158 68t177 24q273 0 461 -222l-34 -36q-176 210 -425 210q-119 0 -227 -43.5t-190 -120t-142.5 -178t-92 -221.5t-31.5 -246q0 -262 135.5 -413t380.5 -151q129 0 256 43t219 123l54 444h-491l6 47 h537l-62 -513q-103 -95 -242 -143.5t-280 -48.5q-175 0 -302.5 75t-193.5 212.5t-66 324.5z" />
<glyph unicode="H" horiz-adv-x="1335" d="M134 0l177 1455h47l-91 -746h853l91 746h47l-177 -1455h-47l81 662h-853l-81 -662h-47z" />
<glyph unicode="I" horiz-adv-x="463" d="M148 0l177 1455h47l-177 -1455h-47z" />
<glyph unicode="J" horiz-adv-x="890" d="M19 187l31 38q52 -87 127.5 -135.5t150.5 -48.5q293 0 340 387l125 1027h47l-126 -1030q-27 -222 -123.5 -327t-264.5 -105q-82 0 -167 51t-140 143z" />
<glyph unicode="K" horiz-adv-x="1175" d="M134 0l177 1455h47l-119 -980h3l883 980h60l-620 -689l452 -766h-58l-427 726h-4l-300 -333l-47 -393h-47z" />
<glyph unicode="L" horiz-adv-x="1001" d="M134 0l177 1455h47l-172 -1408h722l-5 -47h-769z" />
<glyph unicode="M" horiz-adv-x="1630" d="M134 0l177 1455h46l442 -1073h5l703 1073h46l-177 -1455h-47l164 1347h-3l-676 -1029h-39l-427 1034h-2l-165 -1352h-47z" />
<glyph unicode="N" horiz-adv-x="1401" d="M134 0l177 1455h42l752 -1363h3l167 1363h47l-177 -1455h-45l-750 1362h-2l-167 -1362h-47z" />
<glyph unicode="O" horiz-adv-x="1550" d="M153 597q0 135 33.5 264t98.5 237t153.5 190t204.5 128t245 46q127 0 230.5 -39.5t178 -115t115.5 -190t41 -258.5q0 -139 -33 -268.5t-97 -237.5t-152.5 -189t-205.5 -126t-249 -45q-126 0 -230.5 41t-178 117.5t-114 190.5t-40.5 255zM201 597q0 -262 138.5 -409 t377.5 -147q124 0 233.5 42.5t191.5 118.5t142 177.5t90.5 223.5t30.5 254q0 266 -138 411.5t-380 145.5q-101 0 -194 -31t-167.5 -86t-136 -131.5t-102.5 -166.5t-63.5 -193t-22.5 -209z" />
<glyph unicode="P" horiz-adv-x="1116" d="M134 0l177 1455h430q174 0 265.5 -90.5t91.5 -248.5q0 -145 -57 -255.5t-167 -173.5t-258 -63h-359l-76 -624h-47zM263 671h356q134 0 232.5 58t148.5 158t50 230q0 77 -23.5 134t-67 91t-98.5 50t-124 16h-384z" />
<glyph unicode="Q" horiz-adv-x="1569" d="M153 597q0 135 33.5 264t98.5 237t153.5 190t204.5 128t245 46q127 0 230.5 -39.5t178 -115t115.5 -190t41 -258.5q0 -189 -60.5 -357t-171.5 -289l163 -184l-36 -36l-163 184q-195 -184 -469 -184q-126 0 -230.5 41t-178 117.5t-114 190.5t-40.5 255zM201 597 q0 -262 138.5 -409t377.5 -147q254 0 437 172l-170 192l35 37l170 -193q103 114 159 271.5t56 336.5q0 177 -63 303t-178.5 190t-275.5 64q-101 0 -194 -31t-167.5 -86t-136 -131.5t-102.5 -166.5t-63.5 -193t-22.5 -209z" />
<glyph unicode="R" horiz-adv-x="1179" d="M134 0l177 1455h430q116 0 197 -42t120.5 -117.5t39.5 -179.5q0 -206 -114.5 -339.5t-314.5 -150.5v-5l314 -621h-56l-317 624h-353l-76 -624h-47zM263 671h356q134 0 232.5 58t148.5 158t50 230q0 77 -23.5 134t-67 91t-99 50t-123.5 16h-384z" />
<glyph unicode="S" horiz-adv-x="1075" d="M60 224l39 35q73 -111 181.5 -164.5t229.5 -53.5q171 0 279 92t108 247q0 26 -6 50t-15 44t-26.5 41.5t-32 37.5t-41.5 36t-45 32t-52 32t-53 30.5t-56 30.5q-11 6 -16 9q-156 85 -219 139q-127 106 -127 244q0 157 115 256.5t300 99.5q105 0 205 -43t171 -119l-37 -37 q-44 48 -100 82.5t-117.5 51.5t-124.5 17q-102 0 -184 -36.5t-131 -106.5t-49 -161q0 -28 6 -54t14.5 -47.5t26 -44t31.5 -38.5t40 -35.5t43 -32t49 -31.5t50 -29l52 -28q5 -3 7 -4q41 -22 62.5 -34t59.5 -34t58.5 -36.5t50.5 -37t47 -41t37 -43t30.5 -48t17.5 -52t7 -58.5 q0 -175 -121 -282t-316 -107q-81 0 -161 23.5t-157.5 77t-129.5 130.5z" />
<glyph unicode="T" horiz-adv-x="1016" d="M167 1408l5 47h907l-5 -47h-433l-172 -1408h-47l172 1408h-427z" />
<glyph unicode="U" horiz-adv-x="1309" d="M177 456q0 56 8 125l107 874h47l-107 -876q-10 -66 -10 -121q0 -96 21.5 -171.5t65.5 -131t114.5 -85t163.5 -29.5q215 0 347.5 132.5t164.5 397.5l107 884h47l-108 -886q-36 -287 -179 -431.5t-380 -144.5q-105 0 -183.5 33t-127.5 94.5t-73.5 145.5t-24.5 190z" />
<glyph unicode="V" horiz-adv-x="1181" d="M183 1455h49l307 -1374h4l642 1374h50l-680 -1455h-46z" />
<glyph unicode="W" horiz-adv-x="1849" d="M191 1455h49l232 -1373h4l535 1373h59l202 -1374h4l568 1374h50l-602 -1455h-55l-202 1375h-4l-537 -1375h-55z" />
<glyph unicode="X" horiz-adv-x="1138" d="M14 0l556 723l-381 732h52l358 -685h4l523 685h59l-560 -733l379 -722h-53l-356 676h-3l-521 -676h-57z" />
<glyph unicode="Y" horiz-adv-x="1036" d="M157 1455h52l332 -736h4l515 736h56l-554 -793l-81 -662h-47l81 662z" />
<glyph unicode="Z" horiz-adv-x="1123" d="M61 0l5 44l965 1361v3h-749l5 47h806l-5 -48l-962 -1356v-4h804l-5 -47h-864z" />
<glyph unicode="[" horiz-adv-x="517" d="M81 -287l217 1769h262l-5 -42h-220l-207 -1686h220l-5 -41h-262z" />
<glyph unicode="\" horiz-adv-x="681" d="M99 1506l40 22l504 -1744l-40 -19z" />
<glyph unicode="]" horiz-adv-x="517" d="M-18 -287l5 41h220l207 1686h-220l5 42h262l-217 -1769h-262z" />
<glyph unicode="^" horiz-adv-x="883" d="M211 1023l322 432h51l216 -432h-56l-190 386l-286 -386h-57z" />
<glyph unicode="_" horiz-adv-x="936" d="M-88 -102l5 45h966l-5 -45h-966z" />
<glyph unicode="`" horiz-adv-x="969" d="M419 1398h61l193 -276h-57z" />
<glyph unicode="a" horiz-adv-x="1087" d="M98 387q0 125 37 236.5t103 195t163.5 132t212.5 48.5q61 0 121 -14t112.5 -42.5t85.5 -67.5h3l14 117h45l-121 -992h-45l39 319h-3q-33 -70 -75 -127.5t-95 -102.5t-118.5 -70.5t-137.5 -25.5q-105 0 -183.5 52.5t-118 141t-39.5 200.5zM144 385q0 -154 77.5 -250 t218.5 -96q73 0 140.5 31t120.5 85t95.5 124t68.5 149.5t36 161.5l27 222q-27 42 -69.5 72t-89.5 44t-85 19.5t-73 5.5q-104 0 -192 -45.5t-148 -123t-93.5 -181t-33.5 -218.5z" />
<glyph unicode="b" horiz-adv-x="1117" d="M125 91l173 1417h45l-102 -833h4q32 69 74.5 126.5t95.5 102.5t119.5 70t138.5 25q113 0 192 -53.5t116.5 -145.5t37.5 -215q0 -94 -23 -182t-69 -162t-109 -129.5t-148 -87t-182 -31.5q-222 0 -363 98zM173 113q118 -74 318 -74q109 0 201 45t153 121t94.5 175t33.5 207 q0 66 -11 121.5t-35 101t-59 77.5t-85 49t-111 17q-74 0 -142.5 -31t-121.5 -85t-95.5 -124t-68.5 -149.5t-36 -161.5z" />
<glyph unicode="c" horiz-adv-x="973" d="M96 396q0 122 36.5 231.5t102.5 192t165 131t217 48.5q60 0 116.5 -15.5t110.5 -52t90 -90.5l-39 -30q-47 72 -120.5 107t-158.5 35q-107 0 -197.5 -45t-150.5 -121.5t-93 -177.5t-33 -213q0 -156 90.5 -256.5t227.5 -100.5q116 0 202.5 38t152.5 119l35 -27 q-29 -36 -61.5 -64.5t-69.5 -49.5t-78 -35t-87.5 -20.5t-99.5 -6.5q-68 0 -131.5 27t-114.5 76.5t-81.5 127.5t-30.5 172z" />
<glyph unicode="d" horiz-adv-x="1113" d="M99 387q0 125 37 236.5t103 195t163.5 132t212.5 48.5q95 0 183.5 -33.5t137.5 -93.5h3l78 636h45l-184 -1508h-45l39 321h-2q-33 -70 -75.5 -128t-95.5 -103.5t-119.5 -71t-139.5 -25.5q-105 0 -183.5 52.5t-118 141t-39.5 200.5zM145 385q0 -154 77.5 -250t218.5 -96 q74 0 142 31t121.5 85t96 124t68.5 149.5t36 161.5l27 218q-27 43 -70 73.5t-90 45t-86 20.5t-74 6q-104 0 -192 -45.5t-148 -123t-93.5 -181t-33.5 -218.5z" />
<glyph unicode="e" horiz-adv-x="941" d="M96 403q0 121 38.5 230.5t105 190t162.5 128t205 47.5q30 0 64 -5.5t75 -21t73 -39.5t53.5 -65.5t21.5 -93.5q0 -55 -26 -103t-69 -84.5t-104.5 -67.5t-127.5 -52.5t-142 -38t-144.5 -26.5t-138.5 -16q5 -162 96 -254.5t240 -92.5q180 0 315 157l35 -27 q-144 -176 -351 -176q-112 0 -198 49t-134.5 142.5t-48.5 218.5zM143 432q75 6 150 17.5t157 30t151.5 46t126 62t88.5 82t32 101.5q0 43 -18 77t-44 53t-60.5 31.5t-63.5 16.5t-56 4q-128 0 -232.5 -70.5t-164.5 -189t-66 -261.5z" />
<glyph unicode="f" horiz-adv-x="580" d="M135 947l5 45h126l28 231q18 152 81.5 222t169.5 70q99 0 173 -48l-14 -48q-63 50 -163 50q-81 0 -134 -59.5t-70 -199.5l-26 -218h314l-5 -45h-314l-116 -947h-45l116 947h-126z" />
<glyph unicode="g" horiz-adv-x="1090" d="M41 -335l14 49q144 -80 309 -80q77 0 137.5 12t119.5 46t101.5 89.5t74.5 146t47 212.5l25 207h-3q-25 -54 -56.5 -101t-72.5 -88.5t-86.5 -71t-100.5 -46.5t-113 -17q-105 0 -183.5 52.5t-118 141t-39.5 200.5q0 114 37 219t103 186t164 129t212 48q94 0 181.5 -33 t137.5 -91h3l14 117h45l-105 -857q-16 -131 -51 -228.5t-81 -157.5t-110.5 -97t-132 -50.5t-152.5 -13.5q-170 0 -320 77zM142 415q0 -154 77.5 -250t218.5 -96q60 0 116.5 21t103.5 57.5t87.5 85.5t70.5 105.5t51 116.5t30 120l29 237q-28 42 -70.5 72t-89 44t-84.5 19.5 t-73 5.5q-103 0 -192 -45t-148.5 -120t-93 -172t-33.5 -201z" />
<glyph unicode="h" horiz-adv-x="1089" d="M114 0l184 1508h45l-103 -844h3q48 99 122.5 175t162 118t174.5 42q254 0 254 -291q0 -52 -8 -112l-78 -596h-45l78 595q8 72 8 126.5t-13 94.5t-30.5 66t-45 42t-56.5 22.5t-65 6.5q-79 0 -162 -42t-150.5 -111.5t-116 -166t-60.5 -199.5l-53 -434h-45z" />
<glyph unicode="i" horiz-adv-x="419" d="M126 0l121 992h45l-121 -992h-45zM264 1295q0 10 3.5 18.5t9.5 15t14 10t18 3.5q13 0 23 -6t16 -16t6 -23q0 -20 -13.5 -33.5t-33.5 -13.5q-5 0 -10 1t-9.5 3.5t-8 5.5t-6.5 6.5t-5 8t-3 9.5t-1 11z" />
<glyph unicode="j" horiz-adv-x="330" d="M-237 -381l9 48q21 -15 40.5 -22.5t32 -9t32.5 -1.5q34 0 59 8.5t50 32t42.5 71.5t26.5 120l137 1126h45l-138 -1128q-17 -141 -68.5 -208.5t-156.5 -67.5q-61 0 -111 31zM211 1295q0 20 13 33.5t32 13.5t32 -13t13 -32q0 -13 -6 -24t-17 -17t-24 -6q-19 0 -31 12.5 t-12 32.5z" />
<glyph unicode="k" horiz-adv-x="945" d="M114 0l184 1508h45l-150 -1229h5q225 120 411.5 321t248.5 392h48q-40 -131 -131 -260.5t-215 -245.5l107 -241q38 -87 63.5 -130.5t44.5 -58.5t46 -20l-13 -43q-14 0 -31 5q-18 6 -34.5 20t-28.5 28.5t-27.5 44t-24.5 49.5t-27 61q-7 16 -11 25l-99 226h-3 q-165 -146 -336 -231l-27 -221h-45z" />
<glyph unicode="l" horiz-adv-x="403" d="M125 0l184 1508h45l-184 -1508h-45z" />
<glyph unicode="m" horiz-adv-x="1666" d="M114 0l121 992h45l-38 -314h3q68 144 179.5 232.5t225.5 88.5q244 0 244 -287q0 -16 -1 -32h4q67 144 176 231.5t223 87.5q247 0 247 -289q0 -52 -8 -114l-78 -596h-45l78 595q8 72 8 126.5t-12.5 94.5t-30 66t-44 42t-54.5 22.5t-62 6.5q-93 0 -185 -68.5t-158 -186 t-86 -253.5l-57 -445h-45l77 595q8 72 8 126.5t-12 94.5t-28.5 66t-42.5 42t-54 22.5t-63 6.5q-69 0 -141.5 -41t-132.5 -109t-104 -163t-58 -196l-54 -444h-45z" />
<glyph unicode="n" horiz-adv-x="1089" d="M114 0l121 992h45l-40 -327h3q74 149 201 241.5t258 92.5q254 0 254 -291q0 -52 -8 -112l-78 -596h-45l78 595q8 72 8 126.5t-13 94.5t-30.5 66t-45 42t-56.5 22.5t-65 6.5q-77 0 -157.5 -39.5t-147 -105t-116 -156.5t-65.5 -189l-56 -463h-45z" />
<glyph unicode="o" horiz-adv-x="1096" d="M95 405q0 119 36.5 226.5t101.5 189t163 130t214 48.5q179 0 285 -105.5t106 -297.5q0 -126 -36 -236t-100.5 -191.5t-161 -128.5t-211.5 -47q-181 0 -289 109t-108 303zM141 405q0 -172 94.5 -269t256.5 -97q134 0 239 69t164.5 196.5t59.5 291.5q0 171 -91 264t-254 93 q-134 0 -241.5 -71.5t-167.5 -196.5t-60 -280z" />
<glyph unicode="p" horiz-adv-x="1114" d="M64 -405l171 1397h45l-39 -319h3q32 70 75 127.5t96 102.5t119.5 70.5t138.5 25.5q108 0 187.5 -52.5t119 -141t39.5 -200.5q0 -125 -37 -236.5t-103.5 -195t-165.5 -132t-215 -48.5q-95 0 -184.5 34t-137.5 94h-2l-65 -526h-45zM181 184q27 -43 70 -73.5t90 -45 t86 -20.5t74 -6q105 0 194.5 45.5t150 123t94 181t33.5 218.5q0 100 -33.5 177.5t-102.5 123t-165 45.5q-74 0 -142 -31t-121.5 -85t-96 -124t-68.5 -149.5t-36 -161.5z" />
<glyph unicode="q" horiz-adv-x="1096" d="M99 387q0 125 37 236.5t103 195t163.5 132t212.5 48.5q46 0 91.5 -8t87.5 -23.5t78.5 -39.5t61.5 -53h3l14 117h45l-170 -1397h-45l88 724h-3q-33 -70 -75 -127.5t-95 -102.5t-118.5 -70.5t-137.5 -25.5q-105 0 -183.5 52.5t-118 141t-39.5 200.5zM145 385 q0 -154 77.5 -250t218.5 -96q73 0 140.5 31t120.5 85t95.5 124t68.5 149.5t36 161.5l27 222q-27 42 -69.5 72t-89.5 44t-85 19.5t-73 5.5q-104 0 -192 -45.5t-148 -123t-93.5 -181t-33.5 -218.5z" />
<glyph unicode="r" horiz-adv-x="558" d="M114 0l121 992h45l-37 -301h4q55 120 145.5 199t208.5 109l-6 -60q-148 -34 -252 -168t-130 -324l-54 -447h-45z" />
<glyph unicode="s" horiz-adv-x="801" d="M28 132l31 36q62 -66 133.5 -97.5t160.5 -31.5q125 0 203.5 59t78.5 161q0 27 -7.5 51t-18 41.5t-32 35.5t-37.5 29.5t-46.5 26.5t-48.5 23l-52 22q-15 6 -23 9q-42 18 -70.5 32t-62.5 36.5t-54 46.5t-33.5 59t-13.5 76q0 46 16 87t44 70.5t66 51t81.5 32.5t90.5 11 q81 0 146 -26.5t124 -91.5l-31 -34q-55 60 -112 83t-135 23q-66 0 -121 -24.5t-89 -73.5t-34 -113q0 -31 11.5 -57.5t29 -46t47 -39t56 -32.5t64.5 -29q9 -4 28 -12q37 -15 56 -23.5t52 -25t50.5 -29.5t41 -33.5t35 -41.5t20 -49.5t8.5 -60.5q0 -53 -18 -97.5t-48.5 -75.5 t-72.5 -53.5t-89.5 -33t-99.5 -10.5q-101 0 -180 34t-145 105z" />
<glyph unicode="t" horiz-adv-x="673" d="M118 947l5 45h123l44 358l45 6l-44 -364h355l-5 -45h-355l-84 -685q-5 -37 -6 -69q0 -9 1 -19q2 -41 12 -71t37.5 -47t71.5 -17q104 0 200 76l7 -52q-96 -70 -211 -70q-71 0 -110.5 34t-47.5 94q-4 28 -4 61q0 37 5 81l84 684h-123z" />
<glyph unicode="u" horiz-adv-x="1050" d="M137 396l74 596h45l-74 -595q-7 -67 -6 -119v-8q0 -54 14 -94t32.5 -66t48 -42t61 -22.5t71.5 -6.5q71 0 144.5 39t134 104t105.5 155.5t61 187.5l57 467h45l-121 -992h-45l38 314h-3q-69 -145 -183 -233t-234 -88q-154 1 -222 97q-50 70 -50 199q0 49 7 107z" />
<glyph unicode="v" horiz-adv-x="962" d="M134 220q8 -80 40 -130.5t81.5 -73.5t119.5 -23q59 0 124 25.5t132 82.5t122 138.5t94.5 204.5t49.5 269q2 34 3 70q0 96 -18 209h-48q19 -115 19 -221q0 -41 -3 -80q-9 -139 -55.5 -263t-113.5 -208t-147.5 -132.5t-158.5 -48.5q-35 0 -63 6.5t-54.5 23t-43 44 t-28.5 69.5q-12 40 -11 95q0 58 8 140l72 575h-45l-71 -576q-8 -72 -8 -130q0 -35 3 -66z" />
<glyph unicode="w" horiz-adv-x="1382" d="M138 406l72 586h45l-73 -585q-8 -75 -8 -131t12 -97t28 -68t40.5 -43t50 -22.5t56.5 -6.5q70 0 136 54.5t111.5 146.5t61.5 201v3l67 548h45l-74 -595q-8 -57 -8 -104q0 -23 2 -44q6 -62 19.5 -102.5t39 -64.5t54 -33.5t64.5 -9.5q54 0 108 33.5t101.5 95t86 142.5 t63.5 182.5t32 208.5q2 53 2 94q0 35 -2 61q-4 55 -16 136h48q18 -112 18 -205q0 -48 -5 -92q-12 -141 -46 -260t-79 -199t-100 -136t-109 -81.5t-106 -25.5q-201 0 -217 245h-4q-50 -117 -133 -181t-162 -64q-229 0 -229 293q0 55 8 120z" />
<glyph unicode="x" horiz-adv-x="882" d="M11 0l403 496l-286 496h56l260 -454h4l369 454h59l-405 -495l284 -497h-56l-260 453h-3l-368 -453h-57z" />
<glyph unicode="y" horiz-adv-x="1042" d="M52 -335l14 47q140 -78 290 -78q65 0 118.5 12t108 46t95 89t72 146t46.5 213l21 175h-3q-70 -145 -184 -233.5t-234 -88.5q-154 0 -222 97q-50 69 -50 199q0 49 7 107l74 596h45l-74 -595q-7 -67 -7 -119q0 -4 1 -8q0 -54 14 -94t32.5 -66t48 -42t61 -22.5t71.5 -6.5 q74 0 150 42t137.5 111t105.5 164.5t56 196.5l54 439h45l-105 -857q-12 -94 -33 -171t-48 -133.5t-62.5 -99t-74 -69.5t-84 -44t-90 -23.5t-95.5 -6.5q-151 0 -301 77z" />
<glyph unicode="z" horiz-adv-x="834" d="M4 0l5 46l736 897l1 4h-604l5 45h665l-5 -42l-737 -901l-1 -4q159 0 224.5 -0.5t162.5 -4.5t153 -13t103 -25l-13 -45q-98 30 -229.5 36.5t-465.5 6.5z" />
<glyph unicode="{" horiz-adv-x="561" d="M87 562l4 44q40 5 68.5 16t44 23.5t25.5 33.5t13 37t6 43l67 539q9 79 61.5 131.5t134.5 52.5h54l-5 -42h-52q-57 0 -100.5 -39.5t-52.5 -107.5l-64 -524q-11 -88 -37.5 -129.5t-97.5 -54.5l-1 -2q66 -13 84 -56t7 -130l-57 -464q-12 -97 15.5 -138t94.5 -41h54l-5 -41 h-52q-76 0 -120 49t-33 135l63 515q5 26 3.5 51t-10 45t-36.5 34.5t-76 19.5z" />
<glyph unicode="|" horiz-adv-x="517" d="M146 -235l214 1744h45l-214 -1744h-45z" />
<glyph unicode="}" horiz-adv-x="563" d="M21 -287l5 41h52q69 0 107.5 42t50.5 139l57 464q5 43 12.5 71.5t22.5 53t40 38.5t62 21v2q-67 13 -84.5 56t-6.5 130l64 524q9 68 -24.5 106.5t-91.5 38.5h-54l5 42h54q82 0 122.5 -53.5t31.5 -132.5l-67 -539q-6 -27 -4 -52t10.5 -44.5t36.5 -34t76 -20.5l-4 -44 q-33 -3 -58.5 -10.5t-41.5 -20t-26.5 -24.5t-16.5 -30.5t-9 -32t-5 -34.5l-63 -515q-11 -86 -66.5 -134t-132.5 -48h-54z" />
<glyph unicode="~" horiz-adv-x="1040" d="M147 502q79 157 209 157q33 0 67.5 -10.5t54 -20.5t51.5 -30q10 -6 28 -17.5t27.5 -17t24.5 -14t26 -13.5t24 -9.5t26 -6.5t27 -2q47 0 89.5 32t69.5 95l37 -17q-19 -40 -43.5 -70.5t-51 -48.5t-53.5 -27t-53 -9q-19 0 -38.5 4t-33.5 9t-34 15.5t-28 15.5t-29 18.5 t-24 15.5q-99 62 -165 62q-106 0 -173 -126z" />
<glyph unicode="&#xa1;" horiz-adv-x="396" d="M50 -516l148 1139h36l-132 -1139h-52zM201 952q0 20 13.5 33.5t33.5 13.5q19 0 31 -12.5t12 -32.5t-13 -33.5t-32.5 -13.5t-32 12.5t-12.5 32.5z" />
<glyph unicode="&#xa2;" horiz-adv-x="985" d="M135 508q0 120 35 227.5t99 190t159.5 132t209.5 53.5l32 256h39l-32 -257q88 -4 167 -43t129 -114l-39 -30q-47 72 -120.5 107t-158.5 35q-62 0 -119 -15t-104 -43t-87 -67t-70 -87.5t-51.5 -103.5t-32 -116t-10.5 -125q0 -156 90.5 -256.5t227.5 -100.5q116 0 202.5 38 t152.5 119l35 -27q-64 -80 -145.5 -122.5t-189.5 -51.5l-29 -237h-39l29 235h-22q-68 0 -131.5 27t-114.5 76.5t-81.5 127.5t-30.5 172z" />
<glyph unicode="&#xa3;" horiz-adv-x="1032" d="M37 0l6 47h172l88 721h-132l6 47h132l17 137q13 102 41 182t65 131t85 84.5t97.5 47.5t104.5 14q106 0 179.5 -53t114.5 -150l-38 -29q-71 184 -256 184q-138 0 -229.5 -102t-117.5 -317l-16 -129h330l-6 -47h-330l-88 -721h666l-6 -47h-885z" />
<glyph unicode="&#xa4;" horiz-adv-x="917" d="M44 383l155 150q-56 79 -56 190q0 93 31.5 175t88.5 144l-119 152l32 31l119 -153q104 91 241 91q134 0 218 -87l154 151l26 -31l-153 -152q60 -84 60 -206q0 -58 -15 -114.5t-43.5 -105.5t-67.5 -88l119 -150l-32 -31l-119 152q-105 -82 -238 -82q-137 0 -220 83 l-155 -151zM191 723q0 -118 68.5 -187t185.5 -69q96 0 176 49t126 134.5t46 187.5q0 126 -70.5 201.5t-186.5 75.5q-95 0 -174.5 -52t-125 -142t-45.5 -198z" />
<glyph unicode="&#xa5;" horiz-adv-x="965" d="M119 531l6 46h348l5 37l-64 158h-265l6 46h240l-239 589h54l297 -738l483 738h52l-384 -589h235l-6 -46h-259l-103 -158l-5 -37h343l-6 -46h-342l-66 -531h-47l66 531h-349z" />
<glyph unicode="&#xa6;" horiz-adv-x="518" d="M146 -234l90 726h46l-90 -726h-46zM272 791l88 718h46l-88 -718h-46z" />
<glyph unicode="&#xa7;" horiz-adv-x="958" d="M40 -133l35 34q40 -81 123 -122.5t184 -41.5q147 0 236 72t89 204q0 28 -7.5 53.5t-17.5 44.5t-31.5 39t-37.5 32.5t-47.5 29.5t-50.5 26.5t-57 26.5q-11 5 -16 8q-11 5 -31 15q-34 15 -50.5 23t-46 23t-45 25t-38.5 25.5t-35 28.5t-27 31.5t-22 36.5t-12 40.5t-5 47.5 q0 101 62 180.5t164 115.5q-123 80 -123 209q0 71 27.5 132t73.5 102.5t107.5 65.5t128.5 24q90 0 173 -34t134 -90l-36 -34q-45 53 -119 82t-151 29q-76 0 -141.5 -32t-107.5 -95t-42 -145q0 -23 5 -44.5t12 -38t21 -33.5t25 -28.5t33 -25.5t35 -22t40.5 -21t41 -19 t43.5 -19q2 -1 7 -3q35 -14 52.5 -21.5t48.5 -21.5t47.5 -23.5t41.5 -25t38 -29t29.5 -32t24.5 -37.5t13.5 -42.5t5.5 -49.5q0 -111 -60.5 -185t-168.5 -122q67 -41 103 -92t36 -125q0 -154 -101.5 -242t-268.5 -88q-112 0 -202 44.5t-142 133.5zM177 574q0 -26 7 -49 t16.5 -40.5t30 -36t36.5 -31t48 -30t51.5 -27t60.5 -29.5q19 -9 29 -14q12 -6 35 -16.5t41 -19.5t33 -17q52 19 91.5 42t72.5 55.5t50.5 76.5t17.5 98q0 27 -7.5 50.5t-17.5 41.5t-31 36.5t-37 30t-48 28t-51 25t-58 25.5q-5 2 -8 3.5t-8 3.5t-9 4q-89 38 -112 50 q-69 -15 -121.5 -52t-82 -91t-29.5 -117z" />
<glyph unicode="&#xa8;" horiz-adv-x="943" d="M386 1269q0 20 13 33.5t32 13.5t32 -13t13 -32q0 -20 -13.5 -33.5t-33.5 -13.5q-19 0 -31 12.5t-12 32.5zM657 1269q0 20 13 33.5t32 13.5t32 -12.5t13 -32.5t-13.5 -33.5t-33.5 -13.5q-19 0 -31 12.5t-12 32.5z" />
<glyph unicode="&#xa9;" horiz-adv-x="1364" d="M97 651q0 118 46 226.5t124 188.5t187 127.5t230 47.5q120 0 228.5 -47.5t185.5 -127t122.5 -188t45.5 -227.5q0 -118 -45.5 -226t-123.5 -188t-187 -127.5t-229 -47.5t-228.5 47.5t-186.5 127t-123.5 188t-45.5 226.5zM142 651q0 -109 42 -209.5t113.5 -174t172 -117 t211.5 -43.5t211.5 44t172 117.5t114 173.5t42.5 209t-42 209.5t-113.5 174t-171 117.5t-210.5 44q-112 0 -212.5 -44t-172.5 -117.5t-114.5 -174t-42.5 -209.5zM372 646q0 95 36.5 170.5t112 121.5t178.5 46q153 0 255 -126l-36 -29q-88 109 -219 109q-135 0 -208 -81 t-73 -211q0 -136 79 -210.5t202 -74.5q135 0 219 107l36 -29q-99 -124 -255 -124q-68 0 -127 22t-104 63t-70.5 104.5t-25.5 141.5z" />
<glyph unicode="&#xaa;" horiz-adv-x="740" d="M172 1053q0 71 21 135t60 114t99.5 79.5t134.5 29.5q56 0 110.5 -18t87.5 -49h4l7 63h46l-74 -592h-43l19 165h-3q-29 -53 -68.5 -90.5t-88 -57.5t-102.5 -20q-64 0 -111 27.5t-73 82t-26 131.5zM218 1055q0 -92 44 -144.5t126 -52.5q96 0 176.5 80.5t97.5 194.5l19 155 q-17 33 -70 55.5t-116 22.5q-124 0 -200.5 -87.5t-76.5 -223.5z" />
<glyph unicode="&#xab;" horiz-adv-x="754" d="M80 499l300 469h46l-296 -469l181 -473h-45zM351 499l300 469h46l-296 -469l181 -473h-45z" />
<glyph unicode="&#xac;" horiz-adv-x="1095" d="M171 696l5 45h803l-44 -359h-45l39 314h-758z" />
<glyph unicode="&#xad;" horiz-adv-x="779" d="M138 606l5 48h531l-5 -48h-531z" />
<glyph unicode="&#xae;" horiz-adv-x="1364" d="M97 651q0 118 46 226.5t124 188.5t187 127.5t230 47.5q120 0 228.5 -47.5t185.5 -127t122.5 -188t45.5 -227.5q0 -118 -45.5 -226t-123.5 -188t-187 -127.5t-229 -47.5t-228.5 47.5t-186.5 127t-123.5 188t-45.5 226.5zM142 651q0 -109 42 -209.5t113.5 -174t172 -117 t211.5 -43.5t211.5 44t172 117.5t114 173.5t42.5 209t-42 209.5t-113.5 174t-171 117.5t-210.5 44q-112 0 -212.5 -44t-172.5 -117.5t-114.5 -174t-42.5 -209.5zM491 324v663h216q103 0 154 -51.5t51 -135.5q0 -59 -22.5 -100t-62 -62.5t-94.5 -27.5l207 -286h-56l-204 284 h-144v-284h-45zM536 652h159q49 0 84 12.5t53.5 34t26.5 46.5t8 55q0 44 -19 76.5t-54 49t-82 16.5h-176v-290z" />
<glyph unicode="&#xaf;" horiz-adv-x="906" d="M298 1242l7 46h491l-7 -46h-491z" />
<glyph unicode="&#xb0;" horiz-adv-x="759" d="M210 1145q0 86 37 158.5t103 115.5t146 43q63 0 113.5 -28t79.5 -81.5t29 -124.5q0 -59 -21.5 -114t-58.5 -96.5t-91.5 -66.5t-116.5 -25q-102 0 -161 60t-59 159zM256 1145q0 -81 46.5 -127t127.5 -46q102 0 172 74.5t70 181.5q0 85 -48 136.5t-128 51.5 q-101 0 -170.5 -78t-69.5 -193z" />
<glyph unicode="&#xb1;" horiz-adv-x="1081" d="M57 0l5 45h848l-5 -45h-848zM151 735l5 45h403l56 450h45l-56 -450h400l-5 -45h-400l-55 -449h-45l55 449h-403z" />
<glyph unicode="&#xb2;" horiz-adv-x="617" d="M101 893l5 37l340 305q83 74 126.5 140.5t43.5 147.5q0 80 -43 127t-122 47q-40 0 -81.5 -15t-81 -47.5t-63.5 -77.5l-34 27q27 47 69 83t92 55.5t101 19.5q92 0 150 -57t58 -157q0 -91 -46.5 -167t-135.5 -155l-299 -266l-1 -3h424l-6 -44h-496z" />
<glyph unicode="&#xb3;" horiz-adv-x="619" d="M111 1039l43 17q13 -39 40 -67t69.5 -43.5t98.5 -15.5q70 0 123.5 27t82.5 76.5t29 113.5q0 69 -51.5 115t-143.5 46h-77l6 45h87q92 0 151 55.5t59 141.5q0 71 -45.5 108.5t-129.5 37.5q-131 0 -208 -100l-37 27q91 118 246 118q97 0 158 -49.5t61 -137.5 q0 -55 -19 -99.5t-53.5 -75t-83.5 -47.5v-3q41 -14 69.5 -41t42 -62.5t13.5 -78.5q0 -118 -80.5 -190t-200.5 -72q-65 0 -117 20t-85 54t-48 80z" />
<glyph unicode="&#xb4;" horiz-adv-x="969" d="M449 1122l260 276h63l-263 -276h-60z" />
<glyph unicode="&#xb5;" horiz-adv-x="1091" d="M55 -405l172 1397h45l-77 -625q-7 -74 2 -131.5t29.5 -94t50.5 -60t62.5 -33t69.5 -9.5q68 0 134 28.5t123.5 81.5t100 137.5t59.5 188.5l64 517h45l-93 -750q-3 -29 -5 -48t-2 -42.5t3 -38.5t10 -30t18.5 -24t29 -14.5t41.5 -5.5q28 0 65 12l12 -44q-42 -14 -84 -14 q-52 0 -84 19t-43 50.5t-13.5 73t5.5 87.5l4 37h-2q-43 -88 -106.5 -149t-135 -89.5t-147.5 -28.5q-89 0 -151 46t-87 137l-4 -2q-4 -47 -6.5 -72.5t-6 -65.5t-7.5 -73l-46 -368h-45z" />
<glyph unicode="&#xb6;" horiz-adv-x="704" d="M166 1031q0 107 70.5 182t184.5 75h184l-195 -1591h-46l190 1545h-104l-153 -1242h-46l106 853q-84 2 -137.5 48.5t-53.5 129.5z" />
<glyph unicode="&#xb7;" horiz-adv-x="330" d="M145 480q0 20 13 33.5t32 13.5t32 -13t13 -32q0 -20 -13.5 -33.5t-33.5 -13.5q-12 0 -22 6t-15.5 16t-5.5 23z" />
<glyph unicode="&#xb8;" horiz-adv-x="657" d="M103 -361l6 43q37 -14 76 -14q32 0 63 13t55.5 45t24.5 76q0 78 -144 84l8 43l2 4l-1 2l3 2l41 75h45l-47 -84l2 -1q136 -15 136 -125q0 -75 -55 -127t-135 -52q-48 0 -80 16z" />
<glyph unicode="&#xb9;" horiz-adv-x="432" d="M169 1569l236 166h37l-104 -842h-44l95 778l-199 -140z" />
<glyph unicode="&#xba;" horiz-adv-x="733" d="M172 1058q0 94 38 174.5t109 129.5t160 49q107 0 170 -62.5t63 -177.5q0 -100 -37.5 -181.5t-107.5 -129.5t-159 -48q-108 0 -172 65t-64 181zM218 1061q0 -96 50.5 -149.5t141.5 -53.5q112 0 184 87.5t72 222.5q0 95 -49 146t-140 51q-111 0 -185 -87t-74 -217z" />
<glyph unicode="&#xbb;" horiz-adv-x="754" d="M57 26l297 473l-181 469h46l185 -469l-302 -473h-45zM328 26l297 473l-181 469h46l185 -469l-302 -473h-45z" />
<glyph unicode="&#xbc;" horiz-adv-x="1274" d="M132 1289l236 166h37l-104 -842h-44l95 778l-199 -140zM234 2l742 1468l41 -17l-742 -1468zM611 157l6 41l486 644h37l-79 -641h126l-6 -44h-126l-19 -157h-44l19 157h-400zM676 201h341l66 544z" />
<glyph unicode="&#xbd;" horiz-adv-x="1339" d="M132 1289l236 166h37l-104 -842h-44l95 778l-199 -140zM234 2l742 1468l41 -17l-742 -1468zM710 0l5 37l340 305q31 28 54.5 51.5t46 52.5t37 56.5t23.5 60.5t9 67q0 80 -43 127t-122 47q-62 0 -126 -37t-100 -103l-34 27q40 71 112.5 114.5t149.5 43.5q92 0 150 -57 t58 -157q0 -91 -46.5 -167t-135.5 -155l-299 -266l-1 -3h424l-6 -44h-496z" />
<glyph unicode="&#xbe;" horiz-adv-x="1433" d="M73 759l43 17q13 -39 40 -67t69.5 -43.5t98.5 -15.5q52 0 96 15.5t74.5 44t47.5 69t17 88.5q0 69 -51.5 115t-143.5 46h-77l6 45h87q92 0 151 55.5t59 141.5q0 71 -45.5 108.5t-129.5 37.5q-131 0 -208 -100l-37 27q91 118 246 118q97 0 158 -49.5t61 -137.5 q0 -83 -41 -140t-115 -82v-3q62 -21 93.5 -68.5t31.5 -113.5q0 -118 -80.5 -190t-200.5 -72q-97 0 -162 42t-88 112zM393 2l742 1468l41 -17l-742 -1468zM770 157l6 41l486 644h37l-79 -641h126l-6 -44h-126l-19 -157h-44l19 157h-400zM835 201h341l66 544z" />
<glyph unicode="&#xbf;" horiz-adv-x="719" d="M5 -210q0 -141 77 -227.5t211 -86.5q99 0 191 49t160 143l-29 33q-56 -85 -139 -130.5t-176 -45.5q-113 0 -180.5 66t-67.5 190q0 62 14 115.5t43.5 103.5t63 91t85.5 95q11 11 37 38.5t37.5 39t33 36t32.5 39.5t26 38t23 42t15.5 42.5t10.5 47.5l15 122h-40l-17 -124 q-3 -20 -9.5 -40t-13.5 -35.5t-22 -37t-23.5 -33.5t-30.5 -36t-31 -33.5t-36.5 -37.5t-36.5 -37q-53 -55 -87 -96t-68.5 -95t-51 -112.5t-16.5 -123.5zM445 951q0 20 13.5 33.5t33.5 13.5q19 0 31 -12.5t12 -32.5t-13 -33.5t-32.5 -13.5t-32 12.5t-12.5 32.5z" />
<glyph unicode="&#xc0;" d="M1 0l684 1455h55l336 -1455h-49l-99 432h-673l-203 -432h-51zM277 479h640l-209 912h-3zM508 1916h61l193 -276h-57z" />
<glyph unicode="&#xc1;" d="M1 0l684 1455h55l336 -1455h-49l-99 432h-673l-203 -432h-51zM277 479h640l-209 912h-3zM739 1640l260 276h63l-263 -276h-60z" />
<glyph unicode="&#xc2;" d="M1 0l684 1455h55l336 -1455h-49l-99 432h-673l-203 -432h-51zM277 479h640l-209 912h-3zM491 1638l252 270v2h1l6 6h47l196 -278h-57l-162 242h-3l-223 -242h-57z" />
<glyph unicode="&#xc3;" d="M1 0l684 1455h55l336 -1455h-49l-99 432h-673l-203 -432h-51zM277 479h640l-209 912h-3zM457 1710q66 157 172 157q38 0 68 -16.5t65 -48.5q3 -2 8 -7q25 -23 39 -34.5t37 -23t43 -11.5q36 0 70.5 32.5t58.5 95.5l37 -18q-31 -78 -75 -116.5t-90 -38.5q-21 0 -41 6.5 t-43 23t-32.5 25t-34.5 30.5q-62 55 -109 55q-81 0 -135 -126z" />
<glyph unicode="&#xc4;" d="M1 0l684 1455h55l336 -1455h-49l-99 432h-673l-203 -432h-51zM277 479h640l-209 912h-3zM578 1786q0 20 13 33.5t32 13.5t32 -13t13 -32q0 -20 -13.5 -33.5t-33.5 -13.5q-19 0 -31 12.5t-12 32.5zM849 1786q0 20 13 33.5t32.5 13.5t32 -12.5t12.5 -32.5t-13.5 -33.5 t-33.5 -13.5q-19 0 -31 12.5t-12 32.5z" />
<glyph unicode="&#xc5;" d="M1 0l684 1455h55l336 -1455h-49l-99 432h-673l-203 -432h-51zM277 479h640l-209 912h-3zM603 1778q0 64 43.5 106.5t108.5 42.5q64 0 106 -41t42 -104q0 -65 -43.5 -108t-109.5 -43q-63 0 -105 42t-42 105zM649 1778q0 -44 28.5 -72.5t72.5 -28.5q31 0 55.5 13.5t38 37.5 t13.5 54q0 44 -28.5 71.5t-73.5 27.5q-46 0 -76 -29t-30 -74z" />
<glyph unicode="&#xc6;" horiz-adv-x="1688" d="M-50 0l938 1455h788l-5 -47h-714l-81 -659h605l-5 -46h-605l-81 -656h750l-5 -47h-797l53 432h-507l-278 -432h-56zM314 478h482l112 919h-3z" />
<glyph unicode="&#xc7;" horiz-adv-x="1370" d="M154 608q0 132 34 259t99.5 234t153 188t201 127t237.5 46q301 0 496 -313l-42 -26q-93 156 -201 223.5t-249 67.5q-85 0 -165 -23t-147 -64.5t-125 -99t-102.5 -128t-76 -149.5t-48 -165.5t-16.5 -174.5q0 -264 134.5 -416.5t365.5 -152.5q124 0 251 56.5t225 164.5 l37 -29q-99 -109 -236 -174.5t-279 -65.5h-7l-3 -1l-36 -64l2 -1q136 -15 136 -125q0 -75 -55 -127t-135 -52q-48 0 -80 16l6 43q37 -14 76 -14q32 0 63 13t55.5 45t24.5 76q0 78 -144 84l8 43l2 4l-1 2l3 2l30 55v3q-227 19 -359.5 183t-132.5 430z" />
<glyph unicode="&#xc8;" horiz-adv-x="1086" d="M134 0l177 1455h760l-5 -47h-713l-81 -656h599l-5 -47h-599l-81 -658h752l-5 -47h-799zM600 1923h61l193 -276h-57z" />
<glyph unicode="&#xc9;" horiz-adv-x="1086" d="M134 0l177 1455h760l-5 -47h-713l-81 -656h599l-5 -47h-599l-81 -658h752l-5 -47h-799zM598 1646l260 276h63l-263 -276h-60z" />
<glyph unicode="&#xca;" horiz-adv-x="1086" d="M134 0l177 1455h760l-5 -47h-713l-81 -656h599l-5 -47h-599l-81 -658h752l-5 -47h-799zM487 1645l252 270v2h1l6 6h47l196 -278h-57l-162 242h-3l-223 -242h-57z" />
<glyph unicode="&#xcb;" horiz-adv-x="1086" d="M134 0l177 1455h760l-5 -47h-713l-81 -656h599l-5 -47h-599l-81 -658h752l-5 -47h-799zM574 1793q0 20 13 33.5t32 13.5q13 0 23 -6t16 -16t6 -23q0 -20 -13.5 -33.5t-33.5 -13.5q-19 0 -31 12.5t-12 32.5zM845 1793q0 10 3.5 18.5t9.5 15t14 10t18 3.5q13 0 23 -6 t16 -16t6 -23q0 -20 -13.5 -33.5t-33.5 -13.5q-19 0 -31 12.5t-12 32.5z" />
<glyph unicode="&#xcc;" horiz-adv-x="463" d="M115 1916h61l193 -276h-57zM148 0l177 1455h47l-177 -1455h-47z" />
<glyph unicode="&#xcd;" horiz-adv-x="463" d="M148 0l177 1455h47l-177 -1455h-47zM365 1640l260 276h63l-263 -276h-60z" />
<glyph unicode="&#xce;" horiz-adv-x="463" d="M126 1638l252 270v2h1l6 6h47l196 -278h-57l-162 242h-3l-223 -242h-57zM148 0l177 1455h47l-177 -1455h-47z" />
<glyph unicode="&#xcf;" horiz-adv-x="463" d="M148 0l177 1455h47l-177 -1455h-47zM213 1786q0 20 13 33.5t32 13.5t32 -13t13 -32q0 -10 -3.5 -18.5t-10 -15t-15 -10t-18.5 -3.5q-19 0 -31 12.5t-12 32.5zM484 1786q0 20 13 33.5t32 13.5t32 -12.5t13 -32.5q0 -13 -6 -24t-17 -17t-24 -6q-19 0 -31 12.5t-12 32.5z " />
<glyph unicode="&#xd0;" horiz-adv-x="1350" d="M109 749l5 48h117l80 658h363q138 0 247.5 -41t182.5 -117.5t111.5 -186t38.5 -246.5q0 -186 -57 -346.5t-158.5 -274.5t-247 -178.5t-316.5 -64.5h-341l91 749h-116zM187 47h287q160 0 297 61.5t232.5 169.5t149 258.5t53.5 324.5q0 259 -138 403t-396 144h-318 l-75 -611h366l-5 -48h-367z" />
<glyph unicode="&#xd1;" horiz-adv-x="1401" d="M134 0l177 1455h42l752 -1363h3l167 1363h47l-177 -1455h-45l-750 1362h-2l-167 -1362h-47zM560 1710q66 157 172 157q38 0 68 -16.5t65 -48.5q3 -2 8 -7q25 -23 39 -34.5t37 -23t43 -11.5q36 0 70.5 32.5t58.5 95.5l37 -18q-31 -78 -75 -116.5t-90 -38.5q-21 0 -41 6.5 t-43 23t-32.5 25t-34.5 30.5q-62 55 -109 55q-81 0 -135 -126z" />
<glyph unicode="&#xd2;" horiz-adv-x="1550" d="M153 597q0 135 33.5 264t98.5 237t153.5 190t204.5 128t245 46q127 0 230.5 -39.5t178 -115t115.5 -190t41 -258.5q0 -139 -33 -268.5t-97 -237.5t-152.5 -189t-205.5 -126t-249 -45q-126 0 -230.5 41t-178 117.5t-114 190.5t-40.5 255zM201 597q0 -262 138.5 -409 t377.5 -147q124 0 233.5 42.5t191.5 118.5t142 177.5t90.5 223.5t30.5 254q0 266 -138 411.5t-380 145.5q-121 0 -229.5 -43.5t-191 -121t-142.5 -180t-91.5 -223.5t-31.5 -249zM746 1916h61l193 -276h-57z" />
<glyph unicode="&#xd3;" horiz-adv-x="1550" d="M153 597q0 135 33.5 264t98.5 237t153.5 190t204.5 128t245 46q127 0 230.5 -39.5t178 -115t115.5 -190t41 -258.5q0 -139 -33 -268.5t-97 -237.5t-152.5 -189t-205.5 -126t-249 -45q-126 0 -230.5 41t-178 117.5t-114 190.5t-40.5 255zM201 597q0 -262 138.5 -409 t377.5 -147q124 0 233.5 42.5t191.5 118.5t142 177.5t90.5 223.5t30.5 254q0 266 -138 411.5t-380 145.5q-101 0 -194 -31t-167.5 -86t-136 -131.5t-102.5 -166.5t-63.5 -193t-22.5 -209zM914 1640l260 276h63l-263 -276h-60z" />
<glyph unicode="&#xd4;" horiz-adv-x="1550" d="M153 597q0 135 33.5 264t98.5 237t153.5 190t204.5 128t245 46q127 0 230.5 -39.5t178 -115t115.5 -190t41 -258.5q0 -139 -33 -268.5t-97 -237.5t-152.5 -189t-205.5 -126t-249 -45q-126 0 -230.5 41t-178 117.5t-114 190.5t-40.5 255zM201 597q0 -262 138.5 -409 t377.5 -147q124 0 233.5 42.5t191.5 118.5t142 177.5t90.5 223.5t30.5 254q0 266 -138 411.5t-380 145.5q-101 0 -194 -31t-167.5 -86t-136 -131.5t-102.5 -166.5t-63.5 -193t-22.5 -209zM700 1638l252 270v2h1l6 6h47l196 -278h-57l-162 242h-3l-223 -242h-57z" />
<glyph unicode="&#xd5;" horiz-adv-x="1550" d="M153 597q0 97 17.5 191t51.5 179t81.5 161t110.5 137t135.5 105t159 68t179.5 24q127 0 230.5 -39.5t178 -115t115.5 -190t41 -258.5q0 -139 -33 -268.5t-97 -237.5t-152.5 -189t-205.5 -126t-249 -45q-126 0 -230.5 41t-178 117.5t-114 190.5t-40.5 255zM201 597 q0 -262 138.5 -409t377.5 -147q124 0 233.5 42.5t191.5 118.5t142 177.5t90.5 223.5t30.5 254q0 266 -138 411.5t-380 145.5q-101 0 -194 -31t-167.5 -86t-136 -131.5t-102.5 -166.5t-63.5 -193t-22.5 -209zM666 1710q66 157 172 157q38 0 68 -16.5t65 -48.5q3 -2 8 -7 q25 -23 39 -34.5t37 -23t43 -11.5q36 0 70.5 32.5t58.5 95.5l37 -18q-31 -78 -75 -116.5t-90 -38.5q-17 0 -35.5 6t-30.5 12t-32 21.5t-26 21t-27 24.5q-62 55 -109 55q-81 0 -135 -126z" />
<glyph unicode="&#xd6;" horiz-adv-x="1550" d="M153 597q0 135 33.5 264t98.5 237t153.5 190t204.5 128t245 46q127 0 230.5 -39.5t178 -115t115.5 -190t41 -258.5q0 -139 -33 -268.5t-97 -237.5t-152.5 -189t-205.5 -126t-249 -45q-126 0 -230.5 41t-178 117.5t-114 190.5t-40.5 255zM201 597q0 -262 138.5 -409 t377.5 -147q124 0 233.5 42.5t191.5 118.5t142 177.5t90.5 223.5t30.5 254q0 266 -138 411.5t-380 145.5q-101 0 -194 -31t-167.5 -86t-136 -131.5t-102.5 -166.5t-63.5 -193t-22.5 -209zM787 1786q0 20 13 33.5t32 13.5t32 -13t13 -32q0 -20 -13.5 -33.5t-33.5 -13.5 q-19 0 -31 12.5t-12 32.5zM1058 1786q0 20 13 33.5t32 13.5t32 -12.5t13 -32.5t-13.5 -33.5t-33.5 -13.5q-19 0 -31 12.5t-12 32.5z" />
<glyph unicode="&#xd7;" horiz-adv-x="924" d="M95 229l344 336l-261 336l34 32l259 -336l345 337l28 -31l-344 -338l260 -336l-34 -31l-261 335l-341 -335z" />
<glyph unicode="&#xd8;" horiz-adv-x="1550" d="M153 597q0 135 33.5 264t98.5 237t153.5 190t204.5 128t245 46q266 0 418 -164l141 158l33 -29l-145 -164q118 -156 118 -404q0 -139 -33 -268.5t-97 -237.5t-152.5 -189t-205.5 -126t-249 -45q-238 0 -387 138l-134 -150l-34 31l135 152q-143 162 -143 433zM201 597 q0 -249 128 -397l945 1061q-138 153 -387 153q-101 0 -194 -31t-167.5 -86t-136 -131.5t-102.5 -166.5t-63.5 -193t-22.5 -209zM360 167q137 -126 357 -126q124 0 233.5 42.5t191.5 118.5t142 177.5t90.5 223.5t30.5 254q0 228 -103 370z" />
<glyph unicode="&#xd9;" horiz-adv-x="1309" d="M177 456q0 56 8 125l107 874h47l-107 -876q-10 -66 -10 -121q0 -96 21.5 -171.5t65.5 -131t114.5 -85t163.5 -29.5q215 0 347.5 132.5t164.5 397.5l107 884h47l-108 -886q-36 -287 -179 -431.5t-380 -144.5q-105 0 -183.5 33t-127.5 94.5t-73.5 145.5t-24.5 190z M585 1916h61l193 -276h-57z" />
<glyph unicode="&#xda;" horiz-adv-x="1309" d="M177 456q0 56 8 125l107 874h47l-107 -876q-10 -66 -10 -121q0 -96 21.5 -171.5t65.5 -131t114 -85t164 -29.5q215 0 347.5 132.5t164.5 397.5l107 884h47l-108 -886q-36 -287 -179 -431.5t-380 -144.5q-105 0 -183.5 33t-127.5 94.5t-73.5 145.5t-24.5 190zM736 1640 l260 276h63l-263 -276h-60z" />
<glyph unicode="&#xdb;" horiz-adv-x="1309" d="M177 456q0 56 8 125l107 874h47l-107 -876q-10 -66 -10 -121q0 -96 21.5 -171.5t65.5 -131t114.5 -85t163.5 -29.5q215 0 347.5 132.5t164.5 397.5l107 884h47l-108 -886q-36 -287 -179 -431.5t-380 -144.5q-105 0 -183.5 33t-127.5 94.5t-73.5 145.5t-24.5 190z M548 1638l252 270v2h1l6 6h47l196 -278h-57l-162 242h-3l-223 -242h-57z" />
<glyph unicode="&#xdc;" horiz-adv-x="1309" d="M177 456q0 56 8 125l107 874h47l-107 -876q-10 -66 -10 -121q0 -96 21.5 -171.5t65.5 -131t114.5 -85t163.5 -29.5q215 0 347.5 132.5t164.5 397.5l107 884h47l-108 -886q-36 -287 -179 -431.5t-380 -144.5q-105 0 -183.5 33t-127.5 94.5t-73.5 145.5t-24.5 190z M635 1786q0 20 13 33.5t32 13.5t32 -13t13 -32q0 -13 -6 -24t-17 -17t-24 -6q-19 0 -31 12.5t-12 32.5zM906 1786q0 20 13 33.5t32.5 13.5t32 -12.5t12.5 -32.5t-13.5 -33.5t-33.5 -13.5q-19 0 -31 12.5t-12 32.5z" />
<glyph unicode="&#xdd;" horiz-adv-x="1036" d="M157 1455h52l332 -736h4l515 736h56l-554 -793l-81 -662h-47l81 662zM613 1640l260 276h63l-263 -276h-60z" />
<glyph unicode="&#xde;" horiz-adv-x="1144" d="M134 0l177 1455h46l-37 -322h411q174 0 265.5 -90.5t91.5 -248.5q0 -145 -57 -255.5t-167 -173.5t-258 -63h-388l-37 -302h-47zM223 349h386q134 0 232.5 58t148.5 158t50 230q0 77 -23.5 134t-67 91t-98.5 50t-124 16h-413z" />
<glyph unicode="&#xdf;" horiz-adv-x="1147" d="M115 0l140 1153q8 63 29.5 116.5t54 92.5t73 68.5t86 48t92.5 27.5t95 9q161 0 259.5 -63.5t98.5 -173.5q0 -46 -15 -86t-44 -72.5t-61 -57.5t-77 -52q-14 -9 -46.5 -27.5t-48.5 -28.5t-42 -27.5t-39.5 -31t-29 -31.5t-23 -37.5t-9.5 -40.5q-2 -24 2.5 -45.5t11.5 -38 t23.5 -33.5t29 -28t37.5 -26.5t40 -23.5l43 -24l12 -6q29 -16 45 -24.5t41.5 -23t40 -24.5t35 -24.5t32.5 -27t26.5 -28t22.5 -31t16 -33.5t11 -38t3 -42q0 -86 -44.5 -149t-116 -93t-159.5 -30q-119 0 -196 37t-137 102l32 38q29 -32 50 -50t57 -39.5t84 -31.5t110 -10 q124 0 198.5 61t75.5 163q0 36 -12 66.5t-30 53.5t-52 48t-63.5 42t-79.5 43q-37 19 -56.5 30t-50 29.5t-46.5 32.5t-35.5 35t-28.5 41.5t-14.5 47t-3.5 56.5q2 23 10 45t18.5 39.5t29 36t34 31t41 29.5t42 27t46 27t44.5 26q39 24 66.5 45t53 48.5t38.5 60.5t13 70 q0 89 -84.5 142.5t-232.5 53.5q-47 0 -94.5 -10t-96 -34.5t-87.5 -61t-67 -94t-37 -129.5l-139 -1140h-45z" />
<glyph unicode="&#xe0;" horiz-adv-x="1087" d="M98 387q0 125 37 236.5t103 195t163.5 132t212.5 48.5q61 0 121 -14t112.5 -42.5t85.5 -67.5h3l14 117h45l-121 -992h-45l39 319h-3q-32 -70 -74.5 -127.5t-95.5 -102.5t-118.5 -70.5t-137.5 -25.5q-105 0 -183.5 52.5t-118 141t-39.5 200.5zM144 385q0 -154 77.5 -250 t218.5 -96q73 0 140.5 31t120.5 85t95.5 124t68.5 149.5t36 161.5l27 222q-27 42 -69.5 72t-89.5 44t-85 19.5t-73 5.5q-104 0 -192 -45.5t-148 -123t-93.5 -181t-33.5 -218.5zM472 1425h61l193 -276h-57z" />
<glyph unicode="&#xe1;" horiz-adv-x="1087" d="M98 387q0 125 37 236.5t103 195t163.5 132t212.5 48.5q61 0 121 -14t112.5 -42.5t85.5 -67.5h3l14 117h45l-121 -992h-45l39 319h-3q-33 -70 -75 -127.5t-95 -102.5t-118.5 -70.5t-137.5 -25.5q-105 0 -183.5 52.5t-118 141t-39.5 200.5zM144 385q0 -154 77.5 -250 t218.5 -96q73 0 140.5 31t120.5 85t95.5 124t68.5 149.5t36 161.5l27 222q-27 42 -69.5 72t-89.5 44t-85 19.5t-73 5.5q-104 0 -192 -45.5t-148 -123t-93.5 -181t-33.5 -218.5zM672 1149l260 276h63l-263 -276h-60z" />
<glyph unicode="&#xe2;" horiz-adv-x="1087" d="M98 387q0 125 37 236.5t103 195t163.5 132t212.5 48.5q61 0 121 -14t112.5 -42.5t85.5 -67.5h3l14 117h45l-121 -992h-45l39 319h-3q-33 -70 -75 -127.5t-95 -102.5t-118.5 -70.5t-137.5 -25.5q-105 0 -183.5 52.5t-118 141t-39.5 200.5zM144 385q0 -154 77.5 -250 t218.5 -96q73 0 140.5 31t120.5 85t95.5 124t68.5 149.5t36 161.5l27 222q-27 42 -69.5 72t-89.5 44t-85 19.5t-73 5.5q-104 0 -192 -45.5t-148 -123t-93.5 -181t-33.5 -218.5zM445 1147l252 270v2h1l6 6h47l196 -278h-57l-162 242h-3l-223 -242h-57z" />
<glyph unicode="&#xe3;" horiz-adv-x="1087" d="M98 387q0 125 37 236.5t103 195t163.5 132t212.5 48.5q94 0 181.5 -33t137.5 -91h3l14 117h45l-121 -992h-45l39 319h-3q-33 -70 -75 -127.5t-95 -102.5t-118.5 -70.5t-137.5 -25.5q-105 0 -183.5 52.5t-118 141t-39.5 200.5zM144 385q0 -154 77.5 -250t218.5 -96 q73 0 140.5 31t120.5 85t95.5 124t68.5 149.5t36 161.5l27 222q-22 34 -55 60t-67 41t-72 24.5t-67 12.5t-56 3q-104 0 -192 -45.5t-148 -123t-93.5 -181t-33.5 -218.5zM411 1219q66 157 172 157q38 0 68 -16.5t65 -48.5q3 -2 8 -7q25 -23 39 -34.5t37 -23t43 -11.5 q36 0 70.5 32.5t58.5 95.5l37 -18q-21 -52 -49.5 -88t-57 -51.5t-58.5 -15.5q-17 0 -35.5 6t-30.5 12t-32 21.5t-26 21t-27 24.5q-62 55 -109 55q-81 0 -135 -126z" />
<glyph unicode="&#xe4;" horiz-adv-x="1087" d="M98 387q0 125 37 236.5t103 194.5t163.5 132t212.5 49q61 0 121 -14t112.5 -42.5t85.5 -67.5h3l14 117h45l-121 -992h-45l39 319h-3q-33 -70 -75 -127.5t-95 -102.5t-118.5 -70.5t-137.5 -25.5q-105 0 -183.5 52.5t-118 141t-39.5 200.5zM144 385q0 -154 77.5 -250 t218.5 -96q73 0 140.5 31t120.5 85t95.5 124t68.5 149.5t36 161.5l27 222q-27 42 -69.5 72t-89.5 43.5t-85 19.5t-73 6q-104 0 -192 -45.5t-148 -123t-93.5 -181t-33.5 -218.5zM532 1295q0 13 6 24t16 17t23 6q19 0 32 -13t13 -32q0 -20 -13.5 -33.5t-33.5 -13.5 q-19 0 -31 12.5t-12 32.5zM803 1295q0 20 13 33.5t32 13.5t32 -13t13 -32q0 -20 -13.5 -33.5t-33.5 -13.5q-19 0 -31 12.5t-12 32.5z" />
<glyph unicode="&#xe5;" horiz-adv-x="1087" d="M98 387q0 125 37 236.5t103 194.5t163.5 132t212.5 49q61 0 121 -14t112.5 -42.5t85.5 -67.5h3l14 117h45l-121 -992h-45l39 319h-3q-33 -70 -75 -127.5t-95 -102.5t-118.5 -70.5t-137.5 -25.5q-105 0 -183.5 52.5t-118 141t-39.5 200.5zM144 385q0 -154 77.5 -250 t218.5 -96q73 0 140.5 31t120.5 85t95.5 124t68.5 149.5t36 161.5l27 222q-27 42 -69.5 72t-89.5 43.5t-85 19.5t-73 6q-104 0 -192 -45.5t-148 -123t-93.5 -181t-33.5 -218.5zM557 1287q0 64 43.5 106.5t108.5 42.5q31 0 58.5 -11t47 -30t31 -46t11.5 -58q0 -43 -20 -77.5 t-55 -54t-78 -19.5q-63 0 -105 42t-42 105zM603 1287q0 -29 13 -52t36 -36t52 -13q31 0 55.5 13.5t38 37.5t13.5 54q0 21 -7.5 39.5t-21 31.5t-32.5 20.5t-41 7.5q-46 0 -76 -29t-30 -74z" />
<glyph unicode="&#xe6;" horiz-adv-x="1336" d="M69 276q0 149 50.5 277.5t138.5 219.5t211.5 142.5t264.5 51.5q60 0 140 -17q95 49 205 49q107 0 172.5 -57.5t65.5 -152.5q0 -69 -40 -131t-104 -109t-154.5 -89t-180 -70.5t-192.5 -52.5q15 -140 92 -219t199 -79q67 0 145.5 43t133.5 115l37 -28q-59 -78 -147 -127 t-169 -49q-85 0 -153 34.5t-112 98.5t-63 152h-3q-26 -60 -56 -108.5t-68.5 -90t-87 -64t-102.5 -22.5q-94 0 -158.5 74.5t-64.5 208.5zM115 276q0 -68 19 -120.5t59.5 -84.5t97.5 -32q55 0 103.5 27.5t86.5 76t66.5 104t50.5 121.5q-1 11 -1 34q0 162 57.5 298t162.5 214v2 q-30 5 -93 5q-129 0 -242 -48.5t-193.5 -133t-127 -205t-46.5 -258.5zM643 383q79 19 150.5 41t144.5 50t131.5 62t104.5 72.5t71.5 85.5t25.5 97q0 38 -13.5 67.5t-34 47t-47 28.5t-50.5 15t-47 4q-102 0 -185.5 -44.5t-138 -121t-83.5 -176t-29 -211.5v-17z" />
<glyph unicode="&#xe7;" horiz-adv-x="973" d="M96 396q0 122 36.5 231.5t102.5 192t165 131t217 48.5q93 0 178.5 -39t138.5 -119l-39 -30q-47 72 -120.5 107t-158.5 35q-107 0 -197.5 -45t-150.5 -121.5t-93 -177.5t-33 -213q0 -156 90.5 -256.5t227.5 -100.5q116 0 202.5 38t152.5 119l35 -27q-69 -86 -158.5 -128.5 t-209.5 -47.5l-2 -1l-36 -64l2 -1q136 -15 136 -125q0 -49 -24.5 -90t-68.5 -65t-97 -24q-48 0 -80 16l6 43q37 -14 76 -14q52 0 97.5 35t45.5 99q0 78 -144 84l8 43l2 4l-1 2l3 2l30 54l-1 3q-65 4 -125 32.5t-108 78t-76.5 125t-28.5 166.5z" />
<glyph unicode="&#xe8;" horiz-adv-x="941" d="M96 403q0 121 38.5 230.5t105 190t162.5 128t205 47.5q30 0 64 -5.5t75 -21t73 -39.5t53.5 -65.5t21.5 -93.5q0 -55 -26 -103t-69 -84.5t-104.5 -67.5t-127.5 -52.5t-142 -38t-144.5 -26.5t-138.5 -16q5 -162 96 -254.5t240 -92.5q180 0 315 157l35 -27 q-144 -176 -351 -176q-112 0 -198 49t-134.5 142.5t-48.5 218.5zM143 432q75 6 150 17.5t157 30t151.5 46t126 62t88.5 82t32 101.5q0 43 -18 77t-44 53t-60.5 31.5t-63.5 16.5t-56 4q-128 0 -232.5 -70.5t-164.5 -189t-66 -261.5zM443 1425h61l193 -276h-57z" />
<glyph unicode="&#xe9;" horiz-adv-x="941" d="M96 403q0 121 38.5 230.5t105 190t162.5 128t205 47.5q30 0 64 -5.5t75 -21t73 -39.5t53.5 -65.5t21.5 -93.5q0 -55 -26 -103t-69 -84.5t-104.5 -67.5t-127.5 -52.5t-142 -38t-144.5 -26.5t-138.5 -16q5 -162 96 -254.5t240 -92.5q180 0 315 157l35 -27 q-144 -176 -351 -176q-112 0 -198 49t-134.5 142.5t-48.5 218.5zM143 432q75 6 150 17.5t157 30t151.5 46t126 62t88.5 82t32 101.5q0 43 -18 77t-44 53t-60.5 31.5t-63.5 16.5t-56 4q-128 0 -232.5 -70.5t-164.5 -189t-66 -261.5zM594 1149l260 276h63l-263 -276h-60z" />
<glyph unicode="&#xea;" horiz-adv-x="941" d="M96 403q0 121 38.5 230.5t105 190t162.5 128t205 47.5q30 0 64 -5.5t75 -21t73 -39.5t53.5 -65.5t21.5 -93.5q0 -55 -26 -103t-69 -84.5t-104.5 -67.5t-127.5 -52.5t-142 -38t-144.5 -26.5t-138.5 -16q5 -162 96 -254.5t240 -92.5q180 0 315 157l35 -27 q-144 -176 -351 -176q-112 0 -198 49t-134.5 142.5t-48.5 218.5zM143 432q64 5 128 14t134.5 24t133 34t120 46t99 59t66 73.5t24.5 88.5q0 43 -18 77t-44 53t-60.5 31.5t-63.5 16.5t-56 4q-128 0 -232.5 -70.5t-164.5 -189t-66 -261.5zM377 1147l252 270v2h1l6 6h47 l196 -278h-57l-162 242h-3l-223 -242h-57z" />
<glyph unicode="&#xeb;" horiz-adv-x="941" d="M96 403q0 121 38.5 230.5t105 190t162.5 128t205 47.5q30 0 64 -5.5t75 -21t73 -39.5t53.5 -65.5t21.5 -93.5q0 -55 -26 -103t-69 -84.5t-104.5 -67.5t-127.5 -52.5t-142 -38t-144.5 -26.5t-138.5 -16q5 -162 96 -254.5t240 -92.5q180 0 315 157l35 -27 q-144 -176 -351 -176q-112 0 -198 49t-134.5 142.5t-48.5 218.5zM143 432q64 5 128 14t134.5 24t133 34t120 46t99 59t66 73.5t24.5 88.5q0 43 -18 77t-44 53t-60.5 31.5t-63.5 16.5t-56 4q-128 0 -232.5 -70.5t-164.5 -189t-66 -261.5zM464 1295q0 20 13 33.5t32 13.5 t32 -13t13 -32q0 -20 -13.5 -33.5t-33.5 -13.5q-19 0 -31 12.5t-12 32.5zM735 1295q0 20 13 33.5t32 13.5t32 -13t13 -32q0 -10 -3.5 -18.5t-10 -15t-15 -10t-18.5 -3.5q-19 0 -31 12.5t-12 32.5z" />
<glyph unicode="&#xec;" horiz-adv-x="419" d="M113 1427h57l133 -276h-55zM126 0l121 992h45l-121 -992h-45z" />
<glyph unicode="&#xed;" horiz-adv-x="419" d="M126 0l121 992h45l-121 -992h-45zM284 1149l260 276h63l-263 -276h-60z" />
<glyph unicode="&#xee;" horiz-adv-x="419" d="M38 1147l252 270v2h1l6 6h47l196 -278h-57l-162 242h-3l-223 -242h-57zM126 0l121 992h45l-121 -992h-45z" />
<glyph unicode="&#xef;" horiz-adv-x="419" d="M125 1296q0 13 6 24t16 17t23 6q19 0 32 -13t13 -32q0 -20 -13.5 -33.5t-33.5 -13.5q-19 0 -31 12.5t-12 32.5zM126 0l121 992h45l-121 -992h-45zM396 1296q0 20 13 33.5t32 13.5t32 -13t13 -32q0 -20 -13.5 -33.5t-33.5 -13.5q-19 0 -31 12.5t-12 32.5z" />
<glyph unicode="&#xf0;" horiz-adv-x="1097" d="M95 405q0 120 38 228.5t104.5 189.5t163.5 128.5t209 47.5q53 0 100.5 -10t87 -28.5t71.5 -46t56 -63.5q1 -1 4.5 -6t5.5 -8l1 1q-32 154 -107.5 284.5t-184.5 223.5l-175 -137l-25 35l165 129q-78 60 -174 99l20 41q105 -43 192 -110l147 115l24 -37l-136 -106 q151 -130 235.5 -326.5t84.5 -426.5q0 -51 -4 -101q-5 -87 -32 -166.5t-73 -145t-106.5 -114t-136 -75.5t-158.5 -27q-182 0 -289.5 110.5t-107.5 301.5zM141 405q0 -171 94 -268.5t257 -97.5q132 0 238 73t165 198.5t59 276.5q0 170 -90.5 268t-253.5 98q-102 0 -190.5 -44 t-149 -118.5t-95 -174.5t-34.5 -211z" />
<glyph unicode="&#xf1;" horiz-adv-x="1089" d="M114 0l121 992h45l-40 -327h3q74 149 201 241.5t258 92.5q299 0 246 -403l-78 -596h-45l78 595q8 72 8 126.5t-13 94.5t-30.5 66t-45 42t-56.5 22.5t-65 6.5q-77 0 -157.5 -39.5t-147 -105t-116 -156.5t-65.5 -189l-56 -463h-45zM383 1219q66 157 172 157q38 0 68 -16.5 t65 -48.5q3 -2 8 -7q25 -23 39 -34.5t37 -23t43 -11.5q36 0 70.5 32.5t58.5 95.5l37 -18q-31 -78 -75 -116.5t-90 -38.5q-21 0 -41 6.5t-43 23t-32.5 25t-34.5 30.5q-62 55 -109 55q-81 0 -135 -126z" />
<glyph unicode="&#xf2;" horiz-adv-x="1096" d="M95 405q0 119 36.5 226.5t101.5 189t163 130t214 48.5q179 0 285 -105.5t106 -297.5q0 -126 -36 -236t-100.5 -191.5t-161 -128.5t-211.5 -47q-181 0 -289 109t-108 303zM141 405q0 -172 94.5 -269t256.5 -97q134 0 239 69t164.5 196.5t59.5 291.5q0 171 -91 264t-254 93 q-134 0 -241.5 -71.5t-167.5 -196.5t-60 -280zM465 1425h61l193 -276h-57z" />
<glyph unicode="&#xf3;" horiz-adv-x="1096" d="M95 405q0 119 36.5 226.5t101.5 189t163 130t214 48.5q179 0 285 -105.5t106 -297.5q0 -126 -36 -236t-100.5 -191.5t-161 -128.5t-211.5 -47q-181 0 -289 109t-108 303zM141 405q0 -172 94.5 -269t256.5 -97q134 0 239 69t164.5 196.5t59.5 291.5q0 171 -91 264t-254 93 q-134 0 -241.5 -71.5t-167.5 -196.5t-60 -280zM631 1149l260 276h63l-263 -276h-60z" />
<glyph unicode="&#xf4;" horiz-adv-x="1096" d="M95 405q0 119 36.5 226.5t101.5 189t163 130t214 48.5q118 0 205.5 -46t136.5 -137.5t49 -219.5q0 -126 -36 -236t-100.5 -191.5t-161 -128.5t-211.5 -47q-181 0 -289 109t-108 303zM141 405q0 -172 94.5 -269t256.5 -97q134 0 239 69t164.5 196.5t59.5 291.5 q0 171 -91 264t-254 93q-134 0 -241.5 -71.5t-167.5 -196.5t-60 -280zM394 1147l252 270v2h1l6 6h47l196 -278h-57l-162 242h-3l-223 -242h-57z" />
<glyph unicode="&#xf5;" horiz-adv-x="1096" d="M95 405q0 119 36.5 226.5t101.5 189t163 130t214 48.5q179 0 285 -105.5t106 -297.5q0 -126 -36 -236t-100.5 -191.5t-161 -128.5t-211.5 -47q-181 0 -289 109t-108 303zM141 405q0 -172 94.5 -269t256.5 -97q134 0 239 69t164.5 196.5t59.5 291.5q0 171 -91 264t-254 93 q-134 0 -241.5 -71.5t-167.5 -196.5t-60 -280zM360 1219q66 157 172 157q26 0 51.5 -10t42 -22t39.5 -33q3 -2 8 -7q25 -23 39 -34.5t37 -23t43 -11.5q36 0 70.5 32.5t58.5 95.5l37 -18q-31 -78 -75 -116.5t-90 -38.5q-17 0 -35.5 6t-30.5 12t-32 21.5t-26 21t-27 24.5 q-62 55 -109 55q-81 0 -135 -126z" />
<glyph unicode="&#xf6;" horiz-adv-x="1096" d="M95 405q0 119 36.5 226.5t101.5 189t163 130t214 48.5q179 0 285 -105.5t106 -297.5q0 -126 -36 -236t-100.5 -191.5t-161 -128.5t-211.5 -47q-181 0 -289 109t-108 303zM141 405q0 -172 94.5 -269t256.5 -97q134 0 239 69t164.5 196.5t59.5 291.5q0 171 -91 264t-254 93 q-134 0 -241.5 -71.5t-167.5 -196.5t-60 -280zM481 1295q0 20 13 33.5t32 13.5t32 -13t13 -32q0 -20 -13.5 -33.5t-33.5 -13.5q-19 0 -31 12.5t-12 32.5zM752 1295q0 20 13 33.5t32 13.5t32 -13t13 -32q0 -20 -13.5 -33.5t-33.5 -13.5q-19 0 -31 12.5t-12 32.5z" />
<glyph unicode="&#xf7;" horiz-adv-x="1129" d="M167 543l5 45h848l-5 -45h-848zM509 171q0 20 13 33.5t32 13.5t32 -13t13 -32q0 -20 -13.5 -33.5t-33.5 -13.5q-19 0 -31 12.5t-12 32.5zM592 958q0 20 13 33.5t32 13.5t32 -13t13 -32q0 -20 -13.5 -33.5t-33.5 -13.5q-19 0 -31 12.5t-12 32.5z" />
<glyph unicode="&#xf8;" horiz-adv-x="1098" d="M41 5l132 135q-76 105 -76 265q0 119 36.5 226.5t101.5 189t163 130t214 48.5q186 0 291 -111l114 117l33 -29l-119 -122q72 -102 72 -258q0 -126 -36 -236t-100.5 -191.5t-161 -128.5t-211.5 -47q-185 0 -293 114l-125 -128zM143 405q0 -139 63 -231l665 681 q-92 98 -259 98q-134 0 -241.5 -71.5t-167.5 -196.5t-60 -280zM234 140q95 -101 260 -101q134 0 239 69t164.5 196.5t59.5 291.5q0 135 -59 224z" />
<glyph unicode="&#xf9;" horiz-adv-x="1050" d="M137 396l74 596h45l-74 -595q-7 -72 -6.5 -126.5t14.5 -94.5t32.5 -66t48 -42t61 -22.5t71.5 -6.5q71 0 144.5 39t134 104t105.5 155.5t61 187.5l57 467h45l-121 -992h-45l38 314h-3q-69 -145 -183 -233t-234 -88q-154 0 -222.5 96.5t-42.5 306.5zM400 1425h61l193 -276 h-57z" />
<glyph unicode="&#xfa;" horiz-adv-x="1050" d="M137 396l74 596h45l-74 -595q-7 -72 -6.5 -126.5t14.5 -94.5t32.5 -66t48 -42t61 -22.5t71.5 -6.5q71 0 144.5 39t134 104t105.5 155.5t61 187.5l57 467h45l-121 -992h-45l38 314h-3q-69 -145 -183 -233t-234 -88q-154 0 -222.5 96.5t-42.5 306.5zM555 1149l260 276h63 l-263 -276h-60z" />
<glyph unicode="&#xfb;" horiz-adv-x="1050" d="M137 396l74 596h45l-74 -595q-7 -72 -6.5 -126.5t14.5 -94.5t32.5 -66t48 -42t61 -22.5t71.5 -6.5q71 0 144.5 39t134 104t105.5 155.5t61 187.5l57 467h45l-121 -992h-45l38 314h-3q-69 -145 -183 -233t-234 -88q-154 0 -222.5 96.5t-42.5 306.5zM340 1147l252 270v2h1 l6 6h47l196 -278h-57l-162 242h-3l-223 -242h-57z" />
<glyph unicode="&#xfc;" horiz-adv-x="1050" d="M137 396l74 596h45l-74 -595q-7 -72 -6.5 -126.5t14.5 -94.5t32.5 -66t48 -42t61 -22.5t71.5 -6.5q71 0 144.5 39t134 104t105.5 155.5t61 187.5l57 467h45l-121 -992h-45l38 314h-3q-69 -145 -183 -233t-234 -88q-154 0 -222.5 96.5t-42.5 306.5zM427 1295q0 20 13 33.5 t32 13.5t32 -13t13 -32q0 -20 -13.5 -33.5t-33.5 -13.5q-19 0 -31 12.5t-12 32.5zM698 1295q0 10 3.5 18.5t9.5 15t14 10t18 3.5q20 0 32.5 -13t12.5 -32q0 -20 -13.5 -33.5t-33.5 -13.5q-19 0 -31 12.5t-12 32.5z" />
<glyph unicode="&#xfd;" horiz-adv-x="1042" d="M52 -335l14 47q140 -78 290 -78q65 0 118.5 12t108 46t95 89t72 146t46.5 213l21 175h-3q-70 -145 -184 -233.5t-234 -88.5q-154 0 -222.5 96.5t-42.5 306.5l74 596h45l-74 -595q-7 -72 -6.5 -126.5t14.5 -94.5t32.5 -66t48 -42t61 -22.5t71.5 -6.5q74 0 150 42 t137.5 111t105.5 164.5t56 196.5l54 439h45l-105 -857q-9 -73 -24 -136.5t-33.5 -113.5t-43 -91t-51 -71.5t-58 -54t-63 -38.5t-68 -24.5t-72 -13.5t-74.5 -4q-151 0 -301 77zM570 1149l260 276h63l-263 -276h-60z" />
<glyph unicode="&#xfe;" horiz-adv-x="1114" d="M65 -405l233 1913h45l-103 -839h3q32 70 74.5 128.5t96 104.5t120 71.5t139.5 25.5q108 0 187.5 -52.5t119 -141t39.5 -200.5q0 -125 -37 -236.5t-103.5 -195t-165.5 -132t-215 -48.5q-95 0 -184.5 34t-137.5 94h-3l-63 -526h-45zM181 185q22 -35 55 -62t67 -42.5 t73 -25.5t68.5 -13t56.5 -3q105 0 194.5 45.5t150 123t94 181t33.5 218.5q0 100 -33.5 177.5t-102.5 123t-165 45.5q-74 0 -142 -31t-121.5 -84.5t-96 -124t-68.5 -149.5t-36 -160l-21 -169z" />
<glyph unicode="&#xff;" horiz-adv-x="1042" d="M52 -335l14 47q140 -78 290 -78q65 0 118.5 12t108 46t95 89t72 146t46.5 213l21 175h-3q-70 -145 -184 -233.5t-234 -88.5q-154 0 -222.5 96.5t-42.5 306.5l74 596h45l-74 -595q-7 -72 -6.5 -126.5t14.5 -94.5t32.5 -66t48 -42t61 -22.5t71.5 -6.5q74 0 150 42 t137.5 111t105.5 164.5t56 196.5l54 439h45l-105 -857q-9 -74 -24 -137t-33.5 -113t-43 -91t-51 -71.5t-57.5 -54t-63 -38.5t-68.5 -24.5t-72 -13.5t-74.5 -4q-151 0 -301 77zM424 1295q0 20 13 33.5t32 13.5t32 -13t13 -32q0 -10 -3.5 -18.5t-10 -15t-15 -10t-18.5 -3.5 q-19 0 -31 12.5t-12 32.5zM695 1295q0 20 13 33.5t32.5 13.5t32 -13t12.5 -32q0 -20 -13.5 -33.5t-33.5 -13.5q-19 0 -31 12.5t-12 32.5z" />
<glyph unicode="&#x152;" horiz-adv-x="1752" d="M155 611q0 133 33.5 259t97 231.5t150.5 185t200 124t238 44.5h863l-5 -47h-713l-81 -656h599l-5 -47h-599l-81 -658h752l-5 -47h-891q-255 0 -404 164t-149 447zM203 611q0 -262 134.5 -412.5t371.5 -150.5h97l165 1359h-98q-98 0 -188 -29.5t-163 -82.5t-133 -127.5 t-101 -162t-63 -188.5t-22 -206z" />
<glyph unicode="&#x153;" horiz-adv-x="1512" d="M74 393q0 127 36 240t97 193t144.5 126.5t175.5 46.5q60 0 111 -21.5t89.5 -61.5t63.5 -98t34 -131h2q39 97 101 167t145.5 107.5t181.5 37.5q107 0 172.5 -57.5t65.5 -152.5q0 -285 -674 -402q3 -162 82 -255t212 -93q67 0 145.5 42.5t133.5 115.5l37 -28 q-39 -51 -92.5 -91.5t-112 -62.5t-111.5 -22q-135 0 -222.5 84t-108.5 231h-4q-55 -143 -156 -229t-229 -86q-141 0 -230 107t-89 293zM120 393q0 -167 75.5 -260.5t198.5 -93.5q99 0 184.5 64t140.5 179.5t65 258.5q9 125 -18.5 218t-89 143.5t-150.5 50.5 q-111 0 -204.5 -73.5t-147.5 -202.5t-54 -284zM820 434q80 14 150.5 30.5t144 39t131.5 51.5t104.5 63.5t71.5 78.5t25 94q0 38 -13.5 67.5t-34 47t-47 28.5t-50.5 15t-47 4q-125 0 -221 -66t-149.5 -178.5t-63.5 -258.5q0 -3 -0.5 -8.5t-0.5 -7.5z" />
<glyph unicode="&#x178;" horiz-adv-x="1036" d="M157 1455h52l332 -736h4l515 736h56l-554 -793l-81 -662h-47l81 662zM493 1786q0 20 13 33.5t32 13.5t32 -13t13 -32q0 -20 -13.5 -33.5t-33.5 -13.5q-12 0 -22 6t-15.5 16t-5.5 23zM764 1786q0 20 13 33.5t32 13.5t32 -12.5t13 -32.5t-13.5 -33.5t-33.5 -13.5 q-19 0 -31 12.5t-12 32.5z" />
<glyph unicode="&#x2c6;" horiz-adv-x="996" d="M323 1120l252 270v2h1l6 6h47l196 -278h-57l-162 242h-3l-223 -242h-57z" />
<glyph unicode="&#x2dc;" horiz-adv-x="988" d="M289 1193q66 157 172 157q38 0 68 -16.5t65 -48.5q3 -2 8 -7q25 -23 39 -34.5t37 -23t43 -11.5q36 0 70.5 32.5t58.5 95.5l37 -18q-31 -78 -75 -116.5t-90 -38.5q-15 0 -28.5 3t-29 11.5t-24 13t-26 19t-21.5 18t-22 20.5q-62 55 -109 55q-81 0 -135 -126z" />
<glyph unicode="&#x2000;" horiz-adv-x="963" />
<glyph unicode="&#x2001;" horiz-adv-x="1927" />
<glyph unicode="&#x2002;" horiz-adv-x="963" />
<glyph unicode="&#x2003;" horiz-adv-x="1927" />
<glyph unicode="&#x2004;" horiz-adv-x="642" />
<glyph unicode="&#x2005;" horiz-adv-x="481" />
<glyph unicode="&#x2006;" horiz-adv-x="321" />
<glyph unicode="&#x2007;" horiz-adv-x="321" />
<glyph unicode="&#x2008;" horiz-adv-x="240" />
<glyph unicode="&#x2009;" horiz-adv-x="385" />
<glyph unicode="&#x200a;" horiz-adv-x="107" />
<glyph unicode="&#x2010;" horiz-adv-x="779" d="M138 606l5 48h531l-5 -48h-531z" />
<glyph unicode="&#x2011;" horiz-adv-x="779" d="M138 606l5 48h531l-5 -48h-531z" />
<glyph unicode="&#x2012;" horiz-adv-x="779" d="M138 606l5 48h531l-5 -48h-531z" />
<glyph unicode="&#x2013;" horiz-adv-x="1204" d="M135 585l5 44h956l-5 -44h-956z" />
<glyph unicode="&#x2014;" horiz-adv-x="2160" d="M135 585l5 44h1912l-5 -44h-1912z" />
<glyph unicode="&#x2018;" horiz-adv-x="342" d="M191 1008l132 446h43l-120 -446h-55z" />
<glyph unicode="&#x2019;" horiz-adv-x="329" d="M171 1009l120 446h55l-132 -446h-43z" />
<glyph unicode="&#x201a;" horiz-adv-x="326" d="M-11 -262l120 446h56l-136 -446h-40z" />
<glyph unicode="&#x201c;" horiz-adv-x="500" d="M191 1008l132 446h43l-120 -446h-55zM349 1008l132 446h43l-120 -446h-55z" />
<glyph unicode="&#x201d;" horiz-adv-x="487" d="M171 1009l120 446h55l-132 -446h-43zM329 1009l120 446h55l-132 -446h-43z" />
<glyph unicode="&#x201e;" horiz-adv-x="478" d="M-1 -150l120 446h55l-132 -446h-43zM157 -150l120 446h55l-132 -446h-43z" />
<glyph unicode="&#x2022;" horiz-adv-x="783" d="M236 645q0 74 50.5 124t126.5 50q73 0 122 -48t49 -121q0 -76 -51 -126.5t-127 -50.5q-73 0 -121.5 49t-48.5 123z" />
<glyph unicode="&#x2026;" horiz-adv-x="2048" d="M236 38q0 20 13 33.5t32 13.5t32 -13t13 -32q0 -20 -13.5 -33.5t-33.5 -13.5q-19 0 -31 12.5t-12 32.5zM919 38q0 10 3.5 18.5t9.5 15t14 10t18 3.5q19 0 32 -13t13 -32q0 -20 -13.5 -33.5t-33.5 -13.5q-19 0 -31 12.5t-12 32.5zM1602 38q0 20 13 33.5t32 13.5t32 -13 t13 -32q0 -20 -13.5 -33.5t-33.5 -13.5q-19 0 -31 12.5t-12 32.5z" />
<glyph unicode="&#x202f;" horiz-adv-x="385" />
<glyph unicode="&#x2039;" horiz-adv-x="482" d="M80 499l300 469h46l-296 -469l181 -473h-45z" />
<glyph unicode="&#x203a;" horiz-adv-x="482" d="M57 26l297 473l-181 469h46l185 -469l-302 -473h-45z" />
<glyph unicode="&#x205f;" horiz-adv-x="481" />
<glyph unicode="&#x20ac;" horiz-adv-x="1088" d="M35 545l6 46h108q3 100 21 193h-106l6 47h110q30 122 86.5 224.5t133 176.5t175.5 115.5t208 41.5q194 0 332 -119l-31 -38q-123 110 -303 110q-100 0 -189.5 -38t-160 -106t-122 -161.5t-80.5 -205.5h621l-6 -47h-626q-18 -93 -21 -193h624l-6 -46h-618 q3 -124 37.5 -221.5t92 -158.5t131.5 -93t159 -32q188 0 343 116l23 -41q-167 -122 -368 -122q-93 0 -175 35t-146.5 101.5t-103 173.5t-41.5 242h-114z" />
<glyph unicode="&#x2122;" horiz-adv-x="1234" d="M151 1411l6 44h421l-6 -44h-190l-76 -619h-45l76 619h-186zM597 792l82 663h46l184 -465l300 465h45l-82 -663h-45l70 571l-278 -431h-33l-175 434l-70 -574h-44z" />
<glyph unicode="&#x25fc;" horiz-adv-x="990" d="M0 0v990h990v-990h-990z" />
</font>
</defs>
</svg>
