<?xml version="1.0" standalone="no"?>
<!DOCTYPE svg PUBLIC "-//W3C//DTD SVG 1.1//EN" "http://www.w3.org/Graphics/SVG/1.1/DTD/svg11.dtd" >
<svg xmlns="http://www.w3.org/2000/svg">
<metadata></metadata>
<defs>
<font id="averta-bolditalicuploadedfile" horiz-adv-x="1151" >
<font-face units-per-em="2048" ascent="1603" descent="-445" />
<missing-glyph horiz-adv-x="404" />
<glyph horiz-adv-x="0" />
<glyph unicode="&#xd;" horiz-adv-x="682" />
<glyph unicode=" "  horiz-adv-x="404" />
<glyph unicode="&#x09;" horiz-adv-x="404" />
<glyph unicode="&#xa0;" horiz-adv-x="404" />
<glyph unicode="!" horiz-adv-x="584" d="M109 142q0 71 47.5 117.5t119.5 46.5q69 0 115 -45t46 -114q0 -71 -47.5 -117.5t-119.5 -46.5q-70 0 -115.5 45.5t-45.5 113.5zM209 474l80 1034h282l-174 -1034h-188z" />
<glyph unicode="&#x22;" horiz-adv-x="821" d="M121 925l121 530h268l-188 -530h-201zM487 925l121 530h269l-189 -530h-201z" />
<glyph unicode="#" horiz-adv-x="1218" d="M50 299l24 193h219l73 288h-209l23 193h241l94 370h179l-95 -370h241l95 370h178l-94 -370h197l-25 -193h-226l-73 -288h217l-25 -193h-247l-99 -387h-179l100 387h-241l-100 -387h-180l101 387h-189zM471 492h243l71 288h-240z" />
<glyph unicode="$" horiz-adv-x="1097" d="M60 224l196 175q41 -80 112 -123t149 -43q88 0 144.5 44t55.5 109q0 12 -2.5 23t-8.5 21t-12.5 18.5t-18.5 18t-22.5 16.5t-28.5 18t-32.5 19t-38 21.5t-41.5 24.5q-131 78 -160 98q-131 94 -162 210q-11 42 -11 89q0 83 29.5 154.5t81 122.5t121.5 84t151 43l30 240h216 l-32 -257q166 -50 263 -185l-193 -166q-89 127 -229 127q-67 0 -111.5 -38t-42.5 -95q1 -24 10 -44t32 -41t50.5 -40t75.5 -48q26 -16 68 -39.5t68 -38.5t61 -38t57 -41.5t46 -45.5t37.5 -54.5t22.5 -63t9 -75.5q0 -94 -29 -171.5t-81.5 -131t-123.5 -87t-157 -44.5 l-27 -223h-216l28 232q-105 22 -192 79.5t-142 145.5z" />
<glyph unicode="%" horiz-adv-x="2056" d="M154 1034q0 121 56 221t152 156t211 56q107 0 193 -46.5t135.5 -132.5t49.5 -196q0 -63 -15 -121.5t-42.5 -106t-66.5 -87t-85.5 -66.5t-101 -41.5t-112.5 -14.5q-106 0 -191 47.5t-134 134.5t-49 197zM363 1037q0 -87 49 -139.5t125 -52.5q56 0 102.5 29t75 84.5 t28.5 126.5q0 86 -50 139t-127 53q-83 0 -143 -68.5t-60 -171.5zM575 42l758 1448l195 -91l-758 -1446zM1158 362q0 121 56 220.5t152 156t211 56.5q108 0 194 -46.5t135.5 -132.5t49.5 -196q0 -76 -21.5 -144.5t-60.5 -121t-91.5 -91.5t-116.5 -59.5t-134 -20.5 q-106 0 -191 47.5t-134 134.5t-49 197zM1367 365q0 -86 49 -139t124 -53q87 0 147 66.5t60 173.5q0 86 -50 139t-127 53q-41 0 -78 -18t-64.5 -49.5t-44 -76.5t-16.5 -96z" />
<glyph unicode="&#x26;" horiz-adv-x="1506" d="M77 369q0 141 76 264t213 186q-96 91 -96 220q0 125 59.5 225t160 154t221.5 54q322 0 396 -301l-226 -72q-10 64 -47 105t-108 41q-87 1 -139.5 -52.5t-52.5 -146.5q0 -54 35 -91t98 -37h838l-28 -232h-303q-21 -156 -75.5 -283t-141 -221.5t-211.5 -146.5t-278 -52 q-172 0 -281.5 106t-109.5 280zM347 395q0 -79 44.5 -125.5t118.5 -46.5q68 0 130 26t109 70.5t84.5 104t61.5 126t36 136.5h-291q-64 0 -120 -27t-93 -69t-58.5 -93.5t-21.5 -101.5z" />
<glyph unicode="'" horiz-adv-x="454" d="M121 925l121 530h268l-188 -530h-201z" />
<glyph unicode="(" horiz-adv-x="620" d="M107 325q0 -371 128 -650l208 95q-97 275 -97 589q0 285 78.5 571.5t222.5 517.5l-177 78q-174 -236 -268.5 -555.5t-94.5 -645.5z" />
<glyph unicode=")" horiz-adv-x="621" d="M1 -239l177 -77q177 249 269.5 560.5t92.5 639.5q0 382 -132 651l-206 -96q98 -268 98 -588q0 -280 -77.5 -565.5t-221.5 -524.5z" />
<glyph unicode="*" horiz-adv-x="781" d="M153 1024l169 95l-148 99l96 138l139 -114l19 213h159l-37 -213l164 112l67 -136l-171 -97l148 -97l-96 -138l-135 113l-22 -213h-160l36 213l-162 -113z" />
<glyph unicode="+" horiz-adv-x="1102" d="M106 453l28 229h323l46 371h230l-45 -371h324l-29 -229h-324l-44 -369h-231l45 369h-323z" />
<glyph unicode="," horiz-adv-x="492" d="M-40 -271l121 529h266l-199 -529h-188z" />
<glyph unicode="-" horiz-adv-x="773" d="M106 510l30 245h563l-31 -245h-562z" />
<glyph unicode="." horiz-adv-x="559" d="M72 142q0 71 47.5 117.5t119.5 46.5q69 0 115 -45t46 -114q0 -71 -47.5 -117.5t-119.5 -46.5q-46 0 -83 20.5t-57.5 57t-20.5 81.5z" />
<glyph unicode="/" horiz-adv-x="798" d="M-149 -138l916 1748l176 -91l-913 -1747z" />
<glyph unicode="0" horiz-adv-x="1206" d="M118 532q0 97 12 191t37 182.5t60.5 166t85 142.5t109 111.5t134 72t157.5 25.5q203 0 313.5 -141t110.5 -409q0 -138 -24 -267.5t-73 -242.5t-118 -197.5t-165.5 -133.5t-209.5 -49q-203 0 -316 141t-113 408zM393 515q0 -54 7 -99t20.5 -78.5t33 -57t45.5 -35t58 -11.5 q53 0 98.5 28.5t78 78.5t58 114t40.5 138t22.5 148.5t7.5 147.5q0 283 -166 283q-53 0 -98.5 -29t-77.5 -79.5t-57 -115.5t-40 -139.5t-22.5 -148t-7.5 -145.5z" />
<glyph unicode="1" horiz-adv-x="810" d="M105 1104l428 302h215l-173 -1406h-271l130 1052l-210 -155z" />
<glyph unicode="2" horiz-adv-x="1019" d="M24 0l18 178l436 468q39 41 64.5 70.5t59 73t53 79.5t33.5 80.5t14 85.5q0 61 -32.5 99.5t-90.5 38.5q-62 0 -127.5 -41.5t-109.5 -117.5l-189 147q67 115 190.5 188.5t267.5 73.5q101 0 183 -42t132 -125t50 -193q0 -143 -70.5 -271.5t-204.5 -266.5l-265 -273l-1 -7 h456l-31 -245h-836z" />
<glyph unicode="3" horiz-adv-x="1040" d="M23 302l254 89q24 -163 161 -163q65 0 115 31t76 85.5t26 123.5q0 144 -163 144h-99l28 221h84q48 0 88 20t64 52.5t37 70t13 75.5q0 58 -34 92.5t-90 34.5q-124 0 -198 -129l-213 125q58 113 174.5 181t257.5 68q107 0 189 -35.5t130 -109t48 -176.5q0 -121 -53 -218 t-147 -153l-1 -6q159 -83 159 -286q0 -137 -64 -241.5t-174 -159.5t-247 -55q-170 0 -280 88t-141 231z" />
<glyph unicode="4" horiz-adv-x="1087" d="M23 232l20 173l694 1001h216l-115 -942h175l-29 -232h-175l-29 -232h-265l28 232h-520zM348 448h244l62 478z" />
<glyph unicode="5" horiz-adv-x="1059" d="M24 219l216 148q29 -67 78.5 -102.5t113.5 -35.5q114 0 184 81.5t70 201.5q0 42 -11 74.5t-31.5 54t-50 33t-67.5 11.5q-100 0 -205 -77l-147 56l131 742h701l-30 -244h-465l-47 -280q96 24 159 24q154 0 245 -100t91 -274q0 -120 -39 -222.5t-108 -174.5t-165 -112.5 t-208 -40.5q-138 0 -243.5 60t-171.5 177z" />
<glyph unicode="6" horiz-adv-x="1121" d="M101 431q0 140 35.5 275t104 253.5t163.5 216.5t219 170t265 108l47 -224q-378 -142 -506 -419l3 -2q130 91 281 91q61 0 116 -23t99 -66.5t70 -114t26 -158.5q0 -119 -36 -220.5t-102 -176t-164 -116.5t-216 -42q-87 0 -161 29.5t-128.5 85.5t-85 141.5t-30.5 191.5z M359 453q0 -105 44.5 -165.5t117.5 -60.5q100 0 168.5 82t68.5 205q0 75 -40.5 116.5t-117.5 41.5q-58 0 -124.5 -36t-112.5 -92q-4 -40 -4 -91z" />
<glyph unicode="7" horiz-adv-x="923" d="M81 19l534 1144h-487l31 243h788l-20 -176l-575 -1260z" />
<glyph unicode="8" horiz-adv-x="1088" d="M65 321q0 143 73 261t200 174v4q-53 27 -89 88.5t-36 147.5q0 185 129 305.5t327 120.5q71 0 132.5 -19.5t109.5 -56.5t75.5 -95.5t27.5 -131.5q0 -115 -52.5 -209t-142.5 -141v-4q82 -31 132 -107.5t50 -188.5q0 -150 -68.5 -261t-188.5 -167.5t-277 -56.5 q-181 0 -291.5 90.5t-110.5 246.5zM340 391q0 -80 43 -127.5t119 -47.5q95 0 160 69.5t65 173.5q0 80 -43.5 127.5t-122.5 47.5q-95 0 -158 -73t-63 -170zM463 1006q0 -60 35.5 -98t92.5 -38q72 0 121.5 56.5t49.5 138.5q0 61 -34 96.5t-97 35.5q-71 0 -119.5 -55.5 t-48.5 -135.5z" />
<glyph unicode="9" horiz-adv-x="1112" d="M137 859q0 122 40.5 227.5t110.5 179t167.5 115.5t208.5 42q180 0 288 -120.5t108 -330.5q0 -186 -58.5 -357t-162 -305t-252 -228.5t-321.5 -130.5l-45 216q177 52 303 157.5t195 251.5l-4 2q-118 -75 -254 -75q-69 0 -127.5 23t-102.5 66.5t-69 112t-25 154.5zM402 904 q0 -56 18 -94.5t54 -58t89 -19.5q63 0 124 35.5t107 92.5q4 40 4 91q0 55 -11 98t-32 71.5t-51.5 43.5t-69.5 15q-101 0 -166.5 -77.5t-65.5 -197.5z" />
<glyph unicode=":" horiz-adv-x="570" d="M83 142q0 71 47.5 117.5t119.5 46.5q69 0 115 -45t46 -114q0 -71 -47.5 -117.5t-119.5 -46.5q-70 0 -115.5 45.5t-45.5 113.5zM174 853q0 71 47.5 117.5t119.5 46.5q69 0 115 -45t46 -114q0 -71 -47.5 -117.5t-119.5 -46.5q-46 0 -83 20.5t-57.5 57t-20.5 81.5z" />
<glyph unicode=";" horiz-adv-x="521" d="M-19 -271l121 529h266l-199 -529h-188zM136 853q0 71 47.5 117.5t119.5 46.5q69 0 115 -45t46 -114q0 -46 -21.5 -83.5t-60 -59t-85.5 -21.5q-46 0 -83 20.5t-57.5 57t-20.5 81.5z" />
<glyph unicode="&#x3c;" horiz-adv-x="1113" d="M112 466l21 187l915 418l-29 -252l-555 -257l490 -260l-29 -246z" />
<glyph unicode="=" horiz-adv-x="1140" d="M123 219l28 229h878l-29 -229h-877zM188 687l28 229h878l-29 -229h-877z" />
<glyph unicode="&#x3e;" horiz-adv-x="1115" d="M81 56l28 246l557 260l-491 257l29 252l813 -418l-21 -187z" />
<glyph unicode="?" horiz-adv-x="897" d="M132 1332l165 -164q83 108 184 108q58 0 90.5 -36.5t32.5 -104.5q0 -39 -10.5 -74.5t-33 -70t-44 -60t-55.5 -62.5q-6 -6 -17 -18q-37 -39 -54.5 -58.5t-44 -52.5t-39 -56.5t-24 -55t-15.5 -63.5l-10 -94h235l18 93q4 22 16 44.5t24.5 40.5t37 44t41 42t49.5 47 q47 43 82.5 84.5t68 93.5t50 112t17.5 124q0 81 -28 145t-76.5 104t-110.5 60.5t-133 20.5q-124 0 -236.5 -51.5t-179.5 -141.5zM189 142q0 71 47.5 117.5t119.5 46.5q69 0 115 -45t46 -114q0 -71 -47.5 -117.5t-119.5 -46.5q-46 0 -83 20.5t-57.5 57t-20.5 81.5z" />
<glyph unicode="@" horiz-adv-x="1842" d="M97 469q0 82 16 167t51.5 172t87 166t126.5 148.5t165.5 120.5t209.5 80.5t253 29.5q174 0 316.5 -56t238 -155t147.5 -235.5t52 -296.5q0 -33 -3.5 -68t-12 -75t-21 -78t-32.5 -76.5t-45 -72t-60 -63t-75.5 -50t-93 -32.5t-112.5 -12q-94 0 -161.5 45.5t-88.5 129.5h-3 q-108 -154 -291 -154q-59 0 -110 22.5t-90 64.5t-61.5 108.5t-22.5 149.5q0 110 33 207t90 166t135 108.5t165 39.5q139 0 214 -77h4l8 64h248l-66 -532q-9 -76 5.5 -111t71.5 -35q41 0 76.5 34.5t57.5 86t34 107t12 102.5q0 117 -39 219.5t-109.5 179.5t-176.5 121.5 t-234 44.5q-118 0 -222 -29.5t-181 -81t-138 -120t-99 -148t-57.5 -162t-19.5 -165.5q0 -131 45.5 -242.5t122.5 -186t179 -116.5t215 -42q220 0 427 106l82 -137q-110 -73 -241 -112.5t-268 -39.5q-162 0 -300.5 54t-239 152t-157.5 243.5t-57 321.5zM730 473 q0 -72 33 -108t80 -36q81 0 153 84.5t93 211.5l8 66q-67 54 -158 54q-59 0 -108 -41t-75 -103t-26 -128z" />
<glyph unicode="A" horiz-adv-x="1323" d="M-22 0l661 1455h279l304 -1455h-289l-52 296h-484l-125 -296h-294zM497 535h342l-99 566h-5z" />
<glyph unicode="B" horiz-adv-x="1242" d="M109 0l179 1455h487q198 0 293 -73t95 -227q0 -119 -60 -222.5t-167 -154.5v-4q209 -64 209 -291q0 -141 -57 -250t-167 -171t-256 -62h-556zM416 246h182q116 0 188.5 70t72.5 174q0 70 -46.5 105t-144.5 35h-205zM490 858h171q93 0 155.5 66t62.5 165q0 61 -42 89.5 t-130 28.5h-174z" />
<glyph unicode="C" horiz-adv-x="1377" d="M127 592q0 144 34.5 276.5t101.5 241.5t158.5 190.5t211.5 126.5t255 45q46 0 90.5 -7t89.5 -21.5t88.5 -38.5t84.5 -57t79.5 -78.5t72.5 -101.5l-230 -165q-107 204 -289 204q-81 0 -154 -33.5t-127 -92t-94 -135.5t-60 -166t-20 -181q0 -166 81.5 -258.5t230.5 -92.5 q89 0 176 44.5t149 120.5l202 -181q-104 -116 -244 -182.5t-298 -66.5q-127 0 -233.5 39t-186 113.5t-124.5 191.5t-45 265z" />
<glyph unicode="D" horiz-adv-x="1403" d="M109 0l179 1455h445q195 0 330.5 -74.5t201 -208.5t65.5 -321q0 -190 -54 -347.5t-152.5 -269t-244.5 -173t-325 -61.5h-445zM416 249h168q106 0 193.5 45.5t145 126t88.5 190.5t31 238q0 168 -85.5 262t-250.5 94h-173z" />
<glyph unicode="E" horiz-adv-x="1160" d="M108 0l179 1455h848l-31 -250h-573l-45 -360h459l-31 -247h-458l-42 -349h612l-31 -249h-887z" />
<glyph unicode="F" horiz-adv-x="1136" d="M109 0l179 1455h879l-31 -250h-603l-50 -399h502l-31 -250h-501l-68 -556h-276z" />
<glyph unicode="G" horiz-adv-x="1431" d="M126 590q0 144 35.5 277.5t102.5 242.5t158.5 190.5t209.5 126.5t248 45q159 0 288.5 -64.5t209.5 -191.5l-223 -167q-23 37 -52.5 66t-65 50.5t-79 32.5t-91.5 11q-97 0 -181 -49.5t-142 -132t-91 -193.5t-33 -232q0 -173 82.5 -268t232.5 -95q135 0 265 86l30 224h-277 l30 241h549l-73 -629q-99 -81 -244 -129.5t-294 -48.5q-128 0 -235.5 38t-188.5 112t-126 191t-45 266z" />
<glyph unicode="H" horiz-adv-x="1413" d="M109 0l179 1455h280l-79 -635h513l78 635h280l-179 -1455h-280l71 571h-513l-70 -571h-280z" />
<glyph unicode="I" horiz-adv-x="641" d="M118 0l179 1455h281l-179 -1455h-281z" />
<glyph unicode="J" horiz-adv-x="983" d="M14 176l187 190q65 -117 153 -117q38 0 68.5 14.5t57.5 48t46.5 92.5t30.5 143l112 908h280l-112 -915q-35 -277 -149 -417t-331 -140q-105 0 -196.5 50t-146.5 143z" />
<glyph unicode="K" horiz-adv-x="1283" d="M109 0l179 1455h278l-76 -617h6l504 617h355l-560 -641l394 -814h-336l-263 571h-7l-148 -170l-48 -401h-278z" />
<glyph unicode="L" horiz-adv-x="1104" d="M109 0l179 1455h279l-148 -1206h573l-31 -249h-852z" />
<glyph unicode="M" horiz-adv-x="1681" d="M109 0l179 1455h290l278 -818h3l474 818h295l-179 -1455h-278l109 890h-3l-368 -614h-187l-221 631h-3l-111 -907h-278z" />
<glyph unicode="N" horiz-adv-x="1457" d="M109 0l179 1455h288l426 -980h4l121 980h277l-179 -1455h-295l-422 961h-3l-118 -961h-278z" />
<glyph unicode="O" horiz-adv-x="1551" d="M127 597q0 137 34.5 267t102 240t159 192.5t212.5 129t257 46.5q131 0 240 -41.5t186 -119t119.5 -193t42.5 -258.5q0 -142 -33 -272.5t-98.5 -240.5t-156.5 -191.5t-214 -127t-265 -45.5q-132 0 -240.5 41.5t-185 119t-118.5 193.5t-42 260zM416 609q0 -180 85.5 -273.5 t232.5 -93.5q98 0 184 50t145 133.5t92.5 194t33.5 229.5q0 180 -87 272t-239 92q-77 0 -147 -33.5t-124 -91.5t-94 -134t-61 -165t-21 -180z" />
<glyph unicode="P" horiz-adv-x="1205" d="M109 0l179 1455h497q106 0 184 -27.5t125.5 -80t70.5 -124.5t23 -165q0 -258 -150 -407t-428 -149h-163l-62 -502h-276zM477 750h160q122 0 192 76.5t70 215.5q0 78 -50 121.5t-130 43.5h-185z" />
<glyph unicode="Q" horiz-adv-x="1580" d="M127 597q0 137 34.5 267t102 239.5t159 192t212.5 129t257 46.5q131 0 240 -41.5t186 -119t119.5 -192.5t42.5 -258q0 -164 -43.5 -312t-127.5 -264l128 -138l-169 -190l-136 152q-182 -125 -419 -125q-132 0 -240.5 41.5t-185 119t-118.5 193.5t-42 260zM416 609 q0 -180 85.5 -273.5t232.5 -93.5q116 0 215 69l-111 124l166 180l105 -113q80 157 80 347q0 180 -87 271.5t-239 91.5q-77 0 -147 -33t-124 -91.5t-94 -134.5t-61 -164.5t-21 -179.5z" />
<glyph unicode="R" horiz-adv-x="1272" d="M109 0l179 1455h508q85 0 152 -18t113.5 -51.5t77.5 -83t45.5 -110t14.5 -134.5q0 -185 -81 -317.5t-235 -193.5v-3l253 -544h-316l-218 502h-155l-62 -502h-276zM477 750h171q120 0 191 78t71 214q0 52 -23.5 90t-64 56.5t-93.5 18.5h-195z" />
<glyph unicode="S" horiz-adv-x="1146" d="M42 234l203 182q45 -86 123 -133t162 -47q98 0 162 51q63 50 63 123q0 21 -4.5 36.5t-16.5 30.5t-23 25.5t-34.5 26t-40 25t-51.5 29.5t-57 33q-12 7 -35 20l-54 32q-18 10 -50.5 31t-50.5 35t-45 37t-42 42t-33 45.5t-27 52.5t-15.5 58.5t-6.5 67.5q0 98 38 180.5 t103.5 137.5t154 86t188.5 31q127 0 243 -56.5t191 -159.5l-199 -172q-100 139 -250 139q-81 -1 -131 -45q-48 -43 -48 -103q0 -57 43 -99q41 -40 148 -101q26 -16 65.5 -38t65.5 -37t60.5 -35.5t57 -38.5t48.5 -41t42 -46.5t30.5 -52.5t21 -62.5t6.5 -71.5q0 -113 -39 -203 t-108.5 -147.5t-161.5 -88t-200 -30.5q-101 0 -195 28.5t-172 85.5t-129 137z" />
<glyph unicode="T" horiz-adv-x="1119" d="M150 1205l30 250h992l-30 -250h-357l-148 -1205h-279l149 1205h-357z" />
<glyph unicode="U" horiz-adv-x="1376" d="M157 497q0 65 9 137l101 821h279l-102 -821q-7 -57 -7 -117q0 -272 210 -272q132 0 210.5 84t102.5 277l104 849h279l-105 -853q-40 -324 -189 -471.5t-418 -147.5q-121 0 -212.5 36t-148.5 104t-85 161.5t-28 212.5z" />
<glyph unicode="V" horiz-adv-x="1312" d="M168 1455h296l180 -1044h6l426 1044h313l-661 -1455h-255z" />
<glyph unicode="W" horiz-adv-x="1936" d="M175 1455h291l128 -973h4l335 973h306l95 -966h4l361 966h299l-589 -1455h-268l-109 988h-4l-355 -988h-266z" />
<glyph unicode="X" horiz-adv-x="1341" d="M-6 0l515 736l-319 719h315l215 -511h5l328 511h337l-500 -730l332 -725h-326l-221 516h-4l-349 -516h-328z" />
<glyph unicode="Y" horiz-adv-x="1197" d="M140 1455h307l193 -546h6l321 546h328l-540 -815l-80 -640h-281l80 640z" />
<glyph unicode="Z" horiz-adv-x="1198" d="M50 0l25 218l735 979l1 8h-591l31 250h946l-23 -214l-751 -985l-1 -7h629l-32 -249h-969z" />
<glyph unicode="[" horiz-adv-x="689" d="M32 -303l222 1805h456l-23 -196h-232l-174 -1412h232l-25 -197h-456z" />
<glyph unicode="\" horiz-adv-x="821" d="M107 1519l203 90l488 -1748l-204 -89z" />
<glyph unicode="]" horiz-adv-x="692" d="M2 -303l25 197h236l173 1412h-236l24 196h461l-221 -1805h-462z" />
<glyph unicode="^" horiz-adv-x="903" d="M171 1023l301 432h186l199 -432h-212l-94 265l-170 -265h-210z" />
<glyph unicode="_" horiz-adv-x="985" d="M-94 -231l21 175h995l-22 -175h-994z" />
<glyph unicode="`" horiz-adv-x="922" d="M294 1398l275 -1l168 -299h-252z" />
<glyph unicode="a" d="M74 391q0 124 36 238t99 199.5t154 137t194 51.5q162 0 254 -95h4l9 78h260l-123 -1000h-260l24 189h-4q-61 -98 -142 -152t-169 -54q-83 0 -148 31.5t-105.5 87.5t-61.5 129t-21 160zM337 398q0 -56 16.5 -98t48 -64.5t75.5 -22.5q47 0 95 30.5t90.5 85.5t75.5 140.5 t48 186.5l5 40q-40 41 -93.5 64t-107.5 23q-58 0 -107 -35t-80 -90.5t-48.5 -123.5t-17.5 -136z" />
<glyph unicode="b" horiz-adv-x="1166" d="M88 93l174 1415h260l-82 -671h4q133 181 314 181q82 0 146.5 -33t104.5 -91t61 -134t21 -165q0 -98 -22 -187.5t-69 -167.5t-114 -135t-162.5 -90t-209.5 -33q-241 0 -426 111zM361 234q67 -18 137 -18q45 0 85.5 10.5t73.5 30t61 47t48.5 61t34.5 72t21 80.5t7 86 q0 76 -38.5 128t-103.5 52q-109 0 -199.5 -124.5t-115.5 -334.5z" />
<glyph unicode="c" horiz-adv-x="1004" d="M77 413q0 81 16.5 157t48 143t78.5 123t106 96t133 62.5t156 22.5q120 0 214.5 -43.5t149.5 -125.5l-201 -151q-56 86 -173 86q-77 0 -138 -48.5t-94.5 -129t-33.5 -176.5q0 -57 14.5 -99.5t40 -66t54 -34.5t61.5 -11q112 0 204 103l203 -137q-83 -99 -185.5 -149.5 t-235.5 -50.5q-195 0 -306.5 110.5t-111.5 318.5z" />
<glyph unicode="d" horiz-adv-x="1159" d="M76 391q0 124 36 238t99 199.5t154 137t194 51.5q162 0 259 -96h4l72 587h260l-186 -1508h-260l23 188h-4q-62 -97 -143.5 -151t-171.5 -54q-83 0 -148 31.5t-105.5 87.5t-61.5 129t-21 160zM339 398q0 -56 16.5 -98t48 -64.5t75.5 -22.5q48 0 97.5 30.5t92 85t76 139 t48.5 185.5l6 49q-75 81 -207 81q-58 0 -107 -35t-80 -90.5t-48.5 -123.5t-17.5 -136z" />
<glyph unicode="e" horiz-adv-x="986" d="M76 405q0 97 23 188t68.5 167.5t109 134t150 90t185.5 32.5q64 0 122 -18t105 -51.5t74.5 -87t27.5 -120.5q0 -59 -23 -111t-65 -92t-97 -73t-123.5 -56.5t-140.5 -40t-152 -27.5l-3 -2q12 -43 38.5 -72.5t59 -43t68.5 -13.5q40 0 75 11t67.5 34t65.5 60l199 -130 q-87 -102 -185 -151t-237 -49q-192 0 -302 111.5t-110 309.5zM342 536l2 -2q342 50 342 187q0 32 -23.5 50.5t-66.5 18.5q-82 0 -154.5 -66t-99.5 -188z" />
<glyph unicode="f" horiz-adv-x="671" d="M99 0l96 784h-90l26 216h91l24 191q20 165 101 249.5t216 84.5t231 -71l-68 -203q-61 43 -117 43q-30 0 -50 -11.5t-36 -47t-23 -97.5l-17 -138h182l-27 -216h-183l-96 -784h-260z" />
<glyph unicode="g" horiz-adv-x="1147" d="M53 -325l83 213q132 -82 266 -82q53 0 93 8t78.5 30t65 60t47 99.5t31.5 146.5l9 74h-3q-63 -99 -144 -154t-170 -55q-83 0 -148 31.5t-105.5 86t-61.5 126t-21 154.5q0 92 22.5 181.5t66 165.5t102 134t134 91t158.5 33q160 0 251 -93h5l10 75h259l-107 -874 q-16 -130 -55 -228t-91 -158t-123 -97t-143.5 -51t-159.5 -14q-194 0 -349 97zM336 423q0 -83 37 -130.5t103 -47.5q47 0 96 31t91 85t75 134t47 172l3 31q-40 40 -93 63t-106 23q-57 0 -106.5 -34.5t-80.5 -88.5t-48.5 -116.5t-17.5 -121.5z" />
<glyph unicode="h" horiz-adv-x="1144" d="M81 0l185 1508h259l-82 -670h5q146 179 349 179q151 0 209 -101q40 -68 40 -186q0 -56 -9 -123l-82 -607h-259l76 567q8 55 8 96q0 12 -1 23q-3 48 -24 72t-63 24t-90.5 -30.5t-92.5 -82.5t-78.5 -132.5t-45.5 -171.5l-45 -365h-259z" />
<glyph unicode="i" horiz-adv-x="545" d="M81 0l123 1000h259l-123 -1000h-259zM211 1301q0 71 48 117.5t121 46.5q71 0 117 -45t46 -114q0 -46 -21.5 -83.5t-60.5 -59t-87 -21.5q-71 0 -117 45t-46 114z" />
<glyph unicode="j" horiz-adv-x="509" d="M-208 -374l65 202q39 -29 86 -29t71 41.5t36 139.5l125 1020h261l-130 -1057q-44 -364 -318 -364q-64 0 -108 11.5t-88 35.5zM182 1305q0 35 12.5 65.5t35 52t54 34t67.5 12.5q71 0 117 -45t46 -114q0 -46 -21.5 -83.5t-60.5 -59t-87 -21.5q-47 0 -84 20.5t-58 57 t-21 81.5z" />
<glyph unicode="k" horiz-adv-x="1066" d="M77 0l185 1508h259l-120 -985h5q146 94 229 213t123 264h267q-57 -284 -289 -508l41 -115q19 -54 38 -88t42 -54t46.5 -29t58.5 -15l-67 -205q-29 -3 -66 -3q-39 0 -70.5 9t-57.5 29t-46 43.5t-39.5 60.5t-34 71.5t-33.5 85.5l-16 46h-4q-79 -50 -164 -89l-28 -239h-259z " />
<glyph unicode="l" horiz-adv-x="542" d="M89 0l185 1508h260l-185 -1508h-260z" />
<glyph unicode="m" horiz-adv-x="1696" d="M77 0l123 1000h259l-20 -159h5q138 176 326 176q184 0 227 -171h7q138 171 344 171q152 0 210 -102q39 -69 38 -186q0 -57 -9 -127l-81 -602h-259l75 567q7 54 7 94q1 43 -7 69q-16 52 -70 52q-34 0 -76.5 -29.5t-84 -80.5t-75 -129.5t-46.5 -166.5l-50 -376h-259l76 567 q7 53 7 92q0 44 -8 71q-16 52 -70 52q-33 0 -76.5 -30t-86 -81.5t-76.5 -131t-45 -168.5l-46 -371h-259z" />
<glyph unicode="n" horiz-adv-x="1139" d="M77 0l123 1000h260l-20 -162h5q144 179 348 179q151 0 209 -101q40 -68 40 -186q0 -56 -9 -123l-81 -607h-259l76 567q7 52 7 90q0 45 -10 73q-18 52 -78 52q-41 0 -89 -30t-92 -81.5t-78.5 -131t-45.5 -168.5l-46 -371h-260z" />
<glyph unicode="o" horiz-adv-x="1115" d="M74 408q0 97 23 187.5t69.5 167t110.5 133.5t150.5 89t186.5 32q195 0 310.5 -110t115.5 -309q0 -102 -21.5 -193t-66.5 -168.5t-108.5 -134t-153 -88t-195.5 -31.5q-128 0 -222.5 49.5t-146.5 146t-52 229.5zM336 431q0 -99 47.5 -156.5t124.5 -57.5q79 0 141 49.5 t94.5 131.5t32.5 180q0 49 -12 87t-30.5 59.5t-43.5 35.5t-47.5 18.5t-46.5 4.5q-77 0 -137.5 -52t-91.5 -131.5t-31 -168.5z" />
<glyph unicode="p" horiz-adv-x="1166" d="M26 -405l173 1405h260l-22 -176h5q129 193 329 193q78 0 139.5 -32.5t100.5 -88.5t59.5 -129t20.5 -157q0 -124 -36 -238.5t-99.5 -200t-155.5 -137t-198 -51.5q-160 0 -253 82h-6l-57 -470h-260zM368 300q50 -84 187 -84q62 0 114.5 33t86.5 88t53 125.5t19 147.5 q0 73 -34.5 123.5t-97.5 50.5q-51 0 -102 -30.5t-95 -86.5t-77.5 -141.5t-48.5 -188.5z" />
<glyph unicode="q" d="M73 391q0 124 36 238t99 199.5t154 137t194 51.5q159 0 252 -93h6l9 76h260l-172 -1405h-260l73 592h-5q-62 -97 -142.5 -150.5t-167.5 -53.5q-83 0 -148 31.5t-105.5 87.5t-61.5 129t-21 160zM336 398q0 -86 37 -135.5t103 -49.5q48 0 97 32t92.5 89.5t76 147 t45.5 194.5v-5l3 25q-40 41 -93.5 64t-107.5 23q-58 0 -107 -35t-80 -90.5t-48.5 -123.5t-17.5 -136z" />
<glyph unicode="r" horiz-adv-x="734" d="M77 0l123 1000h260l-21 -167h2q134 182 314 184l-36 -292q-33 8 -63 8q-94 0 -161 -75q-89 -99 -113 -294l-45 -364h-260z" />
<glyph unicode="s" horiz-adv-x="877" d="M16 154l158 160q43 -55 103 -87.5t120 -32.5q56 0 92.5 21.5t36.5 58.5q0 30 -28.5 50.5t-109.5 58.5q-21 10 -33 16q-46 22 -81.5 44t-67 49.5t-52.5 57.5t-33 68t-12 81q0 93 48.5 166.5t129.5 112.5t178 39q101 0 195.5 -37.5t158.5 -112.5l-165 -162 q-39 52 -89.5 75.5t-98.5 24.5q-44 0 -72.5 -21.5t-28.5 -57.5q0 -33 37.5 -62t115.5 -68q30 -14 50 -25t47 -26t45.5 -29t39.5 -31.5t34.5 -36t25 -40.5t17.5 -47.5t6 -56.5q0 -150 -105 -235q-106 -86 -284 -86q-112 0 -216.5 46.5t-161.5 124.5z" />
<glyph unicode="t" horiz-adv-x="717" d="M80 784l26 216h105l38 304l265 52l-44 -356h229l-26 -216h-229l-55 -456q-2 -16 -2 -30q0 -73 59 -73q49 0 125 42l40 -214q-119 -70 -260 -70q-125 1 -185 79q-47 60 -47 161q0 30 4 64l60 497h-103z" />
<glyph unicode="u" horiz-adv-x="1112" d="M103 383l76 617h258l-68 -567q-6 -51 -6 -88q-1 -51 11 -79q20 -48 83 -48q38 0 82.5 28.5t84.5 75.5t70.5 114t39.5 137l53 427h259l-123 -1000h-259l21 171h-1q-126 -188 -320 -188q-154 1 -220 95q-48 69 -48 198q0 49 7 107z" />
<glyph unicode="v" horiz-adv-x="1043" d="M105 422q-7 -55 -7 -104q0 -137 54 -221q74 -114 254 -114q87 0 165.5 24t152 79.5t129 138t93 208t47.5 281.5q2 38 2 74q0 110 -18 212h-262q16 -112 16 -209q0 -46 -4 -89q-9 -103 -33 -187.5t-54 -138t-65.5 -90.5t-68 -52.5t-62.5 -15.5q-60 0 -76 60q-8 30 -8 75 q0 46 9 107l67 540h-259z" />
<glyph unicode="w" horiz-adv-x="1463" d="M103 401l75 599h259l-69 -552q-7 -57 -7 -100q0 -130 64 -130q24 0 51.5 19.5t55 57t50.5 101t34 142.5l57 462h254l-69 -567q-6 -58 -6 -99.5t6 -65.5q13 -50 53 -50q21 0 47 17t56 55.5t56.5 94t48 141t31.5 186.5q3 36 3 76q0 93 -16 212h262q15 -86 17 -158v-30 q0 -61 -6 -134q-12 -145 -49.5 -264t-91 -197.5t-122 -132.5t-139.5 -77.5t-145 -23.5q-195 0 -237 176h-4q-105 -176 -273 -176q-146 0 -208 110q-45 79 -45 204q0 49 7 104z" />
<glyph unicode="x" horiz-adv-x="1001" d="M-20 0l371 516l-241 484h292l116 -282h5l189 282h305l-367 -495l246 -505h-288l-133 286h-6l-200 -286h-289z" />
<glyph unicode="y" horiz-adv-x="1114" d="M36 -325l83 210q127 -83 263 -83q50 0 88 8t75.5 30.5t63.5 61t46.5 101.5t31.5 150l2 13h-4q-125 -183 -323 -183q-154 0 -220 95q-47 67 -47 195q0 50 7 110l75 617h259l-68 -567q-6 -51 -6 -90q0 -50 11 -77q20 -48 82 -48q39 0 83.5 26.5t84.5 71t71 108t42 130.5 l55 446h259l-107 -871q-12 -94 -35.5 -172t-55 -134t-72.5 -99t-85.5 -70.5t-96.5 -44.5t-102.5 -24t-106.5 -7q-198 0 -353 97z" />
<glyph unicode="z" horiz-adv-x="946" d="M18 0l20 178l492 603l1 5h-383l26 214h736l-20 -176l-500 -604l-1 -6q258 -7 441 -64l-66 -209q-76 21 -163.5 34t-197.5 18t-181.5 6t-203.5 1z" />
<glyph unicode="{" horiz-adv-x="707" d="M101 499l15 195q44 1 76.5 12.5t50.5 26.5t29.5 39t15.5 41.5t7 43.5l48 392q14 109 82 181t165 72h151l-21 -174h-42q-30 0 -53.5 -14t-37 -36t-21 -44t-10.5 -44l-48 -379q-11 -92 -39.5 -142t-83.5 -73l-1 -4q20 -9 32.5 -18.5t23.5 -25.5t15.5 -38.5t4.5 -57 t-6 -81.5l-43 -358q-9 -75 7 -107.5t72 -32.5h52l-21 -173h-142q-94 0 -151.5 73t-42.5 189l48 383q6 31 5 58.5t-10 48.5t-40.5 33.5t-86.5 13.5z" />
<glyph unicode="|" horiz-adv-x="669" d="M136 -235l214 1744h216l-214 -1744h-216z" />
<glyph unicode="}" horiz-adv-x="707" d="M-9 -300l21 173h43q61 0 87.5 37t35.5 113l44 358q10 78 26 121.5t37 62.5t62 36l1 3q-93 43 -71 218l46 378q14 128 -81 128h-51l21 174h142q98 0 152.5 -77.5t40.5 -186.5l-48 -390q-3 -21 -4 -31t-0.5 -29t4.5 -29t13 -24t24 -21t39 -13t55 -7l-15 -195 q-25 -1 -46 -4.5t-37 -8.5t-29 -13t-22 -16.5t-16.5 -20.5t-11.5 -22.5t-7.5 -25.5t-5.5 -26.5t-4 -27.5l-47 -382q-7 -58 -29.5 -105.5t-56 -79.5t-75 -49.5t-86.5 -17.5h-151z" />
<glyph unicode="~" horiz-adv-x="1097" d="M107 480q51 116 126 184.5t166 68.5q14 0 27 -1t25 -3.5t22.5 -4.5t21 -6t18 -7t17 -7.5t15 -7.5t14.5 -8t13 -7q28 -15 45.5 -23t36 -13t36.5 -5q41 0 77.5 28t62.5 72l177 -72q-32 -77 -75 -136t-98.5 -93.5t-114.5 -34.5q-14 0 -27 1t-25 3t-21.5 3.5t-20 5.5t-17.5 6 t-16.5 7t-14.5 7t-15 7t-13 7q-36 19 -50.5 26t-35.5 14t-38 7q-80 0 -141 -100z" />
<glyph unicode="&#xa1;" horiz-adv-x="573" d="M1 -508l174 1034h188l-80 -1034h-282zM135 853q0 46 21.5 83.5t60 59t85.5 21.5q70 0 115.5 -45.5t45.5 -113.5q0 -71 -47.5 -117.5t-119.5 -46.5q-69 0 -115 45t-46 114z" />
<glyph unicode="&#xa2;" horiz-adv-x="1027" d="M95 517q0 146 52 272.5t153 215t235 113.5l23 191h208l-23 -191q169 -33 254 -160l-201 -150q-29 45 -73.5 65.5t-91.5 20.5q-77 -1 -140.5 -49.5t-98.5 -131.5t-35 -183q0 -51 14.5 -91.5t39 -63.5t52.5 -35t58 -12q60 0 110.5 24.5t99.5 78.5l203 -138 q-45 -52 -91.5 -89.5t-103 -63.5t-121.5 -37l-24 -196h-208l24 196q-148 27 -231.5 135t-83.5 279z" />
<glyph unicode="&#xa3;" horiz-adv-x="1063" d="M34 0l31 249h115l49 402h-97l22 188h98l13 110q13 104 43.5 186.5t71.5 135t93.5 87t107 48.5t114.5 14q75 0 143 -24t123 -70t92 -110l-158 -172q-33 59 -80 91t-92 32q-155 0 -185 -249l-9 -79h272l-23 -188h-270l-49 -402h513l-31 -249h-907z" />
<glyph unicode="&#xa4;" horiz-adv-x="970" d="M33 432l161 160q-26 61 -26 135q0 152 80 268l-127 161l134 118l124 -155q84 48 182 48q97 0 174 -50l158 159l109 -119l-164 -166q28 -67 28 -149q0 -140 -79 -252l125 -160l-131 -118l-126 158q-85 -47 -185 -47q-99 0 -172 45l-154 -154zM347 759q0 -71 40 -114.5 t107 -43.5q33 0 63.5 11.5t54 32t41 48t26.5 60t9 67.5q0 77 -41.5 123.5t-106.5 46.5q-82 0 -137.5 -67.5t-55.5 -163.5z" />
<glyph unicode="&#xa5;" horiz-adv-x="1126" d="M125 1406h317l164 -552l293 552h328l-350 -557h133l-16 -137h-203l-64 -102h253l-16 -137h-265l-59 -473h-282l60 473h-280l18 137h269l-38 102h-219l17 137h150z" />
<glyph unicode="&#xa6;" horiz-adv-x="669" d="M136 -234l89 721h215l-88 -721h-216zM262 788l88 721h216l-88 -721h-216z" />
<glyph unicode="&#xa7;" horiz-adv-x="1059" d="M34 -114l165 174q50 -69 116.5 -103.5t126.5 -34.5q64 0 103 38t39 94q0 17 -3.5 30.5t-14.5 27t-23 23.5t-38 25t-49 27t-66 33q-37 18 -59.5 30t-54 31.5t-50.5 36t-40.5 41t-33.5 50t-20 59t-8 71.5q0 97 45.5 170.5t126.5 117.5q-82 80 -82 208q0 110 53 195.5 t145 131.5t207 46t219.5 -45.5t164.5 -117.5l-160 -177q-104 99 -216 99q-66 0 -100.5 -31.5t-34.5 -84.5q0 -44 33.5 -75.5t136.5 -82.5q14 -7 41 -20q31 -16 46.5 -23.5t42.5 -22.5t41 -24.5t35 -25.5t31.5 -30t24 -33.5t19.5 -39.5t10.5 -45.5t4.5 -53.5 q0 -99 -46.5 -173.5t-129.5 -120.5q80 -74 80 -201q0 -114 -54.5 -204t-152 -140t-220.5 -50q-121 0 -224.5 50.5t-176.5 149.5zM381 574q0 -48 32.5 -78t124.5 -76l54 -26q52 15 79 55.5t27 89.5q0 46 -33.5 75t-137.5 77l-46 21q-32 -8 -55 -30t-34 -49.5t-11 -58.5z" />
<glyph unicode="&#xa8;" horiz-adv-x="981" d="M213 1259q0 35 12.5 65.5t35 52t54 34t67.5 12.5q71 0 117 -45t46 -114q0 -46 -21.5 -83.5t-60.5 -59t-87 -21.5q-71 0 -117 45t-46 114zM625 1259q0 47 21.5 84.5t60 58.5t87.5 21q71 0 117 -45t46 -114q0 -46 -21.5 -83.5t-60.5 -59t-87 -21.5q-72 0 -117.5 45 t-45.5 114z" />
<glyph unicode="&#xa9;" horiz-adv-x="1479" d="M92 651q0 130 50.5 250t136.5 208t206.5 140t254.5 52q133 0 253 -52t205.5 -140t135.5 -207.5t50 -250.5q0 -104 -32 -202t-91.5 -178.5t-138.5 -141.5t-178.5 -94.5t-206.5 -33.5q-133 0 -253.5 52t-206 140t-135.5 207.5t-50 250.5zM266 649q0 -97 36.5 -185 t98.5 -152t150 -101.5t186 -37.5q99 0 187.5 38t151 102.5t99 152.5t36.5 185t-36.5 185t-98.5 152t-150 102t-186 38q-99 0 -187.5 -38t-151 -103t-99 -153t-36.5 -185zM418 647q0 94 38.5 169t116.5 121t184 46q72 0 141.5 -31.5t122.5 -95.5l-112 -96q-28 32 -68 53.5 t-84 21.5q-38 0 -70.5 -13t-56 -36.5t-37 -59t-13.5 -79.5q0 -82 48 -134t129 -52q44 0 85 20t67 54l112 -97q-46 -56 -113 -90t-151 -34q-70 0 -130.5 21.5t-107.5 62t-74 105t-27 144.5z" />
<glyph unicode="&#xaa;" horiz-adv-x="754" d="M124 1044q0 104 43 190.5t114.5 135t154.5 48.5q81 0 132 -51h3l5 40h179l-74 -602h-180l11 88h-4q-81 -99 -182 -99q-84 0 -143 65.5t-59 184.5zM309 1050q0 -43 18 -65.5t50 -22.5q54 0 106 60.5t67 163.5l3 23q-30 41 -96 41q-42 0 -77 -30t-53 -75.5t-18 -94.5z" />
<glyph unicode="&#xab;" horiz-adv-x="1002" d="M85 505l275 434h243l-272 -434l165 -426h-244zM486 505l275 434h243l-272 -434l165 -426h-244z" />
<glyph unicode="&#xac;" horiz-adv-x="1050" d="M121 634l27 225h842l-68 -557h-228l41 332h-614z" />
<glyph unicode="&#xad;" horiz-adv-x="773" d="M106 510l30 245h563l-31 -245h-562z" />
<glyph unicode="&#xae;" horiz-adv-x="1490" d="M92 651q0 131 51 252t137.5 209.5t208 141.5t256.5 53q134 0 255 -52.5t207 -141t136.5 -209.5t50.5 -253q0 -131 -51 -251.5t-137 -209t-207.5 -141.5t-256.5 -53q-134 0 -255 52.5t-207.5 141t-137 209t-50.5 252.5zM266 649q0 -98 36.5 -186.5t99.5 -153.5t152 -103 t188 -38q100 0 188.5 38.5t151.5 103.5t100 154t37 187t-36.5 187t-99.5 154t-151 103t-187 38q-101 0 -190.5 -38.5t-152.5 -104t-99.5 -154.5t-36.5 -187zM510 324v663h257q117 0 175.5 -62t58.5 -165q0 -149 -125 -200l157 -236h-176l-138 216h-59v-216h-150zM660 675h73 q52 0 81 24t29 64q0 39 -28.5 63.5t-78.5 24.5h-76v-176z" />
<glyph unicode="&#xaf;" horiz-adv-x="817" d="M204 1153l26 209h570l-25 -209h-571z" />
<glyph unicode="&#xb0;" horiz-adv-x="769" d="M192 1135q0 91 39 167.5t110 122t159 45.5q108 0 175 -67t67 -180q0 -85 -37.5 -157t-109.5 -117t-164 -45q-75 0 -129.5 29.5t-82 81t-27.5 120.5zM356 1158q0 -43 24.5 -68.5t70.5 -25.5q55 0 91.5 42t36.5 101q0 47 -25.5 75.5t-69.5 28.5q-56 0 -92 -43.5t-36 -109.5 z" />
<glyph unicode="&#xb1;" horiz-adv-x="1131" d="M70 -2l28 229h878l-29 -229h-877zM159 729l28 229h323l46 371h230l-45 -371h324l-29 -229h-324l-44 -369h-231l45 369h-323z" />
<glyph unicode="&#xb2;" horiz-adv-x="649" d="M102 892l13 138l260 267q62 62 93 107t31 92q0 19 -7 33t-19.5 21t-30.5 7q-29 0 -61.5 -20.5t-60.5 -61.5l-145 118q48 70 124 113t169 43q108 0 175 -60.5t67 -163.5q0 -93 -39 -164t-123 -154l-125 -125v-3h242l-23 -187h-540z" />
<glyph unicode="&#xb3;" horiz-adv-x="661" d="M106 1081l190 65q10 -88 79 -88q18 0 34.5 6.5t28.5 17.5t20.5 26.5t13 33t4.5 36.5q0 32 -20.5 49.5t-59.5 17.5h-54l19 153h58q39 0 66.5 33.5t27.5 75.5q0 28 -16 44t-39 16q-30 0 -56.5 -20t-41.5 -57l-163 101q22 45 63 81t95 56.5t112 20.5q71 0 125.5 -23 t86.5 -70.5t32 -112.5q0 -68 -31.5 -123.5t-87.5 -90.5l-1 -5q98 -52 98 -169q0 -127 -85.5 -202.5t-216.5 -75.5q-111 0 -186.5 58t-94.5 146z" />
<glyph unicode="&#xb4;" horiz-adv-x="915" d="M327 1098l242 299l275 1l-265 -300h-252z" />
<glyph unicode="&#xb5;" horiz-adv-x="1160" d="M25 -405l173 1405h259l-75 -606q-5 -91 23.5 -133.5t81.5 -42.5q29 0 57 9.5t55.5 31t50 53t40 79.5t26.5 106l62 503h259l-84 -686q-8 -61 2 -83t49 -22q28 0 53 4l36 -179q-77 -51 -188 -51q-172 0 -200 165h-5q-100 -165 -246 -165q-92 0 -140 61l-3 -2 q11 -122 -3 -240l-25 -207h-258z" />
<glyph unicode="&#xb6;" horiz-adv-x="1077" d="M138 930q0 89 31.5 168t90 140t149 97t201.5 36h398l-207 -1682h-156l187 1515h-117l-148 -1204h-161l81 620q-102 2 -180.5 37.5t-123.5 105.5t-45 167z" />
<glyph unicode="&#xb7;" horiz-adv-x="577" d="M153 497q0 71 47.5 117.5t119.5 46.5q69 0 115 -45t46 -114q0 -71 -47.5 -117.5t-119.5 -46.5q-70 0 -115.5 45.5t-45.5 113.5z" />
<glyph unicode="&#xb8;" horiz-adv-x="601" d="M23 -378l6 116q29 -12 87 -12q48 0 76 19t28 53q0 28 -33 41t-104 13l4 75l49 85h145l-52 -75l1 -2q155 -6 155 -135q0 -84 -68 -137.5t-177 -53.5q-59 0 -117 13z" />
<glyph unicode="&#xb9;" horiz-adv-x="563" d="M161 1547l277 188h161l-104 -843h-206l74 579l-117 -82z" />
<glyph unicode="&#xba;" horiz-adv-x="688" d="M127 1053q0 71 21.5 136t62 117t105 82.5t143.5 30.5q112 0 181.5 -65t69.5 -190q0 -56 -12.5 -109t-38.5 -100t-64 -82.5t-93 -56t-121 -20.5q-116 0 -185 67t-69 190zM313 1070q0 -48 22.5 -77.5t57.5 -29.5q53 0 92.5 55t39.5 131q0 30 -8 51.5t-21.5 32t-26.5 15 t-26 4.5q-54 0 -92 -55.5t-38 -126.5z" />
<glyph unicode="&#xbb;" horiz-adv-x="1007" d="M3 79l270 426l-167 434h244l170 -434l-271 -426h-246zM410 79l270 426l-167 434h244l170 -434l-271 -426h-246z" />
<glyph unicode="&#xbc;" horiz-adv-x="1539" d="M138 1267l277 188h161l-104 -843h-206l74 579l-117 -82zM310 42l759 1448l194 -91l-758 -1446zM858 129l14 125l415 589h162l-66 -538h99l-22 -176h-98l-17 -129h-205l16 129h-298zM1078 290h128l33 246z" />
<glyph unicode="&#xbd;" horiz-adv-x="1614" d="M138 1267l277 188h161l-104 -843h-206l74 579l-117 -82zM310 42l759 1448l194 -91l-758 -1446zM967 0l13 138l260 267q62 62 93 107t31 92q0 29 -15.5 45t-41.5 16q-29 0 -61.5 -20.5t-60.5 -61.5l-145 118q48 70 124 113t169 43q71 0 126 -27t85.5 -78t30.5 -119 q0 -93 -39 -164t-123 -154l-125 -125v-3h242l-23 -187h-540z" />
<glyph unicode="&#xbe;" horiz-adv-x="1603" d="M81 801l190 65q10 -88 79 -88q46 0 73.5 35.5t27.5 84.5q0 32 -20.5 49.5t-59.5 17.5h-54l19 153h58q19 0 37 9.5t30 24.5t19.5 35t7.5 40q0 28 -16 44t-39 16q-30 0 -56.5 -20t-41.5 -57l-163 101q34 69 108.5 113.5t161.5 44.5q109 0 176.5 -54t67.5 -152 q0 -68 -31.5 -123.5t-87.5 -90.5l-1 -5q98 -52 98 -169q0 -127 -85.5 -202.5t-216.5 -75.5q-111 0 -186.5 58t-94.5 146zM370 42l759 1448l194 -91l-758 -1446zM922 129l14 125l415 589h162l-66 -538h99l-22 -176h-98l-17 -129h-205l16 129h-298zM1142 290h128l33 246z" />
<glyph unicode="&#xbf;" horiz-adv-x="863" d="M-3 -196q0 -81 28 -145t76.5 -104t110.5 -60.5t133 -20.5q82 0 160.5 23t144.5 67t111 103l-165 164q-83 -108 -184 -108q-58 0 -90.5 36.5t-32.5 104.5q0 39 10.5 74.5t33 70t44 60t55.5 62.5q6 6 17 18q37 39 54.5 58.5t44 52.5t39 56.5t24 55t15.5 63.5l10 94h-235 l-18 -93q-5 -27 -19 -52.5t-40.5 -56t-47 -50.5t-61.5 -59q-47 -43 -82.5 -84.5t-68 -93.5t-50 -112t-17.5 -124zM376 852q0 71 47.5 117.5t119.5 46.5q70 0 115.5 -45.5t45.5 -113.5q0 -47 -21.5 -84.5t-60 -58.5t-85.5 -21q-69 0 -115 45t-46 114z" />
<glyph unicode="&#xc0;" horiz-adv-x="1323" d="M-22 0l661 1455h279l304 -1455h-289l-52 296h-484l-125 -296h-294zM466 1907l275 -1l168 -299h-252zM497 535h342l-99 566h-5z" />
<glyph unicode="&#xc1;" horiz-adv-x="1323" d="M-22 0l661 1455h279l304 -1455h-289l-52 296h-484l-125 -296h-294zM497 535h342l-99 566h-5zM694 1607l242 299l275 1l-265 -300h-252z" />
<glyph unicode="&#xc2;" horiz-adv-x="1323" d="M-22 0l661 1455h279l304 -1455h-289l-52 296h-484l-125 -296h-294zM478 1602l238 305h238l175 -305h-238l-64 157h-3l-101 -157h-245zM497 535h342l-99 566h-5z" />
<glyph unicode="&#xc3;" horiz-adv-x="1323" d="M-22 0l661 1455h279l304 -1455h-289l-52 296h-484l-125 -296h-294zM448 1674q29 70 66 120.5t84.5 80t100.5 29.5q23 0 42 -3t37 -11.5t26 -13t26 -17.5t20 -14l17 -11q13 -9 17 -11l14 -8q10 -6 15.5 -8t13.5 -4t15 -2q18 0 36 8t33.5 22t29 33.5t24.5 43.5l152 -61 q-43 -116 -107 -182t-140 -66q-15 0 -29.5 2t-28.5 7t-23 8.5t-22.5 11.5t-18.5 11t-18.5 13t-14.5 11q-58 41 -92 41q-36 0 -67.5 -29.5t-54.5 -78.5zM497 535h342l-99 566h-5z" />
<glyph unicode="&#xc4;" horiz-adv-x="1323" d="M-22 0l661 1455h279l304 -1455h-289l-52 296h-484l-125 -296h-294zM455 1768q0 71 47.5 117.5t121.5 46.5q71 0 117 -45t46 -114q0 -46 -21.5 -83.5t-60.5 -59t-87 -21.5q-71 0 -117 45t-46 114zM497 535h342l-99 566h-5zM867 1768q0 71 47.5 117.5t121.5 46.5 q35 0 65 -12t51.5 -33t34 -50.5t12.5 -63.5q0 -71 -48 -117.5t-121 -46.5q-72 0 -117.5 45t-45.5 114z" />
<glyph unicode="&#xc5;" horiz-adv-x="1323" d="M-22 0l661 1455h279l304 -1455h-289l-52 296h-484l-125 -296h-294zM497 535h342l-99 566h-5zM614 1770q0 92 62.5 154t156.5 62q91 0 152 -60t61 -149q0 -46 -17 -87t-46 -70t-70 -45.5t-87 -16.5q-91 0 -151.5 60.5t-60.5 151.5zM753 1772q0 -33 22 -54.5t54 -21.5 q33 0 56 22.5t23 56.5q0 31 -22.5 53t-54.5 22q-16 0 -30.5 -6t-25 -16.5t-16.5 -25t-6 -30.5z" />
<glyph unicode="&#xc6;" horiz-adv-x="1792" d="M-50 0l819 1455h999l-30 -250h-581l-44 -359h472l-31 -247h-472l-42 -350h618l-31 -249h-888l37 296h-364l-161 -296h-301zM542 535h264l74 615h-4z" />
<glyph unicode="&#xc7;" horiz-adv-x="1377" d="M127 592q0 144 34.5 276.5t101.5 241.5t158.5 190.5t211.5 126.5t255 45q56 0 108.5 -9.5t107 -32t104 -57t97.5 -87t88 -118.5l-230 -165q-107 204 -289 204q-81 0 -154 -33.5t-127 -92t-94 -135.5t-60 -166t-20 -181q0 -166 81.5 -258.5t230.5 -92.5q89 0 176 44.5 t149 120.5l202 -181q-66 -73 -145.5 -127t-175.5 -86.5t-197 -35.5l-32 -46l1 -2q155 -6 155 -135q0 -84 -68 -137.5t-177 -53.5q-59 0 -117 13l6 116q29 -12 87 -12q48 0 76 19t28 53q0 28 -33 41t-104 13l4 75l33 57v8q-104 16 -190 62.5t-149 120t-98 180.5t-35 237z" />
<glyph unicode="&#xc8;" horiz-adv-x="1160" d="M108 0l179 1455h848l-31 -250h-573l-45 -360h459l-31 -247h-458l-42 -349h612l-31 -249h-887zM504 1906l275 -1l168 -299h-252z" />
<glyph unicode="&#xc9;" horiz-adv-x="1160" d="M108 0l179 1455h848l-31 -250h-573l-45 -360h459l-31 -247h-458l-42 -349h612l-31 -249h-887zM533 1606l242 299l275 1l-265 -300h-252z" />
<glyph unicode="&#xca;" horiz-adv-x="1160" d="M108 0l179 1455h848l-31 -250h-573l-45 -360h459l-31 -247h-458l-42 -349h612l-31 -249h-887zM411 1601l238 305h238l175 -305h-238l-64 157h-3l-101 -157h-245z" />
<glyph unicode="&#xcb;" horiz-adv-x="1160" d="M108 0l179 1455h848l-31 -250h-573l-45 -360h459l-31 -247h-458l-42 -349h612l-31 -249h-887zM388 1767q0 71 48 117.5t121 46.5q46 0 83.5 -20.5t58.5 -57t21 -81.5q0 -46 -21.5 -83.5t-60.5 -59t-87 -21.5q-47 0 -84 20.5t-58 57t-21 81.5zM800 1767q0 71 47.5 117.5 t121.5 46.5q71 0 117 -45t46 -114q0 -46 -21.5 -83.5t-60.5 -59t-87 -21.5q-72 0 -117.5 45t-45.5 114z" />
<glyph unicode="&#xcc;" horiz-adv-x="641" d="M118 0l179 1455h281l-179 -1455h-281zM136 1906l275 -1l168 -299h-252z" />
<glyph unicode="&#xcd;" horiz-adv-x="641" d="M118 0l179 1455h281l-179 -1455h-281zM341 1606l242 299l275 1l-265 -300h-252z" />
<glyph unicode="&#xce;" horiz-adv-x="641" d="M118 0l179 1455h281l-179 -1455h-281zM125 1601l238 305h238l175 -305h-238l-64 157h-3l-101 -157h-245z" />
<glyph unicode="&#xcf;" horiz-adv-x="641" d="M102 1767q0 71 48 117.5t121 46.5q46 0 83.5 -20.5t58.5 -57t21 -81.5q0 -46 -21.5 -83.5t-60.5 -59t-87 -21.5q-47 0 -84 20.5t-58 57t-21 81.5zM118 0l179 1455h281l-179 -1455h-281zM514 1767q0 71 47.5 117.5t121.5 46.5q46 0 83.5 -20.5t58.5 -57t21 -81.5 q0 -46 -21.5 -83.5t-60.5 -59t-87 -21.5q-72 0 -117.5 45t-45.5 114z" />
<glyph unicode="&#xd0;" horiz-adv-x="1398" d="M78 601l30 235h108l76 619h445q195 0 330.5 -74.5t201 -208.5t65.5 -321q0 -190 -53.5 -347.5t-152.5 -269t-245 -173t-325 -61.5h-445l74 601h-109zM420 249h168q71 0 134.5 20.5t113.5 59t89.5 92.5t66 120.5t40.5 144.5t14 163q0 168 -85.5 262t-250.5 94h-173 l-45 -369h179l-31 -235h-177z" />
<glyph unicode="&#xd1;" horiz-adv-x="1457" d="M109 0l179 1455h288l426 -980h4l121 980h277l-179 -1455h-295l-422 961h-3l-118 -961h-278zM520 1674q21 52 47.5 94t58 72.5t68.5 47t77 16.5q23 0 42 -3t37 -11.5t26 -13t26 -17.5t20 -14l17 -11q13 -9 17 -11l14 -8q10 -6 15.5 -8t13.5 -4t15 -2q36 0 68 29t55 78 l152 -61q-43 -116 -107 -182t-140 -66q-15 0 -29.5 2t-28.5 7t-23 8.5t-22.5 12t-18.5 11t-18.5 12.5t-14.5 11q-58 41 -92 41q-36 0 -67.5 -29.5t-54.5 -78.5z" />
<glyph unicode="&#xd2;" horiz-adv-x="1551" d="M127 597q0 137 34.5 267t102 240t159 192.5t212.5 129t257 46.5q131 0 240 -41.5t186 -119t119.5 -193t42.5 -258.5q0 -142 -33 -272.5t-98.5 -240.5t-156.5 -191.5t-214 -127t-265 -45.5q-132 0 -240.5 41.5t-185 119t-118.5 193.5t-42 260zM416 609q0 -180 85.5 -273.5 t232.5 -93.5q98 0 184 50t145 133.5t92.5 194t33.5 229.5q0 180 -87 272t-239 92q-77 0 -147 -33.5t-124 -91.5t-94 -134t-61 -165t-21 -180zM633 1907l275 -1l168 -299h-252z" />
<glyph unicode="&#xd3;" horiz-adv-x="1551" d="M127 597q0 137 34.5 267t102 240t159 192.5t212.5 129t257 46.5q131 0 240 -41.5t186 -119t119.5 -193t42.5 -258.5q0 -142 -33 -272.5t-98.5 -240.5t-156.5 -191.5t-214 -127t-265 -45.5q-132 0 -240.5 41.5t-185 119t-118.5 193.5t-42 260zM416 609q0 -180 85.5 -273.5 t232.5 -93.5q98 0 184 50t145 133.5t92.5 194t33.5 229.5q0 180 -87 272t-239 92q-77 0 -147 -33.5t-124 -91.5t-94 -134t-61 -165t-21 -180zM791 1607l242 299l275 1l-265 -300h-252z" />
<glyph unicode="&#xd4;" horiz-adv-x="1551" d="M127 597q0 137 34.5 267t102 240t159 192.5t212.5 129t257 46.5q131 0 240 -41.5t186 -119t119.5 -193t42.5 -258.5q0 -142 -33 -272.5t-98.5 -240.5t-156.5 -191.5t-214 -127t-265 -45.5q-132 0 -240.5 41.5t-185 119t-118.5 193.5t-42 260zM416 609q0 -180 85.5 -273.5 t232.5 -93.5q98 0 184 50t145 133.5t92.5 194t33.5 229.5q0 180 -87 272t-239 92q-77 0 -147 -33.5t-124 -91.5t-94 -134t-61 -165t-21 -180zM635 1602l238 305h238l175 -305h-238l-64 157h-3l-101 -157h-245z" />
<glyph unicode="&#xd5;" horiz-adv-x="1551" d="M127 597q0 137 34.5 267t102 240t159 192.5t212.5 129t257 46.5q131 0 240 -41.5t186 -119t119.5 -193t42.5 -258.5q0 -142 -33 -272.5t-98.5 -240.5t-156.5 -191.5t-214 -127t-265 -45.5q-132 0 -240.5 41.5t-185 119t-118.5 193.5t-42 260zM416 609q0 -180 85.5 -273.5 t232.5 -93.5q98 0 184 50t145 133.5t92.5 194t33.5 229.5q0 180 -87 272t-239 92q-77 0 -147 -33.5t-124 -91.5t-94 -134t-61 -165t-21 -180zM605 1674q44 107 108.5 168.5t142.5 61.5q19 0 37 -3t30 -7t26 -11.5t21 -12t20 -13.5t17 -12l17 -11q13 -9 17 -11l14 -8 q10 -6 15.5 -8t13.5 -4t15 -2q36 0 68 29t55 78l152 -61q-43 -116 -107 -182t-140 -66q-15 0 -29.5 2t-28.5 7t-23 8.5t-22.5 11.5t-18.5 11t-18.5 13t-14.5 11q-58 41 -92 41q-36 0 -67.5 -29.5t-54.5 -78.5z" />
<glyph unicode="&#xd6;" horiz-adv-x="1551" d="M127 597q0 137 34.5 267t102 240t159 192.5t212.5 129t257 46.5q131 0 240 -41.5t186 -119t119.5 -193t42.5 -258.5q0 -142 -33 -272.5t-98.5 -240.5t-156.5 -191.5t-214 -127t-265 -45.5q-132 0 -240.5 41.5t-185 119t-118.5 193.5t-42 260zM416 609q0 -180 85.5 -273.5 t232.5 -93.5q79 0 150.5 32t126 89.5t95.5 133.5t62 166.5t21 185.5q0 180 -87 272t-239 92q-77 0 -147 -33.5t-124 -91.5t-94 -134t-61 -165t-21 -180zM612 1768q0 71 47.5 117.5t121.5 46.5q71 0 117 -45t46 -114q0 -71 -48 -117.5t-121 -46.5q-71 0 -117 45t-46 114z M1024 1768q0 71 47.5 117.5t121.5 46.5q71 0 117 -45t46 -114q0 -23 -5.5 -44.5t-16.5 -39.5t-26 -33t-33.5 -25.5t-41 -16t-46.5 -5.5q-72 0 -117.5 45t-45.5 114z" />
<glyph unicode="&#xd7;" horiz-adv-x="1019" d="M75 287l281 282l-212 280l179 160l210 -281l280 282l148 -160l-281 -284l210 -282l-177 -157l-212 280l-279 -280z" />
<glyph unicode="&#xd8;" horiz-adv-x="1552" d="M37 61l175 185q-84 146 -84 351q0 114 25 224.5t70.5 207t113.5 178.5t151.5 140.5t187.5 91.5t217 33q223 0 373 -115l149 158l122 -121l-154 -163q98 -152 98 -371q0 -142 -33 -272.5t-98.5 -240.5t-156.5 -191.5t-214 -127t-265 -45.5q-238 0 -389 127l-166 -175z M417 609q0 -73 15 -132l638 674q-80 62 -206 62q-77 0 -147 -33.5t-124 -91.5t-94 -134t-61 -165t-21 -180zM520 317q82 -75 215 -75q98 0 184 50t145 133.5t92.5 194t33.5 229.5q0 89 -21 155z" />
<glyph unicode="&#xd9;" horiz-adv-x="1376" d="M157 497q0 65 9 137l101 821h279l-102 -821q-7 -57 -7 -117q0 -272 210 -272q132 0 210.5 84t102.5 277l104 849h279l-105 -853q-40 -324 -189 -471.5t-418 -147.5q-121 0 -212.5 36t-148.5 104t-85 161.5t-28 212.5zM477 1907l275 -1l168 -299h-252z" />
<glyph unicode="&#xda;" horiz-adv-x="1376" d="M157 497q0 65 9 137l101 821h279l-102 -821q-7 -57 -7 -117q0 -272 210 -272q132 0 210.5 84t102.5 277l104 849h279l-105 -853q-40 -324 -189 -471.5t-418 -147.5q-121 0 -212.5 36t-148.5 104t-85 161.5t-28 212.5zM687 1607l242 299l275 1l-265 -300h-252z" />
<glyph unicode="&#xdb;" horiz-adv-x="1376" d="M157 497q0 65 9 137l101 821h279l-102 -821q-7 -57 -7 -117q0 -272 210 -272q132 0 210.5 84t102.5 277l104 849h279l-105 -853q-40 -324 -189 -471.5t-418 -147.5q-121 0 -212.5 36t-148.5 104t-85 161.5t-28 212.5zM505 1602l238 305h238l175 -305h-238l-64 157h-3 l-101 -157h-245z" />
<glyph unicode="&#xdc;" horiz-adv-x="1376" d="M157 497q0 65 9 137l101 821h279l-102 -821q-7 -57 -7 -117q0 -272 210 -272q132 0 210.5 84t102.5 277l104 849h279l-105 -853q-40 -324 -189 -471.5t-418 -147.5q-121 0 -212.5 36t-148.5 104t-85 161.5t-28 212.5zM482 1768q0 71 48 117.5t121 46.5q71 0 117 -45 t46 -114q0 -71 -48 -117.5t-121 -46.5q-71 0 -117 45t-46 114zM894 1768q0 71 47.5 117.5t121.5 46.5q71 0 117 -45t46 -114q0 -46 -21.5 -83.5t-60.5 -59t-87 -21.5q-47 0 -84.5 20.5t-58 57t-20.5 81.5z" />
<glyph unicode="&#xdd;" horiz-adv-x="1197" d="M140 1455h307l193 -546h6l321 546h328l-540 -815l-80 -640h-281l80 640zM602 1607l242 299l275 1l-265 -300h-252z" />
<glyph unicode="&#xde;" horiz-adv-x="1246" d="M109 0l179 1455h276l-31 -256h252q208 0 309 -103.5t101 -292.5q0 -125 -38 -227.5t-110 -176t-182 -113.5t-248 -40h-201l-31 -246h-276zM446 495h198q120 0 190.5 78t70.5 214q0 78 -49.5 121t-130.5 43h-222z" />
<glyph unicode="&#xdf;" horiz-adv-x="1287" d="M77 0l133 1085q9 76 31.5 139.5t55.5 112t76 84.5t95.5 58.5t111.5 34t125 11.5q201 0 316 -95.5t107 -255.5q-3 -50 -16.5 -92.5t-39 -78.5t-50.5 -61.5t-62 -58.5q-6 -5 -17 -15q-37 -32 -53.5 -47.5t-30.5 -37.5t-14 -43q0 -28 26.5 -55t99.5 -71q13 -8 37 -22 q35 -21 52.5 -32t46 -30.5t42.5 -34t32.5 -36.5t26.5 -44t14.5 -51t6.5 -62q0 -101 -50 -174.5t-133 -109t-188 -35.5q-119 0 -221 45.5t-161 125.5l160 158q45 -56 100.5 -86.5t111.5 -30.5q53 0 88.5 25t35.5 64q0 10 -3 19t-6.5 16t-13 15.5t-16 14t-22 14.5t-24.5 14.5 t-30 17t-33 18.5q-44 25 -74 44.5t-64 48t-54.5 56t-34 64t-13.5 77.5q0 42 13 78.5t37.5 68t47.5 55t56.5 54.5t52.5 51q78 85 78 163q0 59 -43.5 91t-119.5 32q-97 0 -160.5 -56.5t-79.5 -181.5l-129 -1058h-260z" />
<glyph unicode="&#xe0;" d="M74 391q0 124 36 238t99 199.5t154 137t194 51.5q162 0 254 -95h4l9 78h260l-123 -1000h-260l24 189h-4q-61 -98 -142 -152t-169 -54q-83 0 -148 31.5t-105.5 87.5t-61.5 129t-21 160zM337 398q0 -86 37 -135.5t103 -49.5q47 0 95 30.5t90.5 85.5t75.5 140.5t48 186.5 l5 40q-40 41 -93.5 64t-107.5 23q-58 0 -107 -35t-80 -90.5t-48.5 -123.5t-17.5 -136zM390 1440l275 -1l168 -299h-252z" />
<glyph unicode="&#xe1;" d="M74 391q0 124 36 238t99 199.5t154 137t194 51.5q162 0 254 -95h4l9 78h260l-123 -1000h-260l24 189h-4q-61 -98 -142 -152t-169 -54q-83 0 -148 31.5t-105.5 87.5t-61.5 129t-21 160zM337 398q0 -86 37 -135.5t103 -49.5q47 0 95 30.5t90.5 85.5t75.5 140.5t48 186.5 l5 40q-40 41 -93.5 64t-107.5 23q-58 0 -107 -35t-80 -90.5t-48.5 -123.5t-17.5 -136zM514 1140l242 299l275 1l-265 -300h-252z" />
<glyph unicode="&#xe2;" d="M74 391q0 124 36 238t99 199.5t154 137t194 51.5q162 0 254 -95h4l9 78h260l-123 -1000h-260l24 189h-4q-61 -98 -142 -152t-169 -54q-83 0 -148 31.5t-105.5 87.5t-61.5 129t-21 160zM337 398q0 -86 37 -135.5t103 -49.5q46 0 94.5 30.5t91 85.5t75.5 140.5t48 186.5 l5 40q-40 41 -93.5 64t-107.5 23q-58 0 -107 -35t-80 -90.5t-48.5 -123.5t-17.5 -136zM343 1135l238 305h238l175 -305h-238l-64 157h-3l-101 -157h-245z" />
<glyph unicode="&#xe3;" d="M74 391q0 124 36 238t99 199.5t154 137t194 51.5q162 0 254 -95h4l9 78h260l-123 -1000h-260l24 189h-4q-61 -98 -142 -152t-169 -54q-83 0 -148 31.5t-105.5 87.5t-61.5 129t-21 160zM313 1207q44 107 108.5 168.5t142.5 61.5q23 0 42 -3t37 -11.5t26 -13t26 -17.5 t20 -14q3 -2 16 -11t17 -11t14.5 -8t16 -8t13.5 -4t15 -2q36 0 68 29t55 78l152 -61q-43 -116 -107 -182t-140 -66q-15 0 -29.5 2t-28.5 7t-23 8.5t-22.5 12t-18.5 11t-18.5 12.5t-14.5 11q-58 41 -92 41q-36 0 -67.5 -29.5t-54.5 -78.5zM337 398q0 -86 37 -135.5t103 -49.5 q46 0 94.5 30.5t91 85.5t75.5 140.5t48 186.5l5 40q-40 41 -93.5 64t-107.5 23q-58 0 -107 -35t-80 -90.5t-48.5 -123.5t-17.5 -136z" />
<glyph unicode="&#xe4;" d="M74 391q0 124 36 238t99 199.5t154 137t194 51.5q162 0 254 -95h4l9 78h260l-123 -1000h-260l24 189h-4q-61 -98 -142 -152t-169 -54q-83 0 -148 31.5t-105.5 87.5t-61.5 129t-21 160zM320 1301q0 35 12.5 65.5t35 52t54 34t67.5 12.5q71 0 117 -45t46 -114 q0 -35 -12.5 -65.5t-35 -52t-54 -34t-67.5 -12.5q-47 0 -84 20.5t-58 57t-21 81.5zM337 398q0 -86 37 -135.5t103 -49.5q47 0 95 30.5t90.5 85.5t75.5 140.5t48 186.5l5 40q-40 41 -93.5 64t-107.5 23q-58 0 -107 -35t-80 -90.5t-48.5 -123.5t-17.5 -136zM732 1301 q0 47 21.5 84.5t60 58.5t87.5 21q71 0 117 -45t46 -114q0 -46 -21.5 -83.5t-60.5 -59t-87 -21.5q-72 0 -117.5 45t-45.5 114z" />
<glyph unicode="&#xe5;" d="M74 391q0 124 36 238t99 199.5t154 137t194 51.5q162 0 254 -95h4l9 78h260l-123 -1000h-260l24 189h-4q-61 -98 -142 -152t-169 -54q-83 0 -148 31.5t-105.5 87t-61.5 129t-21 160.5zM337 398q0 -86 37 -135.5t103 -49.5q47 0 95 30.5t90.5 85.5t75.5 140.5t48 186.5 l5 40q-40 41 -93.5 64t-107.5 23q-58 0 -107 -35t-80 -91t-48.5 -123.5t-17.5 -135.5zM479 1303q0 92 62.5 154t156.5 62q91 0 152 -60t61 -149q0 -62 -29 -112t-79 -78.5t-112 -28.5q-91 0 -151.5 60.5t-60.5 151.5zM618 1305q0 -22 10 -39.5t27.5 -27t38.5 -9.5 q33 0 56 22.5t23 56.5q0 31 -22.5 53t-54.5 22q-33 0 -55.5 -23t-22.5 -55z" />
<glyph unicode="&#xe6;" horiz-adv-x="1395" d="M35 325q0 103 27 200.5t80.5 179.5t126.5 144t171 97t209 35q93 0 172 -29h10q105 65 236 65q86 0 155 -27.5t113 -86t44 -139.5q0 -86 -41.5 -157.5t-119 -124t-177.5 -90t-227 -62.5l-3 -4q10 -29 27 -52t38 -37t44 -21t46 -7q41 0 89.5 23t92.5 81l197 -131 q-150 -198 -394 -198q-120 0 -208.5 51.5t-134.5 148.5h-4q-50 -91 -120 -144t-164 -56q-128 -4 -206.5 91t-78.5 250zM297 335q1 -35 10.5 -62.5t27.5 -44.5t43 -17q62 0 113 91t85 246q19 108 71 206h-15q-54 0 -102 -17t-84.5 -46.5t-65.5 -69.5t-47.5 -87t-27.5 -97.5 t-8 -101.5zM809 515l2 -2q312 82 312 217q0 25 -21.5 43t-60.5 18q-69 0 -138.5 -76.5t-93.5 -199.5z" />
<glyph unicode="&#xe7;" horiz-adv-x="1004" d="M77 413q0 81 16.5 157t48 143t78.5 123t106 96t133 62.5t156 22.5q120 0 214.5 -43.5t149.5 -125.5l-201 -151q-56 86 -173 86q-77 0 -138 -48.5t-94.5 -129t-33.5 -176.5q0 -57 14.5 -99.5t40 -66t54 -34.5t61.5 -11q112 0 204 103l203 -137q-78 -93 -172.5 -143 t-215.5 -56l-33 -48l1 -2q155 -6 155 -135q0 -55 -30.5 -98.5t-86.5 -68t-128 -24.5q-58 0 -117 13l6 116q29 -12 87 -12q48 0 76 19t28 53q0 28 -33 41t-104 13l4 75l36 63l-1 4q-147 28 -229 134.5t-82 284.5z" />
<glyph unicode="&#xe8;" horiz-adv-x="986" d="M76 405q0 97 23 188t68.5 167.5t109 134t150 90t185.5 32.5q64 0 122 -18t105 -51.5t74.5 -87t27.5 -120.5q0 -59 -23 -111t-65 -92t-97 -73t-123.5 -56.5t-140.5 -40t-152 -27.5l-3 -2q12 -43 38.5 -72.5t59 -43t68.5 -13.5q40 0 75 11t67.5 34t65.5 60l199 -130 q-87 -102 -185 -151t-237 -49q-192 0 -302 111.5t-110 309.5zM337 1440l275 -1l168 -299h-252zM342 536l2 -2q342 50 342 187q0 32 -23.5 50.5t-66.5 18.5q-82 0 -154.5 -66t-99.5 -188z" />
<glyph unicode="&#xe9;" horiz-adv-x="986" d="M76 405q0 97 23 188t68.5 167.5t109 134t150 90t185.5 32.5q64 0 122 -18t105 -51.5t74.5 -87t27.5 -120.5q0 -71 -33.5 -131t-89 -103.5t-134 -77t-163 -54.5t-181.5 -34l-3 -2q12 -43 38.5 -72.5t59 -43t68.5 -13.5q30 0 57 6t52.5 19t50 32.5t48.5 47.5l199 -130 q-87 -102 -185 -151t-237 -49q-192 0 -302 111.5t-110 309.5zM342 536l2 -2q342 50 342 187q0 32 -23.5 50.5t-66.5 18.5q-82 0 -154.5 -66t-99.5 -188zM483 1140l242 299l275 1l-265 -300h-252z" />
<glyph unicode="&#xea;" horiz-adv-x="986" d="M76 405q0 97 23 188t68.5 167.5t109 134t150 90t185.5 32.5q64 0 122 -18t105 -51.5t74.5 -87t27.5 -120.5q0 -71 -33.5 -131t-89 -103.5t-134 -77t-163 -54.5t-181.5 -34l-3 -2q12 -43 38.5 -72.5t59 -43t68.5 -13.5q40 0 75 11t67.5 34t65.5 60l199 -130 q-87 -102 -185 -151t-237 -49q-192 0 -302 111.5t-110 309.5zM305 1135l238 305h238l175 -305h-238l-64 157h-3l-101 -157h-245zM342 536l2 -2q342 50 342 187q0 32 -23.5 50.5t-66.5 18.5q-82 0 -154.5 -66t-99.5 -188z" />
<glyph unicode="&#xeb;" horiz-adv-x="986" d="M76 405q0 97 23 188t68.5 167.5t109 134t150 90t185.5 32.5q64 0 122 -18t105 -51.5t74.5 -87t27.5 -120.5q0 -71 -33.5 -131t-89 -103.5t-134 -77t-163 -54.5t-181.5 -34l-3 -2q12 -43 38.5 -72.5t59 -43t68.5 -13.5q40 0 75 11t67.5 34t65.5 60l199 -130 q-87 -102 -185 -151t-237 -49q-192 0 -302 111.5t-110 309.5zM282 1301q0 71 48 117.5t121 46.5q71 0 117 -45t46 -114q0 -46 -21.5 -83.5t-60.5 -59t-87 -21.5q-47 0 -84 20.5t-58 57t-21 81.5zM342 536l2 -2q342 50 342 187q0 32 -23.5 50.5t-66.5 18.5q-82 0 -154.5 -66 t-99.5 -188zM694 1301q0 47 21.5 84.5t60 58.5t87.5 21q71 0 117 -45t46 -114q0 -46 -21.5 -83.5t-60.5 -59t-87 -21.5q-72 0 -117.5 45t-45.5 114z" />
<glyph unicode="&#xec;" horiz-adv-x="544" d="M80 0l123 1000h259l-123 -1000h-259zM103 1454l276 -1l95 -299h-252z" />
<glyph unicode="&#xed;" horiz-adv-x="566" d="M81 0l123 1000h259l-123 -1000h-259zM232 1140l242 299l275 1l-265 -300h-252z" />
<glyph unicode="&#xee;" horiz-adv-x="545" d="M29 1135l238 305h238l175 -305h-238l-64 157h-3l-101 -157h-245zM81 0l123 1000h259l-123 -1000h-259z" />
<glyph unicode="&#xef;" horiz-adv-x="545" d="M25 1301q0 70 46.5 117t115.5 47q67 0 111.5 -45t44.5 -114q0 -70 -46 -116.5t-116 -46.5q-67 0 -111.5 45t-44.5 113zM81 0l123 1000h259l-123 -1000h-259zM408 1301q0 28 8 53t22.5 45t34.5 35t45 23t53 8q66 0 110.5 -45t44.5 -114q0 -70 -46 -116.5t-116 -46.5 q-44 0 -79.5 20.5t-56 57t-20.5 80.5z" />
<glyph unicode="&#xf0;" horiz-adv-x="1118" d="M76 403q0 109 38 210.5t103.5 178t159.5 123t200 46.5q93 0 163 -48l4 1q-50 140 -157 246l-127 -96l-101 128l94 73q-60 37 -129 69l129 182q104 -40 196 -100l144 111l100 -135l-111 -84q128 -124 196.5 -291.5t68.5 -370.5q0 -59 -7 -123q-9 -112 -49.5 -209.5 t-108 -171t-167 -116t-219.5 -42.5q-190 0 -305 112t-115 307zM338 418q1 -99 50 -149.5t123 -50.5q118 0 193.5 97t75.5 258q0 77 -49 121t-116 44q-117 0 -197 -93t-80 -227z" />
<glyph unicode="&#xf1;" horiz-adv-x="1139" d="M77 0l123 1000h260l-20 -162h5q144 179 348 179q151 0 209.5 -101t30.5 -309l-81 -607h-259l76 567q15 112 -2.5 163.5t-78.5 51.5q-41 0 -89 -30t-92 -81.5t-78.5 -131t-45.5 -168.5l-46 -371h-260zM319 1207q44 107 108.5 168.5t142.5 61.5q23 0 42 -3t37 -11.5t26 -13 t26 -17.5t20 -14l17 -11q13 -9 17 -11l14 -8q10 -6 15.5 -8t13.5 -4t15 -2q36 0 68 29t55 78l152 -61q-28 -76 -65.5 -131.5t-84 -86t-97.5 -30.5q-13 0 -26.5 2t-24 4.5t-22.5 7.5t-19.5 8.5t-18.5 10.5t-15.5 10.5t-15 11t-13.5 9.5q-58 41 -92 41q-36 0 -67.5 -29.5 t-54.5 -78.5z" />
<glyph unicode="&#xf2;" horiz-adv-x="1115" d="M74 408q0 97 23 187.5t69.5 167t110.5 133.5t150.5 89t186.5 32q195 0 310.5 -110t115.5 -309q0 -102 -21.5 -193t-66.5 -168.5t-108.5 -134t-153 -88t-195.5 -31.5q-194 0 -307.5 112.5t-113.5 312.5zM336 431q0 -99 47.5 -156.5t124.5 -57.5q79 0 141 49.5t94.5 131.5 t32.5 180q0 49 -12 87t-30.5 59.5t-43.5 35.5t-47.5 18.5t-46.5 4.5q-77 0 -137.5 -52t-91.5 -131.5t-31 -168.5zM338 1440l275 -1l168 -299h-252z" />
<glyph unicode="&#xf3;" horiz-adv-x="1115" d="M74 408q0 97 23 187.5t69.5 167t110.5 133.5t150.5 89t186.5 32q195 0 310.5 -110t115.5 -309q0 -102 -21.5 -193t-66.5 -168.5t-108.5 -134t-153 -88t-195.5 -31.5q-194 0 -307.5 112.5t-113.5 312.5zM336 431q0 -99 47.5 -156.5t124.5 -57.5q79 0 141 49.5t94.5 131.5 t32.5 180q0 49 -12 87t-30.5 59.5t-43.5 35.5t-47.5 18.5t-46.5 4.5q-77 0 -137.5 -52t-91.5 -131.5t-31 -168.5zM520 1140l242 299l275 1l-265 -300h-252z" />
<glyph unicode="&#xf4;" horiz-adv-x="1115" d="M74 408q0 97 23 187.5t69.5 166.5t110.5 133.5t150.5 89.5t186.5 32q195 0 310.5 -110t115.5 -309q0 -102 -21.5 -193t-66.5 -168.5t-108.5 -134t-153 -88t-195.5 -31.5q-128 0 -222.5 49.5t-146.5 146t-52 229.5zM321 1135l238 305h238l175 -305h-238l-64 157h-3 l-101 -157h-245zM336 431q0 -99 47.5 -156.5t124.5 -57.5q59 0 110 29t85 78.5t53.5 115t19.5 138.5q0 49 -12 87t-30.5 59.5t-43.5 35.5t-47.5 18.5t-46.5 4.5q-77 0 -137.5 -52t-91.5 -131.5t-31 -168.5z" />
<glyph unicode="&#xf5;" horiz-adv-x="1115" d="M74 408q0 97 23 187.5t69.5 167t110.5 133.5t150.5 89t186.5 32q195 0 310.5 -110t115.5 -309q0 -102 -21.5 -193t-66.5 -168.5t-108.5 -134t-153 -88t-195.5 -31.5q-128 0 -222.5 49.5t-146.5 146t-52 229.5zM291 1207q29 70 66 120.5t84.5 80t100.5 29.5q23 0 42 -3 t37 -11.5t26 -13t26 -17.5t20 -14l17 -11q13 -9 17 -11l14 -8q10 -6 15.5 -8t13.5 -4t15 -2q36 0 68 29t55 78l152 -61q-43 -116 -107 -182t-140 -66q-13 0 -26.5 2t-24 4.5t-22.5 7.5t-19.5 8.5t-18.5 10.5t-16 10.5t-15 11t-13 9.5q-58 41 -92 41q-36 0 -67.5 -29.5 t-54.5 -78.5zM336 431q0 -99 47.5 -156.5t124.5 -57.5q79 0 141 49.5t94.5 131.5t32.5 180q0 49 -12 87t-30.5 59.5t-43.5 35.5t-47.5 18.5t-46.5 4.5q-77 0 -137.5 -52t-91.5 -131.5t-31 -168.5z" />
<glyph unicode="&#xf6;" horiz-adv-x="1115" d="M74 408q0 97 23 187.5t69.5 167t110.5 133.5t150.5 89t186.5 32q195 0 310.5 -110t115.5 -309q0 -102 -21.5 -193t-66.5 -168.5t-108.5 -134t-153 -88t-195.5 -31.5q-194 0 -307.5 112.5t-113.5 312.5zM298 1301q0 35 12.5 65.5t35 52t54 34t67.5 12.5q71 0 117 -45 t46 -114q0 -46 -21.5 -83.5t-60.5 -59t-87 -21.5q-71 0 -117 45t-46 114zM336 431q0 -99 47.5 -156.5t124.5 -57.5q79 0 141 49.5t94.5 131.5t32.5 180q0 49 -12 87t-30.5 59.5t-43.5 35.5t-47.5 18.5t-46.5 4.5q-77 0 -137.5 -52t-91.5 -131.5t-31 -168.5zM710 1301 q0 47 21.5 84.5t60 58.5t87.5 21q71 0 117 -45t46 -114q0 -35 -12.5 -65.5t-35 -52t-54 -34t-67.5 -12.5q-72 0 -117.5 45t-45.5 114z" />
<glyph unicode="&#xf7;" horiz-adv-x="1090" d="M131 453l28 229h878l-29 -229h-877zM368 143q0 69 46.5 114.5t118.5 45.5q68 0 113 -44t45 -111q0 -34 -12.5 -63.5t-34 -51t-52 -33.5t-65.5 -12q-69 0 -114 44t-45 111zM464 967q0 34 12.5 63.5t34 51t52.5 33.5t66 12q68 0 113 -44t45 -111q0 -34 -12.5 -63.5t-34 -51 t-52 -33.5t-65.5 -12q-46 0 -82.5 20t-56.5 55.5t-20 79.5z" />
<glyph unicode="&#xf8;" horiz-adv-x="1123" d="M39 48l101 106q-66 105 -66 254q0 97 23 187.5t69.5 167t110.5 133.5t150.5 89t186.5 32q166 0 275 -80l101 106l97 -98l-105 -110q58 -100 58 -237q0 -102 -21.5 -193t-66.5 -168.5t-108.5 -134t-153 -88t-195.5 -31.5q-154 0 -257 71l-100 -105zM336 431q0 -35 6 -66 l367 384q-47 34 -113 34q-77 0 -137.5 -52t-91.5 -131.5t-31 -168.5zM418 243q40 -26 90 -26q79 0 141 49.5t94.5 131.5t32.5 180q0 15 -2 39z" />
<glyph unicode="&#xf9;" horiz-adv-x="1112" d="M103 383l76 617h258l-68 -567q-15 -120 5.5 -167.5t82.5 -47.5q38 0 82.5 28.5t84.5 75.5t70.5 114t39.5 137l53 427h259l-123 -1000h-259l21 171h-1q-126 -188 -320 -188q-154 0 -220 94.5t-41 305.5zM327 1440l275 -1l168 -299h-252z" />
<glyph unicode="&#xfa;" horiz-adv-x="1112" d="M103 383l76 617h258l-68 -567q-15 -120 5.5 -167.5t82.5 -47.5q38 0 82.5 28.5t84.5 75.5t70.5 114t39.5 137l53 427h259l-123 -1000h-259l21 171h-1q-126 -188 -320 -188q-154 0 -220 94.5t-41 305.5zM504 1140l242 299l275 1l-265 -300h-252z" />
<glyph unicode="&#xfb;" horiz-adv-x="1112" d="M103 383l76 617h258l-68 -567q-15 -120 5.5 -167.5t82.5 -47.5q38 0 82.5 28.5t84.5 75.5t70.5 114t39.5 137l53 427h259l-123 -1000h-259l21 171h-1q-126 -188 -320 -188q-154 0 -220 94.5t-41 305.5zM311 1135l238 305h238l175 -305h-238l-64 157h-3l-101 -157h-245z " />
<glyph unicode="&#xfc;" horiz-adv-x="1112" d="M103 383l76 617h258l-68 -567q-15 -120 5.5 -167.5t82.5 -47.5q38 0 82.5 28.5t84.5 75.5t70.5 114t39.5 137l53 427h259l-123 -1000h-259l21 171h-1q-126 -188 -320 -188q-154 0 -220 94.5t-41 305.5zM288 1301q0 35 12.5 65.5t35 52t54 34t67.5 12.5q71 0 117 -45 t46 -114q0 -46 -21.5 -83.5t-60.5 -59t-87 -21.5q-47 0 -84 20.5t-58 57t-21 81.5zM700 1301q0 71 47.5 117.5t121.5 46.5q71 0 117 -45t46 -114q0 -46 -21.5 -83.5t-60.5 -59t-87 -21.5q-72 0 -117.5 45t-45.5 114z" />
<glyph unicode="&#xfd;" horiz-adv-x="1114" d="M36 -325l83 210q127 -83 263 -83q50 0 88 8t75.5 30.5t63.5 61t46.5 101.5t31.5 150l2 13h-4q-125 -183 -323 -183q-154 0 -220 94.5t-40 305.5l75 617h259l-68 -567q-15 -120 5 -167.5t82 -47.5q39 0 83.5 26.5t84.5 71t71 108t42 130.5l55 446h259l-107 -871 q-12 -94 -35.5 -172t-55 -134t-72.5 -99t-85.5 -70.5t-96.5 -44.5t-102.5 -24t-106.5 -7q-198 0 -353 97zM486 1140l242 299l275 1l-265 -300h-252z" />
<glyph unicode="&#xfe;" horiz-adv-x="1166" d="M26 -405l236 1913h260l-85 -685h5q129 194 329 194q78 0 139.5 -32.5t100.5 -88.5t59.5 -129t20.5 -157q0 -124 -36 -238.5t-99.5 -200t-155.5 -137t-198 -51.5q-160 0 -253 82h-6l-57 -470h-260zM368 300q50 -84 187 -84q62 0 114.5 33t86.5 88t53 125.5t19 147.5 q0 73 -34.5 123.5t-97.5 50.5q-51 0 -102 -30.5t-95 -86.5t-77.5 -141.5t-48.5 -188.5z" />
<glyph unicode="&#xff;" horiz-adv-x="1114" d="M36 -325l83 210q127 -83 263 -83q50 0 88 8t75.5 30.5t63.5 61t46.5 101.5t31.5 150l2 13h-4q-125 -183 -323 -183q-154 0 -220 94.5t-40 305.5l75 617h259l-68 -567q-15 -120 5 -167.5t82 -47.5q39 0 83.5 26.5t84.5 71t71 108t42 130.5l55 446h259l-107 -871 q-11 -94 -35 -172t-55 -134t-72.5 -99t-86 -70.5t-96.5 -44.5t-102.5 -24t-106.5 -7q-198 0 -353 97zM291 1301q0 71 48 117.5t121 46.5q71 0 117 -45t46 -114q0 -35 -12.5 -65.5t-35 -52t-54 -34t-67.5 -12.5q-47 0 -84 20.5t-58 57t-21 81.5zM703 1301q0 47 21.5 84.5 t60 58.5t87.5 21q71 0 117 -45t46 -114q0 -46 -21.5 -83.5t-60.5 -59t-87 -21.5q-72 0 -117.5 45t-45.5 114z" />
<glyph unicode="&#x152;" horiz-adv-x="1813" d="M127 596q0 140 35 269t102 236t160 186.5t214.5 123.5t259.5 44h891l-31 -250h-565l-45 -360h450l-30 -247h-450l-42 -349h603l-30 -249h-936q-132 0 -240.5 41t-185 117.5t-118.5 188.5t-42 249zM417 610q0 -169 86 -259.5t233 -90.5h66l115 935h-47q-98 1 -183 -47 t-144 -128.5t-92.5 -187.5t-33.5 -222z" />
<glyph unicode="&#x153;" horiz-adv-x="1507" d="M51 405q0 173 62.5 312.5t176.5 219.5t258 80q197 0 284 -149h8q139 149 338 149q64 0 119.5 -16t99 -46.5t69 -80t25.5 -110.5q0 -69 -27.5 -129t-77 -106.5t-120.5 -85t-155 -66t-185 -47.5l-3 -3q12 -39 37.5 -66.5t55 -39.5t61.5 -12q41 0 90 23t92 81l198 -131 q-150 -198 -394 -198q-104 0 -186 39t-133 113h-4q-129 -152 -324 -152q-171 0 -268 113.5t-97 307.5zM311 418q0 -54 12 -94.5t32 -62.5t42 -32.5t46 -10.5q58 0 110.5 47t85 133.5t32.5 190.5q0 96 -36.5 145.5t-101.5 49.5q-57 0 -108 -48t-82.5 -133t-31.5 -185z M922 516l2 -2q145 37 228 91.5t83 124.5q0 25 -21.5 43t-61.5 18q-68 0 -137 -76t-93 -199z" />
<glyph unicode="&#x178;" horiz-adv-x="1197" d="M140 1455h307l193 -546h6l321 546h328l-540 -815l-80 -640h-281l80 640zM378 1768q0 71 48 117.5t121 46.5q71 0 117 -45t46 -114q0 -71 -48 -117.5t-121 -46.5q-71 0 -117 45t-46 114zM790 1768q0 71 47.5 117.5t121.5 46.5q35 0 65 -12t51.5 -33t34 -50.5t12.5 -63.5 q0 -71 -48 -117.5t-121 -46.5q-72 0 -117.5 45t-45.5 114z" />
<glyph unicode="&#x2c6;" horiz-adv-x="858" d="M174 1093l238 305h238l175 -305h-238l-64 157h-3l-101 -157h-245z" />
<glyph unicode="&#x2dc;" horiz-adv-x="916" d="M165 1165q29 70 66 120.5t84.5 80t100.5 29.5q23 0 42 -3t37 -11.5t26 -13t26 -17.5t20 -14q3 -2 16 -11t17 -11t14.5 -8t16 -8t13.5 -4t15 -2q36 0 68 29t55 78l152 -61q-43 -116 -107 -182t-140 -66q-15 0 -29.5 2t-28.5 7t-23 8.5t-22.5 12t-18.5 11t-18.5 12.5 t-14.5 11q-58 41 -92 41q-36 0 -67.5 -29.5t-54.5 -78.5z" />
<glyph unicode="&#x2000;" horiz-adv-x="993" />
<glyph unicode="&#x2001;" horiz-adv-x="1986" />
<glyph unicode="&#x2002;" horiz-adv-x="993" />
<glyph unicode="&#x2003;" horiz-adv-x="1986" />
<glyph unicode="&#x2004;" horiz-adv-x="662" />
<glyph unicode="&#x2005;" horiz-adv-x="496" />
<glyph unicode="&#x2006;" horiz-adv-x="331" />
<glyph unicode="&#x2007;" horiz-adv-x="331" />
<glyph unicode="&#x2008;" horiz-adv-x="248" />
<glyph unicode="&#x2009;" horiz-adv-x="397" />
<glyph unicode="&#x200a;" horiz-adv-x="110" />
<glyph unicode="&#x2010;" horiz-adv-x="773" d="M106 510l30 245h563l-31 -245h-562z" />
<glyph unicode="&#x2011;" horiz-adv-x="773" d="M106 510l30 245h563l-31 -245h-562z" />
<glyph unicode="&#x2012;" horiz-adv-x="773" d="M106 510l30 245h563l-31 -245h-562z" />
<glyph unicode="&#x2013;" horiz-adv-x="1167" d="M105 498l27 225h957l-28 -225h-956z" />
<glyph unicode="&#x2014;" horiz-adv-x="2123" d="M105 498l27 225h1913l-28 -225h-1912z" />
<glyph unicode="&#x2018;" horiz-adv-x="453" d="M110 922l188 530h201l-121 -530h-268z" />
<glyph unicode="&#x2019;" horiz-adv-x="454" d="M123 925l121 530h268l-188 -530h-201z" />
<glyph unicode="&#x201a;" horiz-adv-x="492" d="M-38 -271l121 529h266l-199 -529h-188z" />
<glyph unicode="&#x201c;" horiz-adv-x="821" d="M110 923l189 530h201l-121 -530h-269zM477 923l188 530h201l-121 -530h-268z" />
<glyph unicode="&#x201d;" horiz-adv-x="821" d="M124 925l121 530h268l-188 -530h-201zM490 925l121 530h269l-189 -530h-201z" />
<glyph unicode="&#x201e;" horiz-adv-x="860" d="M-24 -160l121 530h268l-188 -530h-201zM342 -160l121 530h269l-189 -530h-201z" />
<glyph unicode="&#x2022;" horiz-adv-x="884" d="M223 644q0 101 69 169t173 68q99 0 165.5 -65.5t66.5 -163.5q0 -104 -69.5 -173t-172.5 -69q-66 0 -119 30.5t-83 84t-30 119.5z" />
<glyph unicode="&#x2026;" horiz-adv-x="2048" d="M134 142q0 71 47.5 117.5t119.5 46.5q69 0 115 -45t46 -114q0 -71 -47.5 -117.5t-119.5 -46.5q-70 0 -115.5 45.5t-45.5 113.5zM817 142q0 71 47.5 117.5t119.5 46.5q69 0 115 -45t46 -114q0 -71 -47.5 -117.5t-119.5 -46.5q-70 0 -115.5 45.5t-45.5 113.5zM1500 142 q0 35 12.5 65.5t34.5 52t53 34t67 12.5q69 0 115 -45t46 -114q0 -71 -47.5 -117.5t-119.5 -46.5q-70 0 -115.5 45.5t-45.5 113.5z" />
<glyph unicode="&#x202f;" horiz-adv-x="397" />
<glyph unicode="&#x2039;" horiz-adv-x="608" d="M88 505l275 434h243l-272 -434l165 -426h-244z" />
<glyph unicode="&#x203a;" horiz-adv-x="600" d="M3 79l270 426l-167 434h244l170 -434l-271 -426h-246z" />
<glyph unicode="&#x205f;" horiz-adv-x="496" />
<glyph unicode="&#x20ac;" horiz-adv-x="1133" d="M26 483l17 139h103q3 63 12 121h-100l17 138h116q35 110 94 201t137.5 156.5t179.5 102t214 36.5q200 0 348 -123l-183 -191q-69 66 -163 66q-111 0 -196 -67t-135 -181h399l-17 -138h-426q-12 -58 -15 -121h426l-17 -139h-402q20 -120 86 -185t162 -65q122 0 213 78 l139 -207q-167 -119 -366 -119q-101 0 -189 31.5t-158 92t-115.5 156.5t-57.5 218h-123z" />
<glyph unicode="&#x2122;" horiz-adv-x="1295" d="M145 1312l17 143h461l-17 -143h-151l-64 -520h-158l64 520h-152zM619 792l81 663h162l104 -351l191 351h166l-81 -663h-157l47 370l-133 -245h-103l-74 246l-47 -371h-156z" />
<glyph unicode="&#x25fc;" horiz-adv-x="1000" d="M0 0v1000h1000v-1000h-1000z" />
</font>
</defs>
</svg>
